<svg width="162" height="162" viewBox="0 0 162 162" fill="none" xmlns="http://www.w3.org/2000/svg">
<path d="M92.5327 102.796L92.5338 102.796C92.9715 102.914 93.4146 102.971 93.8535 102.971C94.7264 102.971 95.5914 102.743 96.3781 102.292L92.5327 102.796ZM92.5327 102.796C91.2249 102.446 90.1359 101.611 89.4573 100.437M92.5327 102.796L89.4573 100.437M89.4573 100.437C88.6157 98.9766 87.038 98.1535 85.3939 98.2148L85.3854 98.2152C84.5918 98.2516 83.7971 98.2527 83.0217 98.2141L83.0158 98.2138C81.3461 98.1406 79.7771 98.9797 78.9381 100.436L79.8045 100.935L78.9387 100.435C78.2599 101.61 77.1704 102.446 75.8627 102.796L75.8597 102.797C74.5546 103.15 73.1945 102.969 72.0185 102.29C72.0185 102.29 72.0184 102.29 72.0183 102.29L65.7071 98.6471M89.4573 100.437L65.7071 98.6471M65.7071 98.6471C63.2888 97.2508 62.4576 94.1469 63.8528 91.7276M65.7071 98.6471L63.8528 91.7276M63.8528 91.7276C64.6998 90.2623 64.6189 88.4539 63.6995 87.0165L63.6975 87.0134C63.501 86.7087 63.3099 86.396 63.1266 86.0765L63.1249 86.0736C62.9401 85.7538 62.7636 85.4318 62.5977 85.1087L62.5963 85.106C61.812 83.5899 60.2861 82.6185 58.5939 82.6185C55.8019 82.6185 53.5293 80.3458 53.5293 77.5538V70.2661C53.5293 67.4742 55.8019 65.2015 58.5939 65.2015C60.2709 65.2015 61.7937 64.2695 62.5611 62.7766L62.5613 62.7762C62.9204 62.0768 63.3172 61.3903 63.7405 60.7322L63.8528 91.7276ZM72.0196 45.5286L65.7084 49.1728L65.7081 49.173C63.2897 50.5683 62.4576 53.6737 63.8544 56.0927L63.8544 56.0927C64.6917 57.543 64.6479 59.324 63.7407 60.732L72.0196 45.5286ZM72.0196 45.5286C72.0197 45.5285 72.0198 45.5284 72.02 45.5283C73.1944 44.851 74.5552 44.6716 75.8632 45.0225L75.864 45.0227C77.1719 45.3725 78.2611 46.2092 78.9385 47.3823M72.0196 45.5286L78.9385 47.3823M78.9385 47.3823C79.7699 48.8235 81.3264 49.7047 83.0194 49.6044C83.7951 49.5672 84.5891 49.5673 85.3759 49.6047L85.3787 49.6048C87.0208 49.6781 88.6149 48.8433 89.4569 47.3849C90.8564 44.9655 93.9611 44.1347 96.3767 45.5283C96.3768 45.5284 96.3769 45.5285 96.377 45.5285L102.688 49.1728L102.688 49.1729C103.861 49.8502 104.698 50.9395 105.048 52.2474L105.048 52.2482C105.399 53.5562 105.22 54.917 104.542 56.0915C103.696 57.5565 103.774 59.3635 104.697 60.8012C104.896 61.1136 105.088 61.4257 105.269 61.7412C105.456 62.0665 105.633 62.3883 105.798 62.71L105.799 62.7117C106.584 64.2277 108.109 65.2015 109.801 65.2015C112.593 65.2015 114.866 67.4742 114.866 70.2661V77.5538C114.866 80.3458 112.593 82.6185 109.801 82.6185C108.124 82.6185 106.603 83.5507 105.836 85.043L78.9385 47.3823ZM72.3196 46.0475L72.3202 46.0472C73.0197 45.6439 73.788 45.4508 74.5457 45.4508C76.0853 45.4508 77.5913 46.2489 78.4211 47.6806L78.4221 47.6823C79.3701 49.325 81.1335 50.2811 83.0484 50.2037C83.8054 50.1672 84.579 50.1673 85.343 50.2037C87.2561 50.287 89.0276 49.3284 89.9787 47.6819L89.979 47.6813C91.2116 45.5511 93.9475 44.817 96.0783 46.0475L72.3196 46.0475ZM72.3196 46.0475L66.0083 49.6919M72.3196 46.0475L66.0083 49.6919M66.0083 49.6919C66.0082 49.6919 66.0081 49.692 66.008 49.692C64.9762 50.2875 64.2354 51.2534 63.9277 52.404C63.62 53.5545 63.7797 54.7603 64.3746 55.7913M66.0083 49.6919L64.3746 55.7913M64.3746 55.7913C65.3261 57.4414 65.2774 59.4547 64.2465 61.057C63.8334 61.6984 63.447 62.3696 63.0962 63.0509L63.0958 63.0518C62.2229 64.7507 60.5017 65.8023 58.5978 65.8023C56.1343 65.8023 54.1301 67.8038 54.1301 70.2674V77.5551C54.1301 80.018 56.1323 82.0203 58.5952 82.0203C60.4845 82.0203 62.2263 83.0869 63.1308 84.8329C63.1309 84.8331 63.131 84.8333 63.1311 84.8335L64.0191 84.3736L64.3746 55.7913ZM102.689 98.6485L96.3801 102.29L105.836 85.0434C105.481 85.7316 105.084 86.4201 104.656 87.0882C103.749 88.498 103.705 90.277 104.542 91.7272L105.408 91.2272L104.542 91.7272C105.939 94.1461 105.107 97.2517 102.69 98.6483C102.69 98.6484 102.69 98.6484 102.689 98.6485ZM102.39 49.6919L96.0784 46.0475L96.0765 101.772L102.387 98.1293L102.387 98.1292C104.52 96.8977 105.253 94.1626 104.022 92.0287C103.07 90.3785 103.119 88.3653 104.15 86.7645L104.15 86.764C104.568 86.1146 104.956 85.4418 105.301 84.7691C106.175 83.07 107.897 82.019 109.799 82.019C112.262 82.019 114.267 80.0175 114.267 77.5538V70.2661C114.267 67.8032 112.264 65.801 109.801 65.801C107.912 65.801 106.17 64.734 105.267 62.9882L105.266 62.9853C105.102 62.6712 104.931 62.3572 104.75 62.0428L104.749 62.0407C104.57 61.7309 104.383 61.4248 104.193 61.1265L104.191 61.1243C103.13 59.4714 103.077 57.4291 104.023 55.792L104.023 55.7915C104.618 54.7604 104.778 53.5546 104.47 52.404C104.163 51.2534 103.422 50.2875 102.39 49.692C102.39 49.692 102.39 49.6919 102.39 49.6919ZM65.0459 86.1543C66.3027 88.1169 66.3768 90.5591 65.2395 92.5282L65.0459 86.1543ZM63.646 85.7762C63.8264 86.0882 64.012 86.393 64.2028 86.6921L64.2037 86.6936C65.2653 88.3512 65.3181 90.3927 64.3736 92.0281L64.3735 92.0282C63.1419 94.1614 63.8756 96.8963 66.0076 98.129L66.0082 98.1293L72.3197 101.773L72.3205 101.773C73.3531 102.368 74.5583 102.526 75.7065 102.22L75.7074 102.22C76.858 101.912 77.8241 101.171 78.4195 100.139C79.3727 98.4904 81.1506 97.525 83.0522 97.6174L83.0541 97.6175C83.8083 97.6526 84.5819 97.6554 85.3551 97.6188L85.3616 97.6184C87.2631 97.5156 89.0218 98.4858 89.9771 100.138C90.5721 101.169 91.5378 101.912 92.6892 102.22C93.8387 102.527 95.0435 102.369 96.0756 101.773L63.646 85.7762Z" fill="#9ACC5B" stroke="#9ACC5B" stroke-width="2"/>
<path d="M93.6845 81.2357H89.8334C89.6669 81.2357 89.5336 81.1025 89.5336 80.936C89.5336 80.7695 89.6669 80.6362 89.8334 80.6362H93.6845C93.851 80.6362 93.9843 80.7695 93.9843 80.936C93.9843 81.1025 93.851 81.2357 93.6845 81.2357Z" fill="#9ACC5B" stroke="white" stroke-width="2"/>
<path d="M93.6845 67.1825H89.8334C89.6676 67.1825 89.5336 67.0486 89.5336 66.8828C89.5336 66.7169 89.6676 66.583 89.8334 66.583H93.6845C93.8504 66.583 93.9843 66.7169 93.9843 66.8828C93.9843 67.0486 93.8504 67.1825 93.6845 67.1825Z" fill="#9ACC5B" stroke="white" stroke-width="2"/>
<path d="M40.3662 43.2059C37.3195 43.2059 34.8401 40.7266 34.8401 37.6799C34.8401 34.6331 37.3195 32.1538 40.3662 32.1538C43.4129 32.1538 45.8922 34.6331 45.8922 37.6799C45.8922 40.7266 43.4129 43.2059 40.3662 43.2059ZM40.3662 32.7546C37.6485 32.7546 35.4396 34.9635 35.4396 37.6812C35.4396 40.3988 37.6485 42.6077 40.3662 42.6077C43.0839 42.6077 45.2927 40.3988 45.2927 37.6812C45.2927 34.9635 43.0839 32.7546 40.3662 32.7546Z" fill="#9ACC5B" stroke="#9ACC5B" stroke-width="2"/>
<path d="M56.0466 38.2017L55.7718 37.9799H55.4186H45.5925C45.4273 37.9799 45.2927 37.8453 45.2927 37.6801C45.2927 37.5149 45.4273 37.3804 45.5925 37.3804H55.8774C55.9467 37.3804 56.0118 37.4036 56.0647 37.4464L56.0656 37.4471L68.7161 47.6566L68.7161 47.6567C68.8453 47.761 68.8646 47.9497 68.7616 48.077L68.7613 48.0773C68.7016 48.1512 68.6167 48.1894 68.5266 48.1894C68.4616 48.1894 68.3972 48.1689 68.3392 48.1223C68.3391 48.1222 68.339 48.1221 68.3389 48.1221L56.0466 38.2017Z" fill="#9ACC5B" stroke="#9ACC5B" stroke-width="2"/>
<path d="M122.503 110.138C122.503 113.184 124.982 115.663 128.029 115.663C131.074 115.663 133.554 113.184 133.555 110.138H122.503ZM122.503 110.138C122.503 107.092 124.982 104.612 128.029 104.612M122.503 110.138L128.029 104.612M128.029 104.612C131.076 104.612 133.555 107.091 133.555 110.138L128.029 104.612ZM128.029 105.213C125.313 105.213 123.103 107.422 123.103 110.14C123.103 112.858 125.312 115.065 128.029 115.065C130.746 115.065 132.956 112.858 132.956 110.14C132.956 107.422 130.745 105.213 128.029 105.213Z" fill="#9ACC5B" stroke="#9ACC5B" stroke-width="2"/>
<path d="M112.332 110.372L112.331 110.371L99.6792 100.162C99.6792 100.162 99.6792 100.162 99.6792 100.162C99.55 100.058 99.5307 99.8688 99.6338 99.7415L99.6354 99.7395C99.7395 99.61 99.9268 99.5912 100.054 99.6941L100.056 99.6958L112.351 109.618L112.626 109.84H112.979H122.804C122.971 109.84 123.104 109.973 123.104 110.14C123.104 110.304 122.972 110.438 122.803 110.438H112.519C112.45 110.438 112.385 110.415 112.332 110.372Z" fill="#9ACC5B" stroke="#9ACC5B" stroke-width="2"/>
<path d="M128.029 43.2059C124.982 43.2059 122.503 40.7266 122.503 37.6799C122.503 34.6331 124.982 32.1538 128.029 32.1538C131.076 32.1538 133.555 34.6331 133.555 37.6799C133.555 40.7264 131.075 43.2059 128.029 43.2059ZM128.029 32.7546C125.313 32.7546 123.103 34.9633 123.103 37.6812C123.103 40.3988 125.311 42.6077 128.029 42.6077C130.747 42.6077 132.956 40.3988 132.956 37.6812C132.956 34.9633 130.745 32.7546 128.029 32.7546Z" fill="#9ACC5B" stroke="#9ACC5B" stroke-width="2"/>
<path d="M99.6356 48.0793L99.6345 48.0779C99.5305 47.9491 99.5512 47.7599 99.679 47.6568L99.6792 47.6567L112.331 37.4471L112.332 37.4464C112.385 37.4036 112.45 37.3804 112.519 37.3804H122.803C122.969 37.3804 123.103 37.5143 123.103 37.6801C123.103 37.846 122.969 37.9799 122.803 37.9799H112.978H112.625L112.35 38.2016L100.054 48.1226L100.054 48.1226L100.051 48.1258C99.9991 48.1677 99.9355 48.1894 99.8687 48.1894C99.7771 48.1894 99.6926 48.1502 99.6356 48.0793Z" fill="#9ACC5B" stroke="#9ACC5B" stroke-width="2"/>
<path d="M40.3662 115.663C37.3193 115.663 34.8401 113.184 34.8401 110.138C34.8401 107.092 37.3195 104.612 40.3662 104.612C43.4129 104.612 45.8922 107.092 45.8922 110.138C45.8922 113.184 43.413 115.663 40.3662 115.663ZM40.3662 105.213C37.6485 105.213 35.4396 107.422 35.4396 110.14C35.4396 112.858 37.649 115.065 40.3662 115.065C43.0834 115.065 45.2927 112.858 45.2927 110.14C45.2927 107.422 43.0839 105.213 40.3662 105.213Z" fill="#9ACC5B" stroke="#9ACC5B" stroke-width="2"/>
<path d="M55.4173 109.839H55.7705L56.0454 109.617L68.3383 99.6947C68.4677 99.5903 68.6556 99.6107 68.7596 99.7395C68.8636 99.8683 68.8428 100.057 68.715 100.161L68.7148 100.161L56.0643 110.37L56.0643 110.37L56.0586 110.375C56.0104 110.414 55.9467 110.438 55.8761 110.438H45.5912C45.4254 110.438 45.2914 110.304 45.2914 110.139C45.2914 109.973 45.4254 109.839 45.5912 109.839H55.4173Z" fill="#9ACC5B" stroke="#9ACC5B" stroke-width="2"/>
<path d="M84.1977 32.8692C81.1508 32.8692 78.6716 30.3897 78.6716 27.3444C78.6716 24.2977 81.151 21.8184 84.1977 21.8184C87.2444 21.8184 89.7237 24.2977 89.7237 27.3444C89.7237 30.3897 87.2445 32.8692 84.1977 32.8692ZM84.1977 22.4192C81.48 22.4192 79.2711 24.628 79.2711 27.3457C79.2711 30.0623 81.4802 32.2709 84.1977 32.2709C86.9136 32.2709 89.1242 30.0625 89.1242 27.3457C89.1242 24.6278 86.9138 22.4192 84.1977 22.4192Z" fill="#9ACC5B" stroke="#9ACC5B" stroke-width="2"/>
<path d="M84.1977 126C81.151 126 78.6716 123.521 78.6716 120.474C78.6716 117.428 81.151 114.948 84.1977 114.948C87.2444 114.948 89.7237 117.428 89.7237 120.474C89.7237 123.521 87.2444 126 84.1977 126ZM84.1977 115.549C81.48 115.549 79.2711 117.758 79.2711 120.476C79.2711 123.193 81.48 125.402 84.1977 125.402C86.9138 125.402 89.1242 123.193 89.1242 120.476C89.1242 117.758 86.9138 115.549 84.1977 115.549Z" fill="#9ACC5B" stroke="#9ACC5B" stroke-width="2"/>
<path d="M84.1977 50.1752C84.0325 50.1752 83.8979 50.0406 83.8979 49.8755V32.5693C83.8979 32.4041 84.0325 32.2695 84.1977 32.2695C84.3628 32.2695 84.4974 32.4041 84.4974 32.5693V49.8742C84.4974 50.0413 84.3622 50.1752 84.1977 50.1752Z" fill="#9ACC5B" stroke="#9ACC5B" stroke-width="2"/>
<path d="M84.1977 115.549C84.0318 115.549 83.8979 115.415 83.8979 115.249V97.9428C83.8979 97.777 84.0318 97.6431 84.1977 97.6431C84.3635 97.6431 84.4974 97.777 84.4974 97.9428V115.248C84.4974 115.415 84.3622 115.549 84.1977 115.549Z" fill="#9ACC5B" stroke="#9ACC5B" stroke-width="2"/>
<path d="M32.235 79.4354C29.1882 79.4354 26.7089 76.9561 26.7089 73.9093C26.7089 70.8626 29.1882 68.3833 32.235 68.3833C35.2817 68.3833 37.761 70.8626 37.761 73.9093C37.761 76.9559 35.2805 79.4354 32.235 79.4354ZM32.235 68.9828C29.5173 68.9828 27.3084 71.1917 27.3084 73.9093C27.3084 76.6255 29.5171 78.8359 32.235 78.8359C34.9533 78.8359 37.1602 76.6251 37.1602 73.9093C37.1602 71.1919 34.9516 68.9828 32.235 68.9828Z" fill="#9ACC5B" stroke="#9ACC5B" stroke-width="2"/>
<path d="M136.16 79.4354C133.114 79.4354 130.634 76.9561 130.634 73.9093C130.634 70.8626 133.114 68.3833 136.16 68.3833C139.207 68.3833 141.686 70.8626 141.686 73.9093C141.686 76.9561 139.207 79.4354 136.16 79.4354ZM136.16 68.9828C133.444 68.9828 131.234 71.1915 131.234 73.9093C131.234 76.6255 133.443 78.8359 136.16 78.8359C138.878 78.8359 141.087 76.6255 141.087 73.9093C141.087 71.1917 138.878 68.9828 136.16 68.9828Z" fill="#9ACC5B" stroke="#9ACC5B" stroke-width="2"/>
<path d="M53.829 74.2089H37.46C37.2948 74.2089 37.1602 74.0743 37.1602 73.9091C37.1602 73.7439 37.2948 73.6094 37.46 73.6094H53.829C53.9942 73.6094 54.1288 73.7439 54.1288 73.9091C54.1288 74.075 53.9948 74.2089 53.829 74.2089Z" fill="#9ACC5B" stroke="#9ACC5B" stroke-width="2"/>
<path d="M130.935 74.2089H114.565C114.399 74.2089 114.265 74.075 114.265 73.9091C114.265 73.7433 114.399 73.6094 114.565 73.6094H130.935C131.101 73.6094 131.235 73.7433 131.235 73.9091C131.235 74.075 131.101 74.2089 130.935 74.2089Z" fill="#9ACC5B" stroke="#9ACC5B" stroke-width="2"/>
<path d="M63 96L65.5 99.5L70 102L75 102.5L78.5 101L82.5 98.5L86.5 99.5L91.5 102.5H98L103.5 99.5L104.5 95L103.5 90L105 85L109.5 83H113L114.5 81V73L113 67.5L108.5 66L105 63.5L103.5 60L105 55.5L103.5 51.5L98 47.5L94 46L89.5 47.5L86.5 49.5L83 51.5L80 49.5L78.5 47.5L75 46L71 47.5L67 49.5L64 51.5V55.5V60L63 63.5L59.5 66H57.5L54 67.5V70V76.5V81L59.5 83L63 87V91.5V96Z" fill="#9ACC5B"/>
<path d="M84.1977 90.807C74.8823 90.807 67.3014 83.2262 67.3014 73.9094C67.3014 64.594 74.8823 57.0132 84.1977 57.0132C93.5144 57.0132 101.095 64.5941 101.095 73.9094C101.095 83.2262 93.5144 90.807 84.1977 90.807ZM84.1977 57.6127C75.2113 57.6127 67.9009 64.9231 67.9009 73.9094C67.9009 82.8957 75.2112 90.2075 84.1977 90.2075C93.184 90.2075 100.496 82.8958 100.496 73.9094C100.496 64.923 93.1839 57.6127 84.1977 57.6127Z" fill="#0A0B0A" stroke="white" stroke-width="2"/>
<path d="M91.7583 81.2354C91.5919 81.2354 91.4586 81.1021 91.4586 80.9356V66.8828C91.4586 66.7169 91.5925 66.583 91.7583 66.583C91.9242 66.583 92.0581 66.7169 92.0581 66.8828V80.937C92.0581 81.1015 91.9255 81.2354 91.7583 81.2354Z" fill="#9ACC5B" stroke="white" stroke-width="2"/>
<path d="M74.6081 81.2163L74.6062 81.2156C74.453 81.1595 74.3723 80.9879 74.4299 80.8317L74.4302 80.8311L79.6005 66.7783C79.6005 66.7782 79.6005 66.7782 79.6005 66.7782C79.6443 66.6593 79.7571 66.5815 79.8812 66.5815C80.0069 66.5815 80.1189 66.6606 80.1612 66.7762L80.1619 66.7783L85.333 80.8296C85.3331 80.8297 85.3332 80.8299 85.3332 80.8301C85.391 80.9887 85.3092 81.1596 85.1563 81.2156L85.1529 81.2168C85.0012 81.273 84.827 81.1944 84.7697 81.0386C84.7696 81.0386 84.7696 81.0386 84.7696 81.0385L80.8184 70.3001L79.8798 67.749L78.9414 70.3002L74.9915 81.0387L74.9907 81.0407C74.9478 81.1581 74.8356 81.2352 74.7108 81.2352C74.6787 81.2352 74.645 81.2299 74.6081 81.2163Z" fill="#9ACC5B" stroke="white" stroke-width="2"/>
<path d="M83.8207 77.89H75.9417C75.7758 77.89 75.6419 77.7561 75.6419 77.5903C75.6419 77.4245 75.7758 77.2905 75.9417 77.2905H83.8207C83.9866 77.2905 84.1205 77.4245 84.1205 77.5903C84.1205 77.7561 83.9866 77.89 83.8207 77.89Z" fill="#9ACC5B" stroke="white" stroke-width="2"/>
</svg>
