<svg width="98" height="96" viewBox="0 0 98 96" fill="none" xmlns="http://www.w3.org/2000/svg">
<g id="web-programming-and-code-screen-black-outline-17124 3">
<g id="Group">
<path id="Vector" d="M91.2547 5.04932H6.63555C3.2729 5.04932 0.53846 7.72795 0.53846 11.0209V55.9433V64.9424C0.53846 68.2353 3.2729 70.915 6.63555 70.915H35.2998C35.1707 74.2659 34.4242 77.5347 33.0796 80.6559H29.8073C26.0875 80.6559 23.0605 83.6201 23.0605 87.2639V89.7898C23.0605 90.3725 23.5424 90.8435 24.1362 90.8435H73.7562C74.3511 90.8435 74.8319 90.3725 74.8319 89.7898V87.2639C74.8319 83.6201 71.8059 80.6559 68.0851 80.6559H64.8117C63.466 77.5336 62.7206 74.2649 62.5915 70.915H91.2557C94.6173 70.915 97.3528 68.2353 97.3528 64.9424V55.9433V11.0209C97.3517 7.72795 94.6162 5.04932 91.2547 5.04932ZM6.63555 7.15682H91.2547C93.4297 7.15682 95.2003 8.89024 95.2003 11.0209V54.8896H2.68987V11.0209C2.68987 8.89024 4.46047 7.15682 6.63555 7.15682ZM72.6794 87.265V88.7371H25.2108V87.265C25.2108 84.7834 27.2729 82.7644 29.8062 82.7644H33.7938H64.0964H68.084C70.6173 82.7634 72.6794 84.7824 72.6794 87.265ZM62.4796 80.6559H35.4106C36.653 77.522 37.3404 74.2575 37.4598 70.915H60.4304C60.5487 74.2564 61.2372 77.521 62.4796 80.6559ZM95.2003 64.9424C95.2003 67.073 93.4297 68.8075 91.2547 68.8075H61.4867H36.4035H6.63555C4.46047 68.8075 2.68987 67.073 2.68987 64.9424V56.9971H95.2003V64.9424Z" fill="#9ACC5B"/>
<path id="Vector_2" d="M16.7418 33.5235C16.9537 33.7469 17.2409 33.8597 17.5292 33.8597C17.7917 33.8597 18.0552 33.7659 18.2617 33.5773C18.6963 33.181 18.7211 32.514 18.3166 32.0883L12.5024 25.9692L18.3166 19.8501C18.7211 19.4243 18.6974 18.7573 18.2617 18.3611C17.8282 17.966 17.1473 17.9881 16.7418 18.4149L10.2445 25.2516C9.8605 25.6562 9.8605 26.2832 10.2445 26.6868L16.7418 33.5235Z" fill="#9ACC5B"/>
<path id="Vector_3" d="M35.2794 33.5767C35.4859 33.7653 35.7494 33.8591 36.0119 33.8591C36.3002 33.8591 36.5874 33.7463 36.7993 33.5229L43.2966 26.6862C43.6806 26.2815 43.6806 25.6546 43.2966 25.251L36.7993 18.4143C36.3949 17.9864 35.7129 17.9654 35.2794 18.3605C34.8448 18.7567 34.82 19.4237 35.2245 19.8495L41.0387 25.9686L35.2245 32.0877C34.82 32.5134 34.8448 33.1804 35.2794 33.5767Z" fill="#9ACC5B"/>
<path id="Vector_4" d="M23.2853 35.9369C23.4004 35.9758 23.5187 35.9938 23.6338 35.9938C24.0813 35.9938 24.4987 35.7187 24.6514 35.2814L30.9238 17.3392C31.1164 16.7881 30.8163 16.1896 30.2548 15.9999C29.6911 15.8102 29.0812 16.1053 28.8875 16.6553L22.6151 34.5975C22.4247 35.1486 22.7238 35.7482 23.2853 35.9369Z" fill="#9ACC5B"/>
<path id="Vector_5" d="M53.647 18.8546H66.7652C67.3601 18.8546 67.8409 18.3825 67.8409 17.8008C67.8409 17.2192 67.3601 16.7471 66.7652 16.7471H53.647C53.0521 16.7471 52.5713 17.2192 52.5713 17.8008C52.5713 18.3825 53.0521 18.8546 53.647 18.8546Z" fill="#9ACC5B"/>
<path id="Vector_6" d="M77.1597 18.8546H87.309C87.9038 18.8546 88.3847 18.3825 88.3847 17.8008C88.3847 17.2192 87.9038 16.7471 87.309 16.7471H77.1597C76.5649 16.7471 76.084 17.2192 76.084 17.8008C76.084 18.3825 76.5659 18.8546 77.1597 18.8546Z" fill="#9ACC5B"/>
<path id="Vector_7" d="M53.647 28.3385H87.309C87.9038 28.3385 88.3847 27.8664 88.3847 27.2847C88.3847 26.703 87.9038 26.231 87.309 26.231H53.647C53.0521 26.231 52.5713 26.703 52.5713 27.2847C52.5713 27.8664 53.0521 28.3385 53.647 28.3385Z" fill="#9ACC5B"/>
<path id="Vector_8" d="M87.309 35.7144H68.7068C68.112 35.7144 67.6311 36.1864 67.6311 36.7681C67.6311 37.3498 68.112 37.8219 68.7068 37.8219H87.309C87.9038 37.8219 88.3847 37.3498 88.3847 36.7681C88.3847 36.1864 87.9038 35.7144 87.309 35.7144Z" fill="#9ACC5B"/>
<path id="Vector_9" d="M53.647 37.8219H59.3407C59.9356 37.8219 60.4164 37.3498 60.4164 36.7681C60.4164 36.1864 59.9356 35.7144 59.3407 35.7144H53.647C53.0521 35.7144 52.5713 36.1864 52.5713 36.7681C52.5713 37.3498 53.0521 37.8219 53.647 37.8219Z" fill="#9ACC5B"/>
<path id="Vector_10" d="M87.309 45.1982H62.2526C61.6578 45.1982 61.1769 45.6703 61.1769 46.252C61.1769 46.8337 61.6578 47.3057 62.2526 47.3057H87.309C87.9038 47.3057 88.3847 46.8337 88.3847 46.252C88.3847 45.6703 87.9038 45.1982 87.309 45.1982Z" fill="#9ACC5B"/>
<path id="Vector_11" d="M10.7426 47.3057H23.7543C24.3481 47.3057 24.83 46.8337 24.83 46.252C24.83 45.6703 24.3481 45.1982 23.7543 45.1982H10.7426C10.1488 45.1982 9.66688 45.6703 9.66688 46.252C9.66688 46.8337 10.1488 47.3057 10.7426 47.3057Z" fill="#9ACC5B"/>
<path id="Vector_12" d="M33.2086 47.3057H53.647C54.2419 47.3057 54.7227 46.8337 54.7227 46.252C54.7227 45.6703 54.2419 45.1982 53.647 45.1982H33.2086C32.6148 45.1982 32.1329 45.6703 32.1329 46.252C32.1329 46.8337 32.6148 47.3057 33.2086 47.3057Z" fill="#9ACC5B"/>
</g>
</g>
</svg>
