<svg width="256" height="256" viewBox="0 0 256 256" fill="none" xmlns="http://www.w3.org/2000/svg">
<g id="production-9664 2">
<g id="Group">
<path id="Vector" d="M147.654 124.496C146.938 124.496 146.237 124.356 145.566 124.078C144.224 123.521 143.175 122.473 142.619 121.131C142.092 119.853 140.963 119.714 140.501 119.714C140.039 119.714 138.916 119.853 138.384 121.131C137.23 123.904 134.039 125.226 131.266 124.078L124.705 121.359C121.926 120.206 120.609 117.015 121.757 114.236C122.284 112.959 121.588 112.064 121.26 111.741C120.932 111.413 120.037 110.712 118.76 111.244C115.981 112.387 112.79 111.065 111.637 108.296L108.918 101.735C107.77 98.9567 109.092 95.7655 111.865 94.6173C113.143 94.0904 113.282 92.9621 113.282 92.4998C113.282 92.0376 113.148 90.9142 111.87 90.3824C110.523 89.8256 109.475 88.7768 108.923 87.4348C108.366 86.0927 108.366 84.6115 108.923 83.2644L111.642 76.7032C112.795 73.9296 115.991 72.6074 118.765 73.7556C120.042 74.2875 120.937 73.5866 121.26 73.2586C121.583 72.9305 122.284 72.0358 121.757 70.7633C121.2 69.4163 121.2 67.9351 121.757 66.593C122.314 65.246 123.357 64.1972 124.705 63.6405L131.266 60.9215C134.039 59.7733 137.235 61.0955 138.389 63.8691C138.916 65.1416 140.044 65.2808 140.506 65.2808C140.968 65.2808 142.092 65.1416 142.624 63.8691C143.18 62.5221 144.229 61.4733 145.571 60.9166C146.918 60.3598 148.399 60.3598 149.742 60.9166L156.298 63.6355C157.645 64.1922 158.694 65.241 159.245 66.588C159.802 67.9301 159.802 69.4113 159.245 70.7584C158.718 72.0358 159.414 72.9305 159.742 73.2536C160.07 73.5817 160.965 74.2825 162.238 73.7507C163.58 73.194 165.061 73.194 166.408 73.7507C167.755 74.3074 168.804 75.3562 169.356 76.7032L172.074 83.2595C172.631 84.6065 172.631 86.0877 172.074 87.4298C171.518 88.7768 170.469 89.8207 169.127 90.3774C167.849 90.9043 167.715 92.0326 167.715 92.4949C167.715 92.9571 167.854 94.0805 169.132 94.6123C171.905 95.7606 173.228 98.9567 172.079 101.73L169.361 108.291C168.804 109.634 167.755 110.682 166.413 111.239C165.071 111.796 163.59 111.796 162.243 111.239C160.965 110.707 160.075 111.413 159.747 111.736C159.419 112.064 158.718 112.954 159.25 114.231C160.399 117.005 159.076 120.201 156.303 121.354L149.746 124.073C149.066 124.357 148.365 124.496 147.654 124.496ZM112.85 96.9784C111.378 97.5897 110.672 99.2847 111.284 100.756L114.003 107.317C114.614 108.789 116.314 109.499 117.785 108.883C119.987 107.968 121.961 108.828 123.064 109.937C124.173 111.04 125.028 113.009 124.113 115.216C123.502 116.687 124.202 118.387 125.679 118.998L132.24 121.717C133.711 122.324 135.411 121.623 136.023 120.151C136.937 117.944 138.935 117.159 140.501 117.159C142.067 117.159 144.065 117.944 144.98 120.151C145.273 120.867 145.83 121.424 146.545 121.717C147.261 122.015 148.047 122.015 148.762 121.717L155.319 118.998C156.795 118.387 157.496 116.692 156.884 115.216C155.97 113.004 156.83 111.04 157.938 109.932C159.037 108.823 161.01 107.968 163.217 108.883C163.933 109.181 164.723 109.181 165.434 108.883C166.15 108.59 166.706 108.033 167.004 107.317L169.723 100.756C170.335 99.2847 169.629 97.5848 168.158 96.9734C165.951 96.0588 165.165 94.0606 165.165 92.4949C165.165 90.9291 165.951 88.9309 168.158 88.0163C168.873 87.7231 169.43 87.1664 169.723 86.4506C170.017 85.7348 170.017 84.9495 169.723 84.2337L167.004 77.6725C166.711 76.9567 166.154 76.4 165.439 76.1068C164.723 75.8135 163.938 75.8135 163.222 76.1068C161.015 77.0213 159.046 76.1614 157.938 75.053C156.835 73.9495 155.975 71.9811 156.889 69.7742C157.183 69.0584 157.183 68.2731 156.889 67.5573C156.596 66.8415 156.039 66.2848 155.324 65.9916L148.762 63.2826C148.047 62.9893 147.261 62.9893 146.545 63.2826C145.83 63.5758 145.273 64.1325 144.98 64.8483C144.065 67.0553 142.067 67.8406 140.501 67.8406C138.935 67.8406 136.937 67.0553 136.023 64.8533C135.411 63.382 133.716 62.6762 132.24 63.2875L125.679 66.0065C124.968 66.2997 124.411 66.8564 124.118 67.5672C123.825 68.283 123.82 69.0684 124.118 69.7841C125.028 71.9861 124.173 73.9545 123.064 75.0629C121.961 76.1714 119.992 77.0313 117.785 76.1167C116.309 75.5053 114.614 76.2062 114.003 77.6824L111.284 84.2436C110.991 84.9594 110.991 85.7448 111.284 86.4605C111.577 87.1763 112.134 87.733 112.85 88.0263C115.057 88.9409 115.842 90.9391 115.842 92.5048C115.842 94.0656 115.057 96.0638 112.85 96.9784ZM140.501 105.294C133.443 105.294 127.707 99.5531 127.707 92.4998C127.707 85.4416 133.448 79.7055 140.501 79.7055C147.554 79.7055 153.295 85.4465 153.295 92.4998C153.295 99.5581 147.559 105.294 140.501 105.294ZM140.501 82.2604C134.855 82.2604 130.262 86.8532 130.262 92.4998C130.262 98.1465 134.855 102.739 140.501 102.739C146.148 102.739 150.741 98.1465 150.741 92.4998C150.741 86.8532 146.148 82.2604 140.501 82.2604Z" fill="#61AFB1"/>
<path id="Vector_2" d="M128.982 143.607C128.887 143.607 128.79 143.597 128.693 143.575C104.788 138.07 88.0911 117.069 88.0911 92.5004C88.0911 91.7951 88.6635 91.2227 89.3689 91.2227C90.0742 91.2227 90.6467 91.7951 90.6467 92.5004C90.6467 115.87 106.528 135.848 129.268 141.083C129.955 141.242 130.385 141.928 130.226 142.615C130.091 143.208 129.563 143.607 128.982 143.607Z" fill="#61AFB1"/>
<path id="Vector_3" d="M94.4596 98.8683C94.1325 98.8683 93.8053 98.7431 93.5562 98.4939L89.3688 94.3066L85.1815 98.4939C84.6819 98.9935 83.8743 98.9935 83.3747 98.4939C82.8751 97.9943 82.8751 97.1867 83.3747 96.6871L88.4654 91.5964C88.9651 91.0968 89.7726 91.0968 90.2722 91.5964L95.363 96.6871C95.8626 97.1867 95.8626 97.9943 95.363 98.4939C95.1138 98.7444 94.7867 98.8683 94.4596 98.8683Z" fill="#61AFB1"/>
<path id="Vector_4" d="M191.633 93.7771C190.927 93.7771 190.355 93.2047 190.355 92.4993C190.355 69.1298 174.474 49.1515 151.733 43.9151C151.045 43.7566 150.616 43.0705 150.774 42.383C150.933 41.6956 151.613 41.2688 152.307 41.4247C176.213 46.9294 192.911 67.9325 192.911 92.4993C192.911 93.2047 192.339 93.7771 191.633 93.7771Z" fill="#61AFB1"/>
<path id="Vector_5" d="M191.633 93.7785C191.306 93.7785 190.979 93.6532 190.73 93.4041L185.639 88.3133C185.139 87.8137 185.139 87.0062 185.639 86.5065C186.139 86.0069 186.946 86.0069 187.446 86.5065L191.633 90.6939L195.82 86.5065C196.32 86.0069 197.128 86.0069 197.627 86.5065C198.127 87.0062 198.127 87.8137 197.627 88.3133L192.537 93.4041C192.286 93.6532 191.959 93.7785 191.633 93.7785Z" fill="#61AFB1"/>
<path id="Vector_6" d="M140.501 144.909C139.796 144.909 139.223 144.338 139.223 143.631C139.223 142.925 139.796 142.354 140.501 142.354C163.872 142.354 183.849 126.472 189.085 103.731C189.244 103.044 189.925 102.616 190.617 102.773C191.305 102.931 191.734 103.617 191.576 104.305C186.071 128.211 165.069 144.909 140.501 144.909Z" fill="#61AFB1"/>
<path id="Vector_7" d="M145.592 150C145.265 150 144.937 149.875 144.688 149.626L139.596 144.535C139.357 144.295 139.223 143.97 139.223 143.632C139.223 143.293 139.357 142.967 139.598 142.728L144.69 137.637C145.189 137.138 145.997 137.138 146.496 137.637C146.996 138.137 146.996 138.945 146.496 139.444L142.309 143.632L146.496 147.819C146.996 148.318 146.996 149.126 146.496 149.626C146.246 149.875 145.919 150 145.592 150Z" fill="#61AFB1"/>
<path id="Vector_8" d="M90.6722 82.2583C90.5777 82.2583 90.4806 82.2481 90.3834 82.2263C89.696 82.0679 89.2667 81.3817 89.4251 80.6943C94.9298 56.7868 115.933 40.0898 140.501 40.0898C141.206 40.0898 141.779 40.6623 141.779 41.3676C141.779 42.073 141.206 42.6454 140.501 42.6454C117.131 42.6454 97.1532 58.5271 91.9181 81.2667C91.7814 81.8583 91.2536 82.2583 90.6722 82.2583Z" fill="#61AFB1"/>
<path id="Vector_9" d="M135.41 47.7374C135.083 47.7374 134.756 47.6121 134.507 47.363C134.007 46.8633 134.007 46.0558 134.507 45.5562L138.694 41.3688L134.507 37.1815C134.007 36.6819 134.007 35.8743 134.507 35.3747C135.006 34.8751 135.814 34.8751 136.314 35.3747L141.404 40.4654C141.903 40.9651 141.903 41.7726 141.404 42.2722L136.314 47.363C136.063 47.6121 135.736 47.7374 135.41 47.7374Z" fill="#61AFB1"/>
</g>
<circle id="Ellipse 39" cx="140.5" cy="92.5" r="10.5" fill="#61AFB1"/>
</g>
</svg>
