<svg width="89" height="94" viewBox="0 0 256 256" fill="none" xmlns="http://www.w3.org/2000/svg">
<g id="management-9649 2">
<circle id="Ellipse 39" cx="87" cy="95" r="9" fill="#61AFB1"/>
<g id="Group">
<path id="Vector" d="M162.618 120.962C161.99 120.962 161.377 120.839 160.791 120.6C159.609 120.11 158.693 119.188 158.203 118.011C157.915 117.313 158.245 116.509 158.943 116.221C159.641 115.934 160.445 116.264 160.733 116.962C160.94 117.463 161.335 117.857 161.835 118.064C162.336 118.272 162.895 118.272 163.396 118.064L168.754 115.843C169.793 115.412 170.288 114.219 169.857 113.18C169.047 111.231 169.809 109.489 170.784 108.509C171.758 107.529 173.5 106.767 175.449 107.582C175.95 107.79 176.509 107.79 177.01 107.582C177.511 107.374 177.905 106.986 178.113 106.48L180.334 101.121C180.542 100.62 180.542 100.067 180.334 99.5605C180.126 99.0545 179.732 98.6657 179.231 98.458C177.282 97.6484 176.584 95.88 176.584 94.5005C176.584 93.1156 177.276 91.3526 179.226 90.543C179.732 90.3352 180.121 89.9411 180.328 89.4404C180.536 88.9397 180.536 88.3858 180.328 87.8798L178.107 82.5214C177.9 82.0154 177.505 81.6266 177.005 81.4189C176.499 81.2111 175.945 81.2111 175.444 81.4189C173.495 82.2285 171.758 81.4668 170.778 80.4867C169.798 79.5067 169.042 77.765 169.851 75.8155C170.059 75.3148 170.059 74.7609 169.851 74.2549C169.654 73.7542 169.26 73.3654 168.754 73.1523L163.396 70.9312C162.895 70.7235 162.341 70.7235 161.835 70.9312C161.335 71.1389 160.94 71.5331 160.733 72.0338C160.445 72.7368 159.641 73.0618 158.943 72.7741C158.245 72.4865 157.91 71.6822 158.203 70.9845C158.687 69.8073 159.609 68.8859 160.786 68.3958C161.963 67.9058 163.263 67.9058 164.445 68.3958L169.804 70.6169C170.981 71.107 171.902 72.0231 172.392 73.2002C172.882 74.3827 172.882 75.677 172.392 76.8541C172.046 77.6851 172.456 78.2656 172.728 78.5373C172.999 78.8089 173.58 79.2191 174.411 78.8728C175.588 78.3828 176.888 78.3828 178.065 78.8728C179.247 79.3629 180.163 80.279 180.653 81.4615L182.874 86.8198C183.359 87.997 183.365 89.2966 182.874 90.4737C182.384 91.6562 181.468 92.5723 180.286 93.0623C179.455 93.4086 179.332 94.1063 179.332 94.4898C179.332 94.8733 179.455 95.5711 180.286 95.9173C181.463 96.4073 182.379 97.3235 182.869 98.5059C183.359 99.6884 183.359 100.983 182.869 102.16L180.648 107.518C180.163 108.695 179.242 109.617 178.059 110.101C176.882 110.591 175.583 110.591 174.406 110.101C173.575 109.761 172.994 110.165 172.722 110.437C172.445 110.709 172.041 111.295 172.381 112.125C173.388 114.56 172.232 117.356 169.798 118.368L164.44 120.589C163.859 120.839 163.247 120.962 162.618 120.962Z" fill="#61AFB1"/>
<path id="Vector_2" d="M92.3099 120.962C91.6814 120.962 91.0688 120.84 90.4829 120.594C89.3005 120.104 88.379 119.188 87.8943 118.011C87.5481 117.18 86.8503 117.058 86.4668 117.058C86.0833 117.058 85.3856 117.18 85.0394 118.011C84.0327 120.44 81.231 121.601 78.8021 120.594L73.4385 118.373C71.0043 117.361 69.8485 114.565 70.8552 112.131C71.2014 111.3 70.7913 110.719 70.5196 110.442C70.248 110.171 69.6621 109.766 68.8365 110.107C66.397 111.114 63.6006 109.958 62.5886 107.529L60.3675 102.171C59.3608 99.7364 60.522 96.9347 62.9508 95.928C63.7817 95.5818 63.9042 94.884 63.9042 94.5005C63.9042 94.1117 63.7817 93.4139 62.9508 93.073C61.7737 92.583 60.8522 91.6669 60.3675 90.4897C59.8775 89.3126 59.8775 88.013 60.3675 86.8358L62.5886 81.4775C63.6006 79.0433 66.4023 77.8875 68.8312 78.8942C69.6621 79.2404 70.2426 78.8303 70.5143 78.5586C70.7859 78.287 71.1961 77.7011 70.8499 76.8755C70.3598 75.693 70.3598 74.3987 70.8499 73.2216C71.3399 72.0338 72.2613 71.1123 73.4385 70.6276L78.7968 68.4065C81.231 67.3999 84.0273 68.561 85.0394 70.9898C85.3802 71.8208 86.078 71.9433 86.4668 71.9433C86.8503 71.9433 87.5534 71.8208 87.8943 70.9898C88.379 69.8127 89.3005 68.8966 90.4776 68.4065C91.6547 67.9218 92.9544 67.9165 94.1368 68.4065L99.4952 70.6276C100.672 71.1123 101.594 72.0338 102.078 73.2109C102.568 74.3881 102.568 75.6877 102.078 76.8648C101.738 77.6958 102.142 78.2763 102.414 78.5533C102.686 78.825 103.266 79.2351 104.097 78.8889C105.274 78.3988 106.574 78.3988 107.751 78.8889C108.934 79.3736 109.855 80.295 110.34 81.4722L112.561 86.8305C113.051 88.0077 113.051 89.3073 112.561 90.4844C112.071 91.6616 111.155 92.583 109.978 93.073C109.147 93.4193 109.024 94.117 109.024 94.5005C109.024 94.884 109.147 95.5818 109.978 95.928C112.412 96.9347 113.567 99.7364 112.561 102.171L110.34 107.529C109.85 108.706 108.934 109.627 107.751 110.112C106.574 110.602 105.274 110.602 104.097 110.112C103.266 109.766 102.686 110.176 102.414 110.448C102.142 110.719 101.738 111.305 102.078 112.131C103.085 114.56 101.929 117.361 99.4952 118.373L94.1368 120.594C93.5509 120.84 92.9331 120.962 92.3099 120.962ZM86.4668 114.315C87.8517 114.315 89.62 115.012 90.4243 116.962C90.6321 117.463 91.0262 117.857 91.5269 118.064C92.0276 118.272 92.5815 118.272 93.0875 118.064L98.4459 115.849C99.4845 115.417 99.9799 114.224 99.5484 113.185C98.7441 111.236 99.5005 109.494 100.475 108.52C101.455 107.54 103.192 106.783 105.146 107.587C105.647 107.795 106.206 107.795 106.707 107.587C107.208 107.38 107.602 106.986 107.81 106.485L110.031 101.127C110.238 100.626 110.238 100.072 110.031 99.5659C109.823 99.0599 109.429 98.6711 108.928 98.4634C106.979 97.6537 106.281 95.8854 106.281 94.5058C106.281 93.121 106.973 91.3579 108.923 90.5483C109.429 90.3406 109.818 89.9465 110.025 89.4458C110.233 88.9398 110.233 88.3858 110.025 87.8851L107.81 82.5215C107.602 82.0155 107.213 81.6266 106.707 81.4189C106.201 81.2112 105.647 81.2112 105.146 81.4189C103.192 82.2285 101.455 81.4668 100.475 80.4868C99.4952 79.5067 98.7388 77.7703 99.5484 75.8209C99.7562 75.3202 99.7562 74.7662 99.5484 74.2602C99.3407 73.7542 98.9466 73.3654 98.4459 73.1524L93.0875 70.9366C92.5868 70.7288 92.0276 70.7288 91.5269 70.9366C91.0262 71.1443 90.6321 71.5385 90.4243 72.0391C89.6147 73.9886 87.8517 74.6864 86.4668 74.6864C85.082 74.6864 83.3189 73.9939 82.5093 72.0445C82.0779 71.0058 80.8848 70.5105 79.8461 70.9419L74.4878 73.1577C73.9818 73.3654 73.5929 73.7542 73.3799 74.2602C73.1722 74.7609 73.1722 75.3149 73.3799 75.8209C74.1842 77.7703 73.4278 79.5067 72.4531 80.4868C71.473 81.4668 69.7366 82.2285 67.7819 81.4136C66.7432 80.9821 65.5501 81.4775 65.1187 82.5161L62.8976 87.8745C62.6898 88.3805 62.6898 88.9344 62.8976 89.4351C63.1053 89.9358 63.4994 90.33 64.0001 90.5377C65.9549 91.3473 66.6473 93.1157 66.642 94.5005C66.642 95.8801 65.9496 97.6484 64.0001 98.458C62.9615 98.8895 62.4661 100.083 62.8976 101.121L65.1187 106.48C65.5501 107.518 66.7432 108.014 67.7819 107.582C69.726 106.778 71.473 107.529 72.4478 108.509C73.4278 109.489 74.1842 111.231 73.3746 113.18C72.9431 114.219 73.4385 115.412 74.4771 115.843L79.8355 118.064C80.8688 118.491 82.0672 117.995 82.4987 116.962C83.3136 115.012 85.082 114.315 86.4668 114.315ZM86.4668 105.276C80.5226 105.276 75.6862 100.439 75.6862 94.5005C75.6862 88.5563 80.5226 83.7199 86.4668 83.7199C92.4111 83.7199 97.2474 88.5563 97.2474 94.5005C97.2421 100.445 92.4111 105.276 86.4668 105.276ZM86.4668 86.463C82.0353 86.463 78.4293 90.069 78.4293 94.5005C78.4293 98.9321 82.0353 102.538 86.4668 102.538C90.8984 102.538 94.5097 98.9321 94.5097 94.5005C94.5043 90.069 90.8984 86.463 86.4668 86.463Z" fill="#61AFB1"/>
<path id="Vector_3" d="M90.124 63.6852C89.3682 63.6852 88.7547 63.0718 88.7547 62.3159V57.006C88.7547 54.2456 91.0003 52 93.7607 52H139.961C140.718 52 141.33 52.6134 141.33 53.3693C141.33 54.1251 140.718 54.7385 139.961 54.7385H93.7607C92.5106 54.7385 91.4932 55.7559 91.4932 57.006V62.3159C91.4932 63.0718 90.8798 63.6852 90.124 63.6852Z" fill="#61AFB1"/>
<path id="Vector_4" d="M149.48 137H93.7607C91.0003 137 88.7547 134.753 88.7547 131.994V125.946C88.7547 125.188 89.3682 124.576 90.124 124.576C90.8798 124.576 91.4932 125.188 91.4932 125.946V131.994C91.4932 133.244 92.5106 134.261 93.7607 134.261H149.48C150.73 134.261 151.747 133.244 151.747 131.994V66.5255C151.747 65.7697 152.359 65.1562 153.116 65.1562C153.874 65.1562 154.486 65.7697 154.486 66.5255V131.994C154.487 134.753 152.24 137 149.48 137Z" fill="#61AFB1"/>
<path id="Vector_5" d="M120.105 70.3586H107.77C107.014 70.3586 106.4 69.7452 106.4 68.9894C106.4 68.2335 107.014 67.6201 107.77 67.6201H120.105C120.861 67.6201 121.474 68.2335 121.474 68.9894C121.474 69.7452 120.861 70.3586 120.105 70.3586Z" fill="#61AFB1"/>
<path id="Vector_6" d="M139.961 87.3664H119.737C118.981 87.3664 118.368 86.753 118.368 85.9972C118.368 85.2414 118.981 84.6279 119.737 84.6279H139.961C140.718 84.6279 141.33 85.2414 141.33 85.9972C141.33 86.753 140.718 87.3664 139.961 87.3664Z" fill="#61AFB1"/>
<path id="Vector_7" d="M139.961 104.373H119.737C118.981 104.373 118.368 103.761 118.368 103.004C118.368 102.247 118.981 101.635 119.737 101.635H139.961C140.718 101.635 141.33 102.247 141.33 103.004C141.33 103.761 140.718 104.373 139.961 104.373Z" fill="#61AFB1"/>
<path id="Vector_8" d="M139.961 121.381H108.176C107.42 121.381 106.807 120.769 106.807 120.012C106.807 119.255 107.42 118.643 108.176 118.643H139.961C140.718 118.643 141.33 119.255 141.33 120.012C141.33 120.768 140.718 121.381 139.961 121.381Z" fill="#61AFB1"/>
<path id="Vector_9" d="M153.118 67.8963H139.962C139.205 67.8963 138.593 67.2828 138.593 66.527V53.3699C138.593 52.8167 138.927 52.3169 139.438 52.1047C139.951 51.8938 140.538 52.0102 140.93 52.4018L154.086 65.559C154.477 65.9506 154.595 66.5393 154.383 67.0514C154.171 67.5622 153.671 67.8963 153.118 67.8963ZM141.33 65.1578H149.811L141.33 56.6753V65.1578Z" fill="#61AFB1"/>
<path id="Vector_10" d="M159.47 104.859C158.88 104.859 158.336 104.477 158.158 103.883C157.942 103.159 158.352 102.396 159.077 102.178C162.456 101.166 164.815 98.0075 164.815 94.4995C164.815 90.9915 162.455 87.8326 159.077 86.8208C158.352 86.6031 157.942 85.8404 158.158 85.116C158.374 84.3931 159.136 83.9755 159.863 84.1973C164.392 85.5556 167.554 89.7907 167.554 94.4995C167.554 99.207 164.391 103.445 159.863 104.802C159.733 104.841 159.6 104.859 159.47 104.859Z" fill="#61AFB1"/>
</g>
</g>
</svg>
