<svg width="75" height="75" viewBox="0 0 89 94" fill="none" xmlns="http://www.w3.org/2000/svg">
<g id="Group">
<g id="Group_2">
<path id="Vector" d="M10.8496 11.3145H73.9032V8.12235V0.761719H10.8496H0.296875V11.3145V74.368H7.65751H10.8496V11.3145ZM86.5214 64.8293H82.3153C81.9023 63.9655 81.3389 62.2005 80.663 60.9236L83.6297 58.0319C84.5686 57.0931 84.5686 55.6285 83.6297 54.6896L80.2499 51.3473C79.311 50.4084 77.8088 50.4084 76.87 51.3473L74.0534 54.3141C72.7766 53.6005 71.0115 53.0372 70.1853 52.6617V48.4556C70.1853 47.1412 68.7958 46.0521 67.4439 46.0521H62.6745C61.3601 46.0521 59.933 47.1412 59.933 48.4556V52.6617C59.0693 53.0748 57.3042 53.6381 56.0274 54.3141L53.1357 51.3473C52.1968 50.4084 50.7322 50.4084 49.7934 51.3473L46.451 54.7272C45.5122 55.666 45.5122 57.1682 46.451 58.107L49.4178 60.9236C48.7043 62.2005 48.141 63.9655 47.7654 64.8293H43.5594C42.245 64.8293 41.1559 66.2188 41.1559 67.5707V72.3401C41.1559 73.6545 42.245 75.0816 43.5594 75.0816H47.7654C48.1785 75.9453 48.7419 77.7104 49.4178 78.9872L46.4886 81.8413C45.5497 82.7802 45.5497 84.2448 46.4886 85.1837L49.8685 88.526C50.8073 89.4648 52.3095 89.4648 53.2484 88.526L56.0649 85.5592C57.3418 86.2727 59.1068 86.836 59.9706 87.2116V91.4177C59.9706 92.7321 61.3601 93.8211 62.712 93.8211H67.4814C68.7958 93.8211 70.2229 92.7321 70.2229 91.4177V87.2116C71.0866 86.7985 72.8517 86.2352 74.1285 85.5592L77.0202 88.526C77.9591 89.4648 79.4237 89.4648 80.3625 88.526L83.7049 85.1461C84.6437 84.2072 84.6437 82.7051 83.7049 81.7662L80.7381 78.9497C81.4516 77.6728 82.0149 75.9078 82.3905 75.0816H86.5965C87.9109 75.0816 89 73.6921 89 72.3401V67.5707C88.9249 66.2188 87.8358 64.8293 86.5214 64.8293ZM65.0404 80.6771C59.1068 80.6771 54.2623 75.8702 54.2623 69.8991C54.2623 63.928 59.0693 59.121 65.0404 59.121C70.974 59.121 75.8185 63.928 75.8185 69.8991C75.8185 75.8702 71.0115 80.6771 65.0404 80.6771ZM25.5709 26.0357H78.3722V47.1788H88.9249V15.483H88.6245H25.5709H15.0181V15.5205V26.0357V78.5366V89.0893V89.1268H37.1V89.0893H38.1516V78.5366H25.5709V26.0357Z" fill="#61AFB1"/>
</g>
</g>
</svg>
