<svg width="256" height="256" viewBox="0 0 256 256" fill="none" xmlns="http://www.w3.org/2000/svg">
<g id="Perform_a_rules_engine 2">
<g id="Group">
<g id="Group_2">
<path id="Vector" d="M106.802 82.9516H104.679L103.706 88.9665C103.042 89.1876 102.379 89.453 101.76 89.7626L96.8063 86.2244L91.1895 91.8413L94.6834 96.8389C94.3738 97.4581 94.1085 98.1657 93.8431 98.8291L89.4204 99.581L90.0396 103.34L96.8506 102.19L97.1602 100.996C97.4697 99.8464 97.912 98.7407 98.5312 97.7235L99.1946 96.662L96.1429 92.2835L97.2486 91.1778L101.583 94.2737L102.644 93.6103C103.662 92.9912 104.723 92.5489 105.917 92.2835L107.156 91.9739L108.04 86.7109H109.588L110.517 91.9739L111.711 92.2835C112.861 92.5489 113.966 93.0354 114.939 93.6546L116.001 94.318L120.335 91.1778L121.441 92.2835L118.345 96.7062L118.964 97.7677C119.583 98.7849 120.026 99.8464 120.291 100.996L120.601 102.235L127.5 103.385L128.119 99.6252L123.652 98.8734C123.431 98.21 123.166 97.5466 122.856 96.9274L126.394 91.8855L120.733 86.2244L115.736 89.8068C115.116 89.4972 114.453 89.2318 113.79 88.9665L112.728 82.9516H110.694V76.7598H129.888V55H87.6071V76.7598H106.802V82.9516ZM91.4106 72.912V58.8035H125.996V72.912H110.649V72.7351H106.846V72.912H91.4106Z" fill="#D34768"/>
<path id="Vector_2" d="M165.182 128.24V100.819H135.505L108.703 116.21L81.8575 101.085L80 104.402L106.802 119.527V128.24H87.6071V150H129.844V128.24H110.649V119.527L136.478 104.667H161.334V128.24H142.139V150H184.376V128.24H165.182ZM126.041 146.196H91.4106V132.088H125.996V146.196H126.041ZM180.573 146.196H145.987V132.088H180.573V146.196Z" fill="#D34768"/>
<path id="Vector_3" d="M108.748 95.645C104.192 95.645 100.477 99.3601 100.477 103.916C100.477 108.471 104.192 112.186 108.748 112.186C113.303 112.186 117.018 108.471 117.018 103.916C117.018 99.3601 113.303 95.645 108.748 95.645ZM108.748 108.294C106.315 108.294 104.325 106.304 104.325 103.871C104.325 101.439 106.315 99.4486 108.748 99.4486C111.18 99.4486 113.17 101.439 113.17 103.871C113.17 106.348 111.18 108.294 108.748 108.294Z" fill="#D34768"/>
</g>
</g>
<rect id="Rectangle 22" x="91" y="58" width="39" height="16" fill="#D34768"/>
</g>
</svg>
