<svg width="128" height="107" viewBox="0 0 128 107" fill="none" xmlns="http://www.w3.org/2000/svg">
<path d="M75.3304 30H72.3305L71.3306 27.1667L69.9973 24.3333L72.3305 22C72.7696 21.5656 73.1146 21.0455 73.344 20.4721C73.5734 19.8986 73.6822 19.284 73.6638 18.6667C73.6557 17.4763 73.1763 16.3377 72.3305 15.5L64.8308 8C63.9932 7.15421 62.8546 6.67478 61.6643 6.66667C60.4232 6.66667 59.2298 7.14408 58.3311 8L55.8312 10.3333L52.998 9L49.9981 8V4.66667C49.9981 3.42899 49.5064 2.242 48.6313 1.36683C47.7561 0.491665 46.5692 0 45.3316 0H34.6653C33.4277 0 32.2408 0.491665 31.3656 1.36683C30.4905 2.242 29.9988 3.42899 29.9988 4.66667V8L26.999 9L24.1657 10.3333L21.6658 8C20.7951 7.15492 19.6294 6.68225 18.416 6.68225C17.2025 6.68225 16.0369 7.15492 15.1661 8L7.66637 15.5C6.82132 16.3708 6.34868 17.5365 6.34868 18.75C6.34868 19.9635 6.82132 21.1292 7.66637 22L9.99961 24.3333L8.66633 27.1667L7.66637 30H4.66649C4.05368 30 3.44686 30.1207 2.8807 30.3552C2.31453 30.5897 1.80011 30.9335 1.36678 31.3668C0.933459 31.8002 0.589729 32.3146 0.355216 32.8808C0.120703 33.447 0 34.0538 0 34.6667V45.3333C0 46.571 0.491646 47.758 1.36678 48.6332C2.24192 49.5083 3.42886 50 4.66649 50H7.99969L8.99965 53L10.3329 55.8333L7.99969 58.3333C7.15464 59.2041 6.682 60.3699 6.682 61.5833C6.682 62.7968 7.15464 63.9625 7.99969 64.8333L15.4994 72.5C15.9395 72.9313 16.4606 73.2712 17.0327 73.5C17.6048 73.7289 18.2165 73.8422 18.8326 73.8333C20.0229 73.8252 21.1615 73.3458 21.9992 72.5L24.3324 70L27.1656 71.3333L29.9988 72.3333V75C29.9988 75.3606 30.1158 75.7115 30.3322 76C30.5372 77.04 31.0674 77.9879 31.8463 78.7069C32.6251 79.4258 33.6123 79.8787 34.6653 80H45.8316C48.3315 79.6667 49.6647 76.5 49.9981 75.8333C50.0993 75.6251 50.1561 75.398 50.1647 75.1667V72.3333L52.998 71.3333L55.8312 70L58.1644 72.3333C58.5988 72.7724 59.1189 73.1174 59.6923 73.3468C60.2658 73.5762 60.8803 73.6851 61.4976 73.6667C62.6879 73.6586 63.8265 73.1791 64.6642 72.3333L72.1639 64.6667C73.0089 63.7959 73.4816 62.6301 73.4816 61.4167C73.4816 60.2032 73.0089 59.0375 72.1639 58.1667L69.8306 55.6667L70.9973 53.1667H71.1639L72.1639 50.1667H75.4971C76.11 50.1452 76.7127 50.003 77.2707 49.7484C77.8287 49.4938 78.331 49.1317 78.7489 48.6828C79.1668 48.2339 79.4921 47.707 79.7063 47.1323C79.9204 46.5576 80.0192 45.9463 79.9969 45.3333V34.6667C79.9969 33.429 79.5053 32.242 78.6301 31.3668C77.755 30.4917 76.5681 30 75.3304 30ZM76.6637 45.3333C76.6637 45.687 76.5232 46.0261 76.2732 46.2761C76.0232 46.5262 75.684 46.6667 75.3304 46.6667H70.8306C70.4407 46.6588 70.0604 46.7879 69.7559 47.0315C69.4514 47.2752 69.2419 47.6179 69.164 48C68.8553 49.2463 68.4656 50.4711 67.9974 51.6667H67.8307L66.1641 55.1667C65.992 55.4903 65.9314 55.8616 65.9917 56.2232C66.0519 56.5847 66.2297 56.9163 66.4974 57.1667L69.664 60.5C69.8984 60.7476 70.0291 61.0757 70.0291 61.4167C70.0291 61.7577 69.8984 62.0857 69.664 62.3333L62.1643 70C62.0543 70.1078 61.924 70.1928 61.781 70.25C61.6379 70.3072 61.485 70.3355 61.331 70.3333C61.1769 70.3355 61.024 70.3072 60.881 70.25C60.738 70.1928 60.6077 70.1078 60.4977 70L57.1645 66.6667C56.8945 66.4254 56.5532 66.2786 56.1924 66.2486C55.8316 66.2185 55.4707 66.3067 55.1645 66.5L51.6647 68.1667L47.8315 69.5C47.4803 69.61 47.1754 69.8332 46.9644 70.1347C46.7534 70.4362 46.648 70.799 46.6649 71.1667V75C46.3779 75.7114 45.9199 76.3411 45.3316 76.8333H34.9986C34.6165 76.7554 34.2738 76.546 34.0302 76.2414C33.7866 75.9369 33.6575 75.5566 33.6654 75.1667C33.6828 74.8792 33.6253 74.592 33.4987 74.3333V71C33.5155 70.6324 33.4102 70.2695 33.1992 69.968C32.9881 69.6665 32.6833 69.4434 32.3321 69.3333L28.6656 68L24.999 66.3333C24.6928 66.1401 24.332 66.0518 23.9712 66.0819C23.6103 66.112 23.2691 66.2587 22.9991 66.5L19.6659 69.8333L18.8326 70.1667L17.9993 69.8333L10.4996 62.1667C10.2652 61.919 10.1345 61.591 10.1345 61.25C10.1345 60.909 10.2652 60.581 10.4996 60.3333L13.8328 57C14.0741 56.73 14.2208 56.3887 14.2509 56.0279C14.281 55.667 14.1927 55.3062 13.9995 55C13.3492 53.8809 12.7917 52.7103 12.3329 51.5C11.8164 50.2484 11.3712 48.9686 10.9996 47.6667C10.8896 47.3155 10.6664 47.0106 10.3649 46.7995C10.0634 46.5885 9.70059 46.4832 9.33297 46.5H4.66649C4.31288 46.5 3.97375 46.3595 3.72371 46.1095C3.47368 45.8594 3.3332 45.5203 3.3332 45.1667V34.6667C3.3332 34.313 3.47368 33.9739 3.72371 33.7239C3.97375 33.4738 4.31288 33.3333 4.66649 33.3333H8.99965C9.36727 33.3502 9.73012 33.2448 10.0316 33.0338C10.3331 32.8228 10.5562 32.5179 10.6663 32.1667C11.0412 30.9203 11.4863 29.6961 11.9995 28.5C12.4655 27.2927 13.0226 26.1227 13.6661 25C13.8594 24.6938 13.9476 24.333 13.9176 23.9721C13.8875 23.6112 13.7407 23.27 13.4995 23L10.1663 19.6667C9.93185 19.419 9.8012 19.091 9.8012 18.75C9.8012 18.409 9.93185 18.081 10.1663 17.8333L17.666 10.3333C17.9136 10.0989 18.2416 9.96825 18.5826 9.96825C18.9236 9.96825 19.2516 10.0989 19.4992 10.3333L22.8325 13.5C23.0828 13.7678 23.4144 13.9455 23.7759 14.0058C24.1374 14.066 24.5088 14.0054 24.8324 13.8333L28.3322 12.1667L32.1654 10.8333C32.5475 10.7554 32.8902 10.546 33.1338 10.2414C33.3775 9.9369 33.5066 9.55658 33.4987 9.16667V4.66667C33.4987 4.31305 33.6392 3.97391 33.8892 3.72386C34.1393 3.47381 34.4784 3.33333 34.832 3.33333H45.4982C45.8519 3.33333 46.191 3.47381 46.441 3.72386C46.6911 3.97391 46.8315 4.31305 46.8315 4.66667V9.16667C46.8237 9.55658 46.9528 9.9369 47.1964 10.2414C47.44 10.546 47.7827 10.7554 48.1648 10.8333L51.8313 12.1667L55.3312 13.8333C55.6548 14.0054 56.0261 14.066 56.3877 14.0058C56.7492 13.9455 57.0808 13.7678 57.3311 13.5L60.6643 10.1667L61.4976 9.83333L62.3309 10.1667L69.9973 17.8333C70.1051 17.9434 70.1901 18.0736 70.2473 18.2167C70.3045 18.3597 70.3328 18.5126 70.3306 18.6667C70.3192 18.9746 70.2014 19.2691 69.9973 19.5L66.6641 22.8333C66.3964 23.0837 66.2186 23.4153 66.1583 23.7768C66.0981 24.1384 66.1587 24.5097 66.3308 24.8333C66.9534 25.9669 67.5099 27.1355 67.9974 28.3333C68.5241 29.524 68.9695 30.7491 69.3307 32C69.4407 32.3512 69.6638 32.6561 69.9653 32.8671C70.2668 33.0782 70.6296 33.1835 70.9973 33.1667H75.3304C75.657 33.1641 75.9731 33.2815 76.2188 33.4965C76.4646 33.7116 76.6229 34.0093 76.6637 34.3333V45.3333Z" fill="#D34768"/>
<path d="M124.79 72.625H122.727L122.04 70.6771L121.123 68.7292L122.727 67.125C123.029 66.8264 123.266 66.4688 123.424 66.0745C123.582 65.6803 123.657 65.2578 123.644 64.8333C123.638 64.015 123.309 63.2321 122.727 62.6562L117.571 57.5C116.995 56.9185 116.213 56.5889 115.394 56.5833C114.541 56.5833 113.72 56.9116 113.103 57.5L111.384 59.1042L109.436 58.1875L107.374 57.5V55.2083C107.374 54.3574 107.036 53.5414 106.434 52.9397C105.832 52.338 105.016 52 104.165 52H96.8324C95.9815 52 95.1655 52.338 94.5639 52.9397C93.9622 53.5414 93.6242 54.3574 93.6242 55.2083V57.5L91.5618 58.1875L89.6139 59.1042L87.8953 57.5C87.2966 56.919 86.4952 56.594 85.661 56.594C84.8268 56.594 84.0253 56.919 83.4267 57.5L78.2706 62.6562C77.6897 63.2549 77.3647 64.0564 77.3647 64.8906C77.3647 65.7249 77.6897 66.5263 78.2706 67.125L79.8747 68.7292L78.9581 70.6771L78.2706 72.625H76.2082C75.7869 72.625 75.3697 72.708 74.9805 72.8692C74.5912 73.0305 74.2376 73.2668 73.9397 73.5647C73.6418 73.8626 73.4054 74.2163 73.2442 74.6056C73.083 74.9948 73 75.412 73 75.8333V83.1667C73 84.0176 73.338 84.8336 73.9397 85.4353C74.5413 86.037 75.3573 86.375 76.2082 86.375H78.4998L79.1873 88.4375L80.1039 90.3854L78.4998 92.1042C77.9188 92.7028 77.5939 93.5043 77.5939 94.3385C77.5939 95.1728 77.9188 95.9742 78.4998 96.5729L83.6558 101.844C83.9584 102.14 84.3166 102.374 84.71 102.531C85.1033 102.689 85.5238 102.766 85.9474 102.76C86.7658 102.755 87.5486 102.425 88.1244 101.844L89.7285 100.125L91.6764 101.042L93.6242 101.729V103.562C93.6242 103.81 93.7046 104.052 93.8534 104.25C93.9943 104.965 94.3588 105.617 94.8943 106.111C95.4298 106.605 96.1085 106.917 96.8324 107H104.509C106.228 106.771 107.145 104.594 107.374 104.135C107.443 103.992 107.482 103.836 107.488 103.677V101.729L109.436 101.042L111.384 100.125L112.988 101.729C113.287 102.031 113.644 102.268 114.038 102.426C114.433 102.584 114.855 102.658 115.28 102.646C116.098 102.64 116.881 102.311 117.457 101.729L122.613 96.4583C123.194 95.8597 123.519 95.0582 123.519 94.224C123.519 93.3897 123.194 92.5883 122.613 91.9896L121.009 90.2708L121.811 88.5521H121.925L122.613 86.4896H124.904C125.326 86.4748 125.74 86.3771 126.124 86.2021C126.507 86.027 126.853 85.7781 127.14 85.4694C127.427 85.1608 127.651 84.7986 127.798 84.4035C127.945 84.0083 128.013 83.5881 127.998 83.1667V75.8333C127.998 74.9824 127.66 74.1664 127.058 73.5647C126.457 72.963 125.641 72.625 124.79 72.625ZM125.706 83.1667C125.706 83.4098 125.61 83.6429 125.438 83.8148C125.266 83.9868 125.033 84.0833 124.79 84.0833H121.696C121.428 84.0779 121.167 84.1667 120.957 84.3342C120.748 84.5017 120.604 84.7373 120.55 85C120.338 85.8568 120.07 86.6989 119.748 87.5208H119.634L118.488 89.9271C118.37 90.1496 118.328 90.4049 118.369 90.6534C118.411 90.902 118.533 91.13 118.717 91.3021L120.894 93.5938C121.055 93.764 121.145 93.9895 121.145 94.224C121.145 94.4584 121.055 94.6839 120.894 94.8542L115.738 100.125C115.662 100.199 115.573 100.258 115.474 100.297C115.376 100.336 115.271 100.356 115.165 100.354C115.059 100.356 114.954 100.336 114.856 100.297C114.757 100.258 114.668 100.199 114.592 100.125L112.301 97.8333C112.115 97.6675 111.88 97.5666 111.632 97.5459C111.384 97.5252 111.136 97.5859 110.926 97.7188L108.519 98.8646L105.884 99.7813C105.643 99.8569 105.433 100.01 105.288 100.218C105.143 100.425 105.071 100.674 105.082 100.927V103.562C104.885 104.052 104.57 104.485 104.165 104.823H97.0616C96.7989 104.769 96.5633 104.625 96.3958 104.416C96.2283 104.207 96.1395 103.945 96.1449 103.677C96.1569 103.479 96.1174 103.282 96.0304 103.104V100.812C96.0419 100.56 95.9695 100.31 95.8244 100.103C95.6794 99.8957 95.4697 99.7423 95.2283 99.6667L92.7076 98.75L90.1868 97.6042C89.9763 97.4713 89.7283 97.4106 89.4802 97.4313C89.2321 97.452 88.9975 97.5529 88.8119 97.7188L86.5203 100.01L85.9474 100.24L85.3745 100.01L80.2185 94.7396C80.0573 94.5693 79.9675 94.3438 79.9675 94.1094C79.9675 93.8749 80.0573 93.6494 80.2185 93.4792L82.51 91.1875C82.6759 91.0019 82.7768 90.7673 82.7975 90.5192C82.8182 90.2711 82.7575 90.023 82.6246 89.8125C82.1775 89.0431 81.7943 88.2383 81.4788 87.4063C81.1238 86.5458 80.8177 85.6659 80.5622 84.7708C80.4866 84.5294 80.3332 84.3198 80.1259 84.1747C79.9186 84.0296 79.6692 83.9572 79.4164 83.9688H76.2082C75.9651 83.9688 75.732 83.8722 75.5601 83.7003C75.3882 83.5284 75.2916 83.2952 75.2916 83.0521V75.8333C75.2916 75.5902 75.3882 75.3571 75.5601 75.1852C75.732 75.0132 75.9651 74.9167 76.2082 74.9167H79.1873C79.44 74.9282 79.6895 74.8558 79.8967 74.7107C80.104 74.5656 80.2574 74.356 80.3331 74.1146C80.5908 73.2577 80.8968 72.4161 81.2497 71.5938C81.57 70.7638 81.953 69.9593 82.3955 69.1875C82.5283 68.977 82.589 68.7289 82.5683 68.4808C82.5477 68.2327 82.4468 67.9981 82.2809 67.8125L79.9893 65.5208C79.8281 65.3506 79.7383 65.1251 79.7383 64.8906C79.7383 64.6562 79.8281 64.4307 79.9893 64.2604L85.1454 59.1042C85.3156 58.943 85.5411 58.8532 85.7755 58.8532C86.01 58.8532 86.2355 58.943 86.4057 59.1042L88.6973 61.2813C88.8694 61.4653 89.0974 61.5875 89.3459 61.629C89.5945 61.6704 89.8498 61.6287 90.0723 61.5104L92.4784 60.3646L95.1137 59.4479C95.3764 59.3943 95.612 59.2503 95.7795 59.041C95.947 58.8316 96.0358 58.5701 96.0304 58.3021V55.2083C96.0304 54.9652 96.1269 54.7321 96.2988 54.5602C96.4707 54.3882 96.7039 54.2917 96.947 54.2917H104.28C104.523 54.2917 104.756 54.3882 104.928 54.5602C105.1 54.7321 105.197 54.9652 105.197 55.2083V58.3021C105.191 58.5701 105.28 58.8316 105.448 59.041C105.615 59.2503 105.851 59.3943 106.113 59.4479L108.634 60.3646L111.04 61.5104C111.263 61.6287 111.518 61.6704 111.767 61.629C112.015 61.5875 112.243 61.4653 112.415 61.2813L114.707 58.9896L115.28 58.7604L115.853 58.9896L121.123 64.2604C121.197 64.3361 121.256 64.4256 121.295 64.524C121.334 64.6223 121.354 64.7274 121.352 64.8333C121.344 65.0451 121.263 65.2475 121.123 65.4063L118.832 67.6979C118.647 67.87 118.525 68.098 118.484 68.3466C118.442 68.5951 118.484 68.8504 118.602 69.0729C119.03 69.8522 119.413 70.6556 119.748 71.4792C120.11 72.2978 120.417 73.14 120.665 74C120.74 74.2414 120.894 74.4511 121.101 74.5962C121.308 74.7412 121.558 74.8137 121.811 74.8021H124.79C125.014 74.8003 125.232 74.881 125.4 75.0289C125.569 75.1767 125.678 75.3814 125.706 75.6042V83.1667Z" fill="#D34768"/>
<path d="M40 22C36.4399 22 32.9598 23.0557 29.9997 25.0335C27.0397 27.0114 24.7326 29.8226 23.3702 33.1117C22.0078 36.4008 21.6513 40.02 22.3459 43.5116C23.0404 47.0033 24.7547 50.2106 27.2721 52.7279C29.7894 55.2453 32.9967 56.9596 36.4884 57.6541C39.98 58.3487 43.5992 57.9922 46.8883 56.6298C50.1774 55.2674 52.9886 52.9603 54.9664 50.0003C56.9443 47.0402 58 43.5601 58 40C58 35.2261 56.1036 30.6477 52.7279 27.2721C49.3523 23.8964 44.7739 22 40 22ZM40 54.7273C37.0872 54.7273 34.2399 53.8635 31.818 52.2453C29.3961 50.627 27.5085 48.3269 26.3938 45.6359C25.2791 42.9448 24.9875 39.9837 25.5557 37.1268C26.124 34.27 27.5266 31.6459 29.5863 29.5862C31.6459 27.5266 34.27 26.124 37.1269 25.5557C39.9837 24.9875 42.9448 25.2791 45.6359 26.3938C48.3269 27.5084 50.627 29.3961 52.2453 31.818C53.8635 34.2399 54.7273 37.0872 54.7273 40C54.7273 43.9059 53.1757 47.6518 50.4138 50.4137C47.6519 53.1756 43.9059 54.7273 40 54.7273Z" fill="#D34768"/>
<path d="M100.5 67C98.0277 67 95.611 67.7331 93.5554 69.1066C91.4998 70.4801 89.8976 72.4324 88.9515 74.7165C88.0054 77.0005 87.7579 79.5139 88.2402 81.9386C88.7225 84.3634 89.913 86.5907 91.6612 88.3388C93.4093 90.087 95.6366 91.2775 98.0614 91.7598C100.486 92.2421 102.999 91.9946 105.284 91.0485C107.568 90.1024 109.52 88.5002 110.893 86.4446C112.267 84.389 113 81.9723 113 79.5C113 76.1848 111.683 73.0054 109.339 70.6612C106.995 68.317 103.815 67 100.5 67ZM100.5 89.7273C98.4772 89.7273 96.4999 89.1274 94.818 88.0037C93.1362 86.8799 91.8253 85.2826 91.0512 83.4138C90.2772 81.545 90.0746 79.4887 90.4692 77.5048C90.8639 75.5209 91.8379 73.6985 93.2682 72.2682C94.6985 70.8379 96.5209 69.8639 98.5048 69.4692C100.489 69.0746 102.545 69.2772 104.414 70.0512C106.283 70.8253 107.88 72.1362 109.004 73.818C110.127 75.4999 110.727 77.4772 110.727 79.5C110.727 82.2124 109.65 84.8138 107.732 86.7318C105.814 88.6498 103.212 89.7273 100.5 89.7273Z" fill="#D34768"/>
</svg>
