<svg width="124" height="124" viewBox="0 0 124 124" fill="none" xmlns="http://www.w3.org/2000/svg">
<g id="website_optimization 2">
<path id="Vector 10" d="M81 50.5L82 55L78 58L80 61.5L82 63L86 61.5L89.5 63L91 68.5H95L97.5 67V63L102 60.5L106 61.5L108 57L106 55.5L104.5 53.5L105 50.5L108 47.5L107.5 44L105 41.5L100.5 42.5L97 41.5L96 37L92 36L88.5 38V42.5L85 44L82 42.5L80 44L78 48L81 50.5Z" fill="#D34768"/>
<g id="Group">
<g id="Group_2">
<g id="Group_3">
<path id="Vector" d="M39.8156 14.7252C39.2344 15.0643 38.7016 15.6455 38.4109 16.2752C37.9266 17.2924 37.9266 17.8252 37.9266 50.4236C37.9266 73.2377 38.0234 83.7486 38.2172 84.233C38.6531 85.3955 39.6219 86.2189 40.9781 86.5096C41.85 86.7033 53.0875 86.7518 79.3406 86.7033C115.959 86.6064 116.492 86.6064 117.316 86.1221C117.8 85.8314 118.381 85.2986 118.672 84.9596L119.205 84.2814V50.4721V16.6627L118.672 15.9846C118.381 15.5971 117.8 15.0643 117.364 14.7252L116.541 14.1924H78.6625H40.7359L39.8156 14.7252ZM116.589 16.9049C117.073 17.3893 117.073 17.7283 117.073 50.3752V83.4096L116.444 83.9908L115.862 84.6205H78.6141H41.4141L40.7359 84.0877L40.1062 83.6033V50.4721C40.1062 17.6799 40.1062 17.3893 40.5906 16.9049C41.075 16.4205 41.4141 16.4205 78.5656 16.4205C115.814 16.4205 116.105 16.4205 116.589 16.9049Z" fill="#D34768"/>
<path id="Vector_2" d="M88.7375 19.9081C86.1219 20.8769 85.0078 23.5894 86.1703 26.1081C87.7687 29.3535 92.7094 29.2566 94.0656 25.9628C94.55 24.8488 94.5016 23.0081 93.9203 21.991C93.0484 20.1988 90.6266 19.23 88.7375 19.9081ZM91.7406 22.6206C92.6125 23.5894 92.4672 24.9456 91.4984 25.7691C90.8687 26.3019 90.5297 26.3988 89.8516 26.3019C87.6234 25.9628 87.1875 23.0081 89.2219 22.1363C90.1422 21.7003 91.0141 21.8456 91.7406 22.6206Z" fill="#D34768"/>
<path id="Vector_3" d="M98.4734 19.9081C96.5359 20.5862 95.2281 22.8628 95.5672 24.8003C96.0516 27.319 98.7156 29.0143 101.041 28.3362C102.881 27.755 104.431 25.8175 104.431 24.0737C104.431 22.2815 102.833 20.344 101.089 19.8112C99.9266 19.4722 99.6359 19.5206 98.4734 19.9081ZM101.573 22.7659C102.3 23.5893 102.397 24.1706 101.913 25.1393C101.573 25.8175 100.605 26.3987 99.9266 26.3987C98.6672 26.3987 97.4078 24.8003 97.7469 23.6862C98.3281 21.7487 100.217 21.3128 101.573 22.7659Z" fill="#D34768"/>
<path id="Vector_4" d="M108.548 19.8113C106.417 20.441 105.255 22.1363 105.448 24.4613C105.594 26.205 106.466 27.4644 108.016 28.1425C110.873 29.4019 114.119 27.2707 114.167 24.1222C114.167 21.2644 111.261 19.0363 108.548 19.8113ZM110.777 22.1363C112.762 23.1535 112.23 25.9629 110.002 26.3019C109.227 26.4472 108.984 26.3504 108.355 25.6722C107.192 24.5097 107.483 22.5722 108.936 21.991C109.662 21.7004 109.953 21.7004 110.777 22.1363Z" fill="#D34768"/>
<path id="Vector_5" d="M44.0297 23.1048V24.2188H56.0906H68.1516V23.1048V21.9907H56.0906H44.0297V23.1048Z" fill="#D34768"/>
<path id="Vector_6" d="M72.5109 23.1048V24.2188H75.9016H79.2922V23.1048V21.9907H75.9016H72.5109V23.1048Z" fill="#D34768"/>
<path id="Vector_7" d="M43.0609 56.6719V81.6172H78.6141H114.167V56.6719V31.7266H78.6141H43.0609V56.6719ZM111.987 56.6719V79.4375H78.6141H45.2406V56.6719V33.9062H78.6141H111.987V56.6719Z" fill="#D34768"/>
<path id="Vector_8" d="M88.8344 36.0859C88.1563 36.7641 88.1078 36.9094 88.1078 38.8469V40.8813L86.6063 41.8016L85.1047 42.7219L83.6516 41.85C81.0844 40.3484 80.3094 40.6875 78.1781 44.4172C76.0953 48.05 76.2406 48.6797 79.2438 50.375L80.7938 51.2469V52.9422V54.6375L79.6797 55.3156C76.725 57.0594 76.6281 57.6891 78.7109 61.3219C79.4859 62.6781 80.3578 63.9375 80.6 64.1797C81.375 64.8578 82.6344 64.7125 84.3781 63.7438L85.9766 62.8234L87.5266 63.5984L89.0766 64.3734V66.2625C89.0766 68.0062 89.125 68.2484 89.7063 68.8297C90.3359 69.4594 90.4328 69.4594 93.8234 69.4594C97.2141 69.4594 97.3109 69.4594 97.9406 68.8297C98.5219 68.2 98.5703 68.0062 98.5703 66.0687L98.6188 63.9859L100.072 63.0656L101.525 62.1453L103.075 63.0172C104.77 63.9859 105.739 64.0828 106.514 63.4531C107.241 62.8719 109.808 58.3672 109.953 57.4469C110.147 56.4297 109.42 55.6547 107.531 54.5406L105.981 53.6688V51.925V50.1812L107.289 49.4062C108.888 48.4375 109.517 47.7594 109.517 46.8875C109.517 46.1609 106.853 41.3656 106.078 40.6875C105.255 40.0094 104.044 40.1547 102.445 41.1234C101.622 41.6078 100.895 41.9953 100.798 41.9953C100.653 41.9953 99.9266 41.6562 99.1031 41.2203L97.6016 40.4453V38.5078C97.6016 36.8125 97.5047 36.5219 96.9719 35.9891C96.3906 35.4078 96.2453 35.3594 92.9516 35.3594H89.5125L88.8344 36.0859ZM95.4703 39.8156L95.5672 42.0438L97.0203 42.625C97.8438 42.9641 99.0063 43.5938 99.6359 44.0297C100.266 44.4656 100.847 44.7562 100.944 44.6594C101.089 44.4172 104.577 42.4312 104.819 42.4312C104.964 42.4312 107.144 46.4516 107.144 46.7422C107.144 46.8875 106.32 47.4687 105.303 48.0016L103.463 49.0187L103.705 50.2781C103.802 50.9563 103.898 52.3125 103.85 53.2812C103.802 54.3469 103.85 55.0734 104.044 55.0734C104.189 55.0734 105.109 55.5578 106.127 56.1875L107.967 57.3016L106.853 59.1906C105.206 61.9031 105.448 61.8062 103.317 60.5469L101.428 59.4813L100.023 60.5469C99.2484 61.1766 98.1344 61.8063 97.6016 62.0484L96.3906 62.4844V64.9062V67.3281H93.8234H91.2563V65.0031C91.2563 63.3078 91.1594 62.6781 90.9656 62.6781C90.4813 62.6781 87.6719 61.2734 86.8 60.5953C86.3156 60.2078 85.8797 60.0625 85.8313 60.2078C85.6375 60.4984 82.0531 62.5328 81.9563 62.3875C81.7141 62.0969 79.6313 58.2703 79.6313 58.0766C79.6313 57.9797 80.4547 57.3984 81.4234 56.8656L83.2156 55.8484L83.1188 52.8937L83.0219 49.9391L81.0844 48.825C80.0188 48.1953 79.1469 47.6141 79.1469 47.5172C79.1469 47.4203 79.7281 46.4031 80.4063 45.2406C81.8109 42.9156 81.4719 42.9641 84.0875 44.5141L85.4922 45.3859L86.5578 44.5141C87.1391 44.0297 88.2047 43.3516 88.9797 42.9641L90.3844 42.2859V39.9125V37.5391H92.9516H95.4703V39.8156Z" fill="#D34768"/>
<path id="Vector_9" d="M91.4984 46.0642C89.7063 46.6454 87.9625 48.1954 87.2359 49.8907C86.7031 51.1017 86.7031 53.7173 87.2359 54.9282C87.7688 56.1876 89.2219 57.6892 90.3844 58.3188C90.9656 58.6095 92.0313 58.9001 93 58.9485C94.3563 59.0454 94.8406 58.997 95.9063 58.4642C98.5219 57.2532 99.8781 55.1704 99.8781 52.4095C99.8781 49.697 98.5219 47.5657 96.0031 46.4032C94.7922 45.8704 92.8063 45.6767 91.4984 46.0642ZM95.4219 48.5345C98.5219 50.1329 98.5219 54.7345 95.4219 56.3329C93.3875 57.3985 90.7719 56.672 89.6578 54.686C87.4297 50.8595 91.4984 46.5485 95.4219 48.5345Z" fill="white"/>
<path id="Vector_10" d="M51.7312 47.8079C50.7625 49.8907 50.4719 50.2298 50.0359 50.2298C49.6484 50.2298 49.4062 50.4235 49.3094 50.7626C49.0187 51.8282 49.1156 52.4095 49.6 52.4095C49.8422 52.4095 50.4234 52.5064 50.9562 52.5548L51.8766 52.7485L52.9906 50.3751C53.6203 49.0673 54.25 48.0501 54.3953 48.0501C54.7344 48.0501 59.4812 49.4548 59.6266 49.6001C59.675 49.6485 59.5297 50.9564 59.3359 52.4579C59.1422 54.0079 58.9484 55.2188 58.9484 55.2673C58.9484 55.3157 62.0969 57.4954 62.9203 58.0282C63.4047 58.3673 63.6469 58.2704 65.5844 56.8173L67.7156 55.2673L69.7984 57.3501L71.8328 59.3845L70.0406 61.7579L68.2 64.0829L69.2656 66.2142C69.8469 67.3767 70.3312 68.4907 70.3312 68.6845C70.3312 68.9267 70.6703 68.9751 71.4938 68.8782C72.1234 68.7813 73.3828 68.6845 74.3031 68.6845L75.9984 68.636L76.5797 70.8157C76.9188 72.0267 77.2094 73.2376 77.3063 73.5767C77.4031 74.0126 77.2578 74.2064 76.4344 74.497C75.9016 74.7392 75.4656 74.9329 75.4656 75.0298C75.4656 75.1267 76.1922 76.6282 76.3375 76.7735C76.5312 77.0157 79.825 75.4657 79.825 75.1751C79.825 74.9813 79.4375 73.286 78.9531 71.397C77.5 65.536 77.6937 66.0688 76.9672 66.2142C76.5797 66.311 75.3203 66.4079 74.1094 66.5048L71.9297 66.6985L71.3484 65.536L70.8156 64.422L72.7531 61.9032L74.6906 59.3845L71.3484 55.9454L68.0062 52.5064L65.7297 54.1532C64.4703 55.0251 63.4047 55.7517 63.3078 55.7032C63.2109 55.6548 62.7266 55.3642 62.2422 55.0251C61.1766 54.2985 61.1766 54.2501 61.6609 50.8595C61.9031 49.5032 61.9516 48.2923 61.8547 48.1954C61.6609 48.0501 53.2812 45.5314 52.9422 45.5314C52.9422 45.386 52.3609 46.4517 51.7312 47.8079Z" fill="#D34768"/>
<path id="Vector_11" d="M49.3094 58.5611C48.9219 59.9174 49.0672 60.1111 50.5687 60.4502C51.3437 60.6439 52.0703 60.7893 52.2156 60.8861C52.4094 60.983 53.0391 59.5299 53.0391 58.9486C53.0391 58.8518 49.9875 58.0283 49.5516 58.0283C49.5031 58.0283 49.4062 58.2705 49.3094 58.5611Z" fill="#D34768"/>
<path id="Vector_12" d="M55.3641 61.0799C54.9281 61.8549 54.9281 61.9518 55.2672 62.1455C55.4609 62.2908 56.1391 62.6783 56.7203 63.1143L57.8344 63.8408L58.4641 63.0658C58.9484 62.533 59.0453 62.1939 58.9 62.0002C58.5609 61.6127 56.4297 60.208 56.0906 60.208C55.9453 60.208 55.6063 60.5955 55.3641 61.0799Z" fill="#D34768"/>
<path id="Vector_13" d="M60.45 64.9549L59.675 65.5846L60.6438 66.8439C61.1766 67.5705 61.6125 68.2002 61.6125 68.2971C61.6125 68.4424 62.0484 68.2486 62.5813 67.958C63.1141 67.6189 63.55 67.3283 63.55 67.2314C63.55 66.9893 61.5641 64.3252 61.3703 64.3252C61.2734 64.3736 60.8859 64.6643 60.45 64.9549Z" fill="#D34768"/>
<path id="Vector_14" d="M63.9859 70.3799C63.5016 70.5736 63.0656 70.7674 63.0172 70.8158C62.9688 70.8643 63.1625 71.6393 63.4047 72.5111L63.8891 74.1096L64.8578 73.9158C65.3906 73.8189 65.875 73.7221 65.9234 73.6736C66.0203 73.5768 65.2453 70.5736 65.0516 70.2346C64.9063 70.0893 64.6156 70.1377 63.9859 70.3799Z" fill="#D34768"/>
<path id="Vector_15" d="M15.7906 32.1141V33.2281H17.2437H18.6969V32.1141V31H17.2437H15.7906V32.1141Z" fill="#D34768"/>
<path id="Vector_16" d="M22.3781 32.1141V33.2281H25.2844H28.1906V32.1141V31H25.2844H22.3781V32.1141Z" fill="#D34768"/>
<path id="Vector_17" d="M32.1141 32.1141V33.2281H33.4703H34.8266V32.1141V31H33.4703H32.1141V32.1141Z" fill="#D34768"/>
<path id="Vector_18" d="M13.6109 37.9266V39.0406H16.4203H19.2297V37.9266V36.8125H16.4203H13.6109V37.9266Z" fill="#D34768"/>
<path id="Vector_19" d="M21.8938 37.9266V39.0406H28.3359H34.7781V37.9266V36.8125H28.3359H21.8938V37.9266Z" fill="#D34768"/>
<path id="Vector_20" d="M4.84375 43.3035V44.4176H19.8109H34.7781V43.3035V42.1895H19.8109H4.84375V43.3035Z" fill="#D34768"/>
<path id="Vector_21" d="M25.9625 53.039C24.1219 54.7828 22.6203 56.2844 22.6203 56.3812C22.6203 56.4781 23.3469 57.5922 24.2188 58.8031L25.7688 61.0312L25.1391 61.9515C24.7516 62.4359 24.4125 62.9203 24.3156 63.0172C24.2188 63.1625 22.8141 63.0172 21.2156 62.8234C19.5687 62.5812 18.2125 62.4359 18.1156 62.4844C17.9703 62.6781 15.5969 70.864 15.5969 71.2515C15.5969 71.4453 16.6625 72.1234 18.1641 72.8015L20.7313 74.0125L20.5859 75.2234C20.4891 75.9015 20.3438 76.5312 20.2469 76.5797C20.15 76.6765 18.9391 77.2094 17.5344 77.7422C16.1297 78.3234 14.9188 78.8562 14.8219 78.9531C14.725 79.05 15.1609 81.1812 15.7906 83.7L16.9047 88.3015L18.0672 88.1562C18.6969 88.0594 19.9563 87.9625 20.925 87.8656L22.6688 87.7203L23.1531 88.7375C23.4438 89.2703 23.6859 89.8515 23.6859 89.9969C23.6859 90.1422 22.8625 91.3047 21.8453 92.6125C20.8281 93.9203 20.0047 95.0344 20.0047 95.0828C20.0047 95.1797 21.4578 96.7781 23.25 98.6187L26.4953 102.009L28.8687 100.362L31.2422 98.7156L32.3563 99.4906C33.1797 100.072 33.4219 100.411 33.325 100.798C33.1313 101.719 32.6953 105.061 32.6953 105.787C32.6953 106.466 32.7922 106.514 37.0547 107.725C39.4766 108.452 41.5109 108.936 41.6078 108.887C41.7531 108.791 42.3344 107.725 42.9156 106.417L43.9813 104.092H45.0953C45.725 104.092 46.4031 104.237 46.5969 104.431C46.7906 104.577 47.4688 105.884 48.05 107.337C48.6313 108.791 49.2609 109.905 49.3578 109.856C49.5031 109.808 51.5375 109.275 53.9594 108.742L58.2703 107.677L58.0766 104.867L57.8828 102.058L59.1422 101.525L60.4016 100.992L62.7266 102.784C64.8094 104.383 65.1484 104.528 65.5359 104.286C65.7781 104.092 67.3281 102.639 69.0234 100.992L72.075 98.0375L70.6703 96.0031C69.8953 94.889 69.1688 93.8719 69.0719 93.6781C68.975 93.4844 69.2656 92.8062 69.75 91.9828L70.6219 90.5781L69.7016 90.0453C68.8781 89.5125 68.7813 89.5125 68.5391 89.8515C68.3938 90.0453 67.8125 90.8687 67.2313 91.6922C66.65 92.5156 66.2141 93.2906 66.3109 93.4844C66.4078 93.6781 67.0375 94.6953 67.8125 95.7609L69.1688 97.6984L67.1828 99.5875C66.1172 100.653 65.1484 101.525 65.0516 101.525C64.9547 101.573 63.9375 100.847 62.7266 99.9265L60.5469 98.2312L58.7062 99.2C57.6891 99.7328 56.5266 100.266 56.1875 100.411C55.5578 100.653 55.5094 100.702 55.6547 102.009C55.7516 102.736 55.8484 103.947 55.9453 104.625L56.0906 105.933L53.2813 106.611C51.7313 106.998 50.4234 107.241 50.375 107.192C50.3266 107.144 49.8422 106.03 49.3094 104.673L48.2922 102.252L46.9844 102.106C46.2578 102.009 44.9984 101.864 44.175 101.767L42.6734 101.573L41.5594 103.995L40.4453 106.417L37.7328 105.594C36.2313 105.158 34.9719 104.77 34.9234 104.722C34.9234 104.673 35.0203 103.656 35.2141 102.445C35.7469 98.9094 35.7953 99.1515 33.8094 97.7953C32.8406 97.1172 31.8719 96.439 31.6297 96.2937C31.2422 96.0031 30.9031 96.1 28.9656 97.5047L26.7375 99.0547L24.8 97.1172C23.7344 96.0515 22.8625 95.0828 22.8625 94.9375C22.8625 94.7922 23.6375 93.6781 24.5578 92.4672L26.2531 90.239L25.0906 87.7687C24.2672 85.9765 23.8313 85.2984 23.5891 85.3953C23.3953 85.4922 22.1844 85.589 20.8766 85.6859C18.7453 85.8312 18.5031 85.8312 18.4063 85.3953C17.9219 83.7969 17.2438 80.4062 17.3891 80.2609C17.4859 80.164 18.6969 79.6312 20.0531 79.0984L22.5234 78.0812L22.7172 75.8047C22.8141 74.5453 22.9594 73.3344 23.0078 73.1406C23.1047 72.8015 22.5234 72.4625 20.5859 71.5906C18.9875 70.864 18.0672 70.2828 18.1641 70.1375C18.2609 69.9922 18.6 68.7328 18.9875 67.3765C19.7625 64.5672 19.375 64.7609 23.0562 65.2937C25.2844 65.6328 25.4781 65.6328 25.7203 65.2453C25.8656 65.0031 26.5438 63.9859 27.2219 62.9687L28.5297 61.0797L26.9797 58.9L25.4297 56.7203L26.9312 55.2672C27.7547 54.4922 28.7234 53.5719 29.0625 53.2812L29.6922 52.7484L31.2906 53.9594L32.8406 55.1703L33.5187 54.3953C33.9062 53.9594 34.1969 53.5234 34.1969 53.475C34.1969 53.3297 30.3219 50.375 29.7406 50.0359C29.45 49.8906 27.8516 51.1984 25.9625 53.039Z" fill="#D34768"/>
<path id="Vector_22" d="M31.3875 66.4564C26.7859 73.4314 27.3187 82.8283 32.5984 89.3674C35.0687 92.4189 39.1375 94.9861 42.9641 95.9549C45.5312 96.5846 49.7453 96.5361 52.2156 95.8096C54.6859 95.1314 57.3984 93.7268 59.3844 92.1283L60.9344 90.8689L60.1109 90.0455L59.3359 89.2221L58.0766 90.3361C56.6719 91.5955 53.0875 93.3877 51.1016 93.8721C50.3266 94.0658 48.6312 94.1627 47.0812 94.1627C42.4797 94.0658 38.7984 92.5158 35.5047 89.2221C29.6922 83.4096 28.7719 74.6424 33.2281 67.7158L34.2937 66.0689L33.4703 65.4393C33.0344 65.1002 32.5984 64.8096 32.55 64.8096C32.5016 64.858 31.9687 65.5846 31.3875 66.4564Z" fill="#D34768"/>
</g>
</g>
</g>
</g>
</svg>
