<svg width="116" height="116" viewBox="0 0 116 116" fill="none" xmlns="http://www.w3.org/2000/svg">
<g clip-path="url(#clip0_158_1093)">
<path d="M58.0003 110.055C57.7756 110.055 57.5472 109.993 57.3442 109.874L13.8442 84.4986C13.4418 84.2666 13.1953 83.8389 13.1953 83.3749V32.6249C13.1953 32.1609 13.4418 31.7295 13.8442 31.4975L57.3442 6.12252C57.7466 5.88689 58.2541 5.88689 58.6564 6.12252L102.156 31.4975C102.555 31.7295 102.802 32.1573 102.805 32.6213C102.805 33.0816 102.566 33.513 102.164 33.7486L72.3807 51.4531C73.2978 53.4505 73.8053 55.6654 73.8053 57.9999C73.8053 66.7144 66.7148 73.8049 58.0003 73.8049C49.2858 73.8049 42.1953 66.7144 42.1953 57.9999C42.1953 49.2854 49.2858 42.1949 58.0003 42.1949C63.4487 42.1949 68.2627 44.968 71.1047 49.1766L98.9302 32.6358L58.0003 8.76152L15.8053 33.3753V82.6245L58.0003 107.238L100.195 82.6245V50.7499H102.809V83.3749C102.809 83.8389 102.562 84.2666 102.16 84.5023L58.6601 109.877C58.4534 109.997 58.2251 110.055 58.0003 110.055ZM58.0003 44.8049C50.7249 44.8049 44.8053 50.7245 44.8053 57.9999C44.8053 65.2753 50.7249 71.1949 58.0003 71.1949C65.2757 71.1949 71.1953 65.2753 71.1953 57.9999C71.1953 50.7245 65.2757 44.8049 58.0003 44.8049Z" fill="#9ACC5B"/>
<circle cx="58" cy="58" r="15" fill="#9ACC5B"/>
</g>
<defs>
<clipPath id="clip0_158_1093">
<rect width="116" height="116" fill="white"/>
</clipPath>
</defs>
</svg>
