<svg width="95" height="95" viewBox="0 0 95 95" fill="none" xmlns="http://www.w3.org/2000/svg">
<path d="M93.4167 0H1.58333C0.633333 0 0 0.633333 0 1.58333V74.4167C0 75.3667 0.633333 76 1.58333 76H7.91667V93.4167C7.91667 94.3667 8.55 95 9.5 95H85.5C86.45 95 87.0833 94.3667 87.0833 93.4167V76H93.4167C94.3667 76 95 75.3667 95 74.4167V1.58333C95 0.633333 94.3667 0 93.4167 0ZM91.8333 3.16667V12.6667H3.16667V3.16667H91.8333ZM83.9167 38H11.0833V28.5H83.9167V38ZM11.0833 91.8333V41.1667H83.9167V91.8333H11.0833ZM87.0833 72.8333V26.9167C87.0833 25.9667 86.45 25.3333 85.5 25.3333H9.5C8.55 25.3333 7.91667 25.9667 7.91667 26.9167V72.8333H3.16667V15.8333H91.8333V72.8333H87.0833Z" fill="#9ACC5B"/>
</svg>
