<svg width="126" height="126" viewBox="0 0 126 126" fill="none" xmlns="http://www.w3.org/2000/svg">
<g id="flexible-deployment 1">
<path id="Vector" d="M61.3712 104.751H23.5195C20.4667 104.751 17.9824 102.267 17.9824 99.214V23.6152C17.9824 20.5624 20.4667 18.0781 23.5195 18.0781H99.2783C102.331 18.0781 104.815 20.5624 104.815 23.6152V61.8828C104.815 62.9016 103.989 63.7285 102.97 63.7285C101.951 63.7285 101.124 62.9016 101.124 61.8828V23.6152C101.124 22.5976 100.296 21.7695 99.2783 21.7695H23.5195C22.5019 21.7695 21.6738 22.5976 21.6738 23.6152V99.214C21.6738 100.232 22.5019 101.06 23.5195 101.06H61.3712C62.39 101.06 63.2169 101.887 63.2169 102.905C63.2169 103.924 62.39 104.751 61.3712 104.751Z" fill="#9ACC5B"/>
<path id="Vector_2" d="M19.1777 40.1034H103.114V43.7948H19.1777V40.1034ZM32.2884 27.9082C34.2473 27.9082 35.8395 29.5017 35.8395 31.4593C35.8395 33.417 34.2461 35.0105 32.2884 35.0105C30.3307 35.0105 28.7372 33.417 28.7372 31.4593C28.7372 29.5017 30.3307 27.9082 32.2884 27.9082ZM32.2884 25.4473C28.9673 25.4473 26.2763 28.1395 26.2763 31.4593C26.2763 34.7791 28.9686 37.4714 32.2884 37.4714C35.6082 37.4714 38.3004 34.7791 38.3004 31.4593C38.3004 28.1395 35.6094 25.4473 32.2884 25.4473ZM47.4871 27.9082C49.446 27.9082 51.0383 29.5017 51.0383 31.4593C51.0383 33.417 49.4448 35.0105 47.4871 35.0105C45.5295 35.0105 43.936 33.417 43.936 31.4593C43.936 29.5017 45.5295 27.9082 47.4871 27.9082ZM47.4871 25.4473C44.1661 25.4473 41.4751 28.1395 41.4751 31.4593C41.4751 34.7791 44.1673 37.4714 47.4871 37.4714C50.8082 37.4714 53.4992 34.7791 53.4992 31.4593C53.4992 28.1395 50.8082 25.4473 47.4871 25.4473ZM62.6859 27.9082C64.6448 27.9082 66.237 29.5017 66.237 31.4593C66.237 33.417 64.6436 35.0105 62.6859 35.0105C60.7282 35.0105 59.1347 33.417 59.1347 31.4593C59.1347 29.5017 60.7282 27.9082 62.6859 27.9082ZM62.6859 25.4473C59.3648 25.4473 56.6738 28.1395 56.6738 31.4593C56.6738 34.7791 59.3661 37.4714 62.6859 37.4714C66.0069 37.4714 68.6979 34.7791 68.6979 31.4593C68.6979 28.1395 66.0069 25.4473 62.6859 25.4473ZM89.5286 108.583H86.0968C84.4578 108.583 83.028 107.404 82.8434 105.898L82.4755 102.899C81.9107 102.703 81.357 102.477 80.8168 102.22L78.4753 104.05C77.2805 104.984 75.436 104.808 74.2757 103.647L71.8492 101.221C70.6901 100.062 70.5129 98.2172 71.4468 97.0224L73.2396 94.7288C72.9603 94.1591 72.7142 93.5734 72.5038 92.9754L69.6639 92.6272C68.159 92.4426 66.979 91.014 66.979 89.3738V85.942C66.979 84.3018 68.1578 82.8732 69.6639 82.6887L72.4693 82.3441C72.6847 81.7215 72.9369 81.11 73.2273 80.5169L71.5108 78.3205C70.5769 77.1257 70.7541 75.2812 71.9132 74.1209L74.3396 71.6944C75.5 70.5353 77.3445 70.3581 78.5392 71.2921L80.7615 73.0283C81.3558 72.7428 81.9686 72.493 82.5936 72.2814L82.9332 69.5091C83.1178 68.003 84.5476 66.8242 86.1866 66.8242H89.6184C91.2586 66.8242 92.6872 68.003 92.8717 69.5091L93.2249 72.3835C93.8204 72.5976 94.4049 72.8462 94.9721 73.1292L97.2399 71.3561C98.4347 70.4221 100.279 70.5993 101.439 71.7584L103.866 74.1849C105.025 75.3452 105.202 77.1897 104.268 78.3845L102.416 80.7544C102.67 81.2958 102.894 81.852 103.086 82.4155L106.051 82.7797C107.557 82.9643 108.736 84.3941 108.736 86.0331V89.4649C108.736 91.1051 107.557 92.5337 106.051 92.7182L102.985 93.0947C102.791 93.6325 102.568 94.1603 102.318 94.6747L104.203 97.0876C105.137 98.2824 104.961 100.127 103.801 101.287L101.373 103.714C100.214 104.873 98.3695 105.05 97.1747 104.116L94.7359 102.21C94.2203 102.456 93.6912 102.675 93.1511 102.866L92.7795 105.898C92.5974 107.403 91.1688 108.583 89.5286 108.583ZM80.6766 99.5375C80.8771 99.5375 81.0777 99.5867 81.261 99.6851C82.1113 100.144 83.0145 100.514 83.9435 100.784C84.1749 100.851 84.3816 100.985 84.5378 101.168C84.6939 101.352 84.7928 101.577 84.822 101.816L85.2859 105.598C85.3167 105.845 85.6698 106.12 86.0968 106.12H89.5286C89.9555 106.12 90.3087 105.844 90.3394 105.596L90.807 101.787C90.8359 101.549 90.9338 101.325 91.0886 101.142C91.2434 100.959 91.4483 100.825 91.6782 100.757C92.585 100.487 93.4648 100.123 94.2929 99.6741C94.5034 99.5597 94.7428 99.5094 94.9815 99.5293C95.2202 99.5492 95.4479 99.6385 95.6366 99.786L98.6931 102.174C98.8887 102.327 99.3342 102.273 99.6369 101.971L102.065 99.5449C102.367 99.2422 102.421 98.798 102.268 98.6011L99.8965 95.5668C99.748 95.3769 99.6586 95.1477 99.6394 94.9075C99.6201 94.6673 99.6719 94.4267 99.7882 94.2157C100.243 93.3888 100.614 92.5115 100.889 91.6096C100.959 91.3817 101.093 91.1789 101.275 91.0258C101.458 90.8727 101.681 90.7758 101.917 90.747L105.756 90.2757C106.003 90.245 106.279 89.8918 106.279 89.4649V86.0331C106.279 85.6061 106.002 85.253 105.756 85.2222L102.002 84.762C101.51 84.7017 101.102 84.3523 100.967 83.8748C100.705 82.9483 100.342 82.0439 99.8866 81.1863C99.659 80.7568 99.7045 80.2339 100.004 79.8512L102.334 76.8698C102.488 76.6741 102.432 76.2287 102.131 75.926L99.7045 73.4995C99.4031 73.1968 98.9564 73.1427 98.7608 73.2965L95.8642 75.5606C95.6728 75.7104 95.4411 75.8001 95.1987 75.8183C94.9562 75.8365 94.7138 75.7823 94.5021 75.6627C93.6297 75.1705 92.7032 74.7743 91.7483 74.4851C91.5201 74.4161 91.3168 74.2823 91.1632 74.0999C91.0097 73.9175 90.9124 73.6944 90.8833 73.4577L90.4354 69.8106C90.4046 69.5633 90.0515 69.2876 89.6245 69.2876H86.1928C85.7658 69.2876 85.4126 69.5645 85.3819 69.8106L84.9451 73.374C84.8848 73.8662 84.5341 74.2747 84.0567 74.4088C83.0711 74.6857 82.1162 75.0745 81.2167 75.5643C81.0061 75.6794 80.7663 75.7302 80.5271 75.7105C80.2878 75.6908 80.0596 75.6015 79.8706 75.4535L77.0295 73.2325C76.8326 73.0787 76.3884 73.1329 76.0857 73.4355L73.6592 75.862C73.3565 76.1647 73.3024 76.6102 73.4562 76.8058L75.6599 79.626C75.9639 80.0149 76.0057 80.5477 75.767 80.9795C75.2699 81.8766 74.8749 82.8302 74.5919 83.8109C74.5251 84.0427 74.3916 84.2498 74.2081 84.4065C74.0245 84.5631 73.799 84.6623 73.5595 84.6919L69.969 85.1324C69.7217 85.1631 69.4461 85.5163 69.4461 85.9433V89.375C69.4461 89.802 69.7217 90.1552 69.969 90.1859L73.5878 90.6301C74.0751 90.6904 74.4787 91.0325 74.6177 91.5025C74.9007 92.4611 75.2908 93.3913 75.7768 94.2649C76.0168 94.6968 75.9749 95.2308 75.671 95.6209L73.3897 98.5396C73.2359 98.7352 73.2913 99.1806 73.5928 99.4833L76.0192 101.911C76.3219 102.214 76.7661 102.268 76.963 102.114L79.9211 99.802C80.1352 99.63 80.4019 99.5366 80.6766 99.5375ZM87.8588 95.5409C83.5374 95.5409 80.0207 92.0242 80.0207 87.7028C80.0207 83.3814 83.5374 79.8647 87.8588 79.8647C92.1802 79.8647 95.6969 83.3814 95.6969 87.7028C95.6969 92.0242 92.1814 95.5409 87.8588 95.5409ZM87.8588 82.3257C84.8934 82.3257 82.4817 84.7374 82.4817 87.7028C82.4817 90.6683 84.8934 93.08 87.8588 93.08C90.8242 93.08 93.236 90.6683 93.236 87.7028C93.236 84.7374 90.8242 82.3257 87.8588 82.3257Z" fill="#9ACC5B"/>
<circle id="Ellipse 119" cx="88" cy="88" r="6" fill="#9ACC5B"/>
</g>
</svg>
