<svg width="121" height="120" viewBox="0 0 121 120" fill="none" xmlns="http://www.w3.org/2000/svg">
<path d="M93.5958 74.5182C108.157 74.5182 120.09 62.813 120.196 48.4252C120.223 44.9559 119.562 41.5156 118.253 38.3027C116.943 35.0898 115.011 32.1679 112.567 29.7053C110.123 27.2427 107.216 25.2882 104.013 23.9545C100.81 22.6207 97.3746 21.934 93.9052 21.9341L93.8317 21.9342H93.81C92.3272 21.9325 90.8756 21.5087 89.6249 20.7122C88.3742 19.9157 87.3762 18.7796 86.7476 17.4367C84.4237 12.4337 80.7184 8.19908 76.0681 5.23169C71.4178 2.2643 66.0164 0.687744 60.5 0.687744C54.9836 0.687744 49.5822 2.2643 44.9319 5.23169C40.2817 8.19908 36.5763 12.4337 34.2524 17.4367C33.6218 18.7817 32.621 19.9191 31.3671 20.7157C30.1132 21.5122 28.6583 21.9349 27.1728 21.9342L27.0948 21.9341C23.6254 21.934 20.1902 22.6207 16.9873 23.9545C13.7844 25.2882 10.8772 27.2427 8.43322 29.7053C5.98924 32.1679 4.05681 35.0898 2.74734 38.3027C1.43787 41.5156 0.777246 44.9559 0.803551 48.4252C0.910372 62.8129 12.8432 74.5182 27.4042 74.5182H37.5514V79.0638H20.8869C20.4954 77.9756 19.7325 77.0605 18.7326 76.4795C17.7327 75.8985 16.5598 75.6889 15.4206 75.8877C14.2813 76.0864 13.2487 76.6806 12.5046 77.5659C11.7604 78.4511 11.3524 79.5704 11.3524 80.7269C11.3524 81.8833 11.7604 83.0027 12.5046 83.8879C13.2487 84.7731 14.2813 85.3674 15.4206 85.5661C16.5598 85.7648 17.7327 85.5552 18.7326 84.9743C19.7325 84.3933 20.4954 83.4781 20.8869 82.39H37.5514V85.8465H27.1888C26.1055 85.8476 25.0668 86.2785 24.3008 87.0445C23.5347 87.8106 23.1038 88.8492 23.1026 89.9325V109.6C22.0144 109.992 21.0993 110.754 20.5183 111.754C19.9373 112.754 19.7277 113.927 19.9264 115.066C20.1251 116.206 20.7194 117.238 21.6046 117.982C22.4898 118.727 23.6092 119.135 24.7656 119.135C25.9221 119.135 27.0415 118.727 27.9267 117.982C28.8119 117.238 29.4062 116.206 29.6049 115.066C29.8036 113.927 29.594 112.754 29.013 111.754C28.432 110.754 27.5169 109.992 26.4287 109.6V89.9326C26.429 89.7311 26.5092 89.5379 26.6517 89.3955C26.7942 89.253 26.9873 89.1729 27.1888 89.1727H37.5514V94.7638C37.5538 96.8997 38.4033 98.9474 39.9136 100.458C41.4239 101.968 43.4716 102.817 45.6074 102.82H50.8835C50.8784 102.874 50.8753 102.928 50.8753 102.983L50.8776 110.024C49.7891 110.415 48.8735 111.178 48.2919 112.178C47.7104 113.177 47.5002 114.35 47.6985 115.49C47.8967 116.629 48.4907 117.662 49.3757 118.407C50.2607 119.151 51.3801 119.56 52.5367 119.56C53.6933 119.561 54.8129 119.153 55.6984 118.409C56.5839 117.665 57.1785 116.632 57.3775 115.493C57.5765 114.354 57.3671 113.181 56.7862 112.18C56.2053 111.18 55.2902 110.417 54.2019 110.026L54.2015 102.983C54.2015 102.928 54.1985 102.874 54.1932 102.82H66.867C66.8618 102.874 66.8588 102.928 66.8588 102.983V110.025C65.7706 110.417 64.8554 111.18 64.2744 112.18C63.6935 113.18 63.484 114.353 63.6828 115.492C63.8817 116.631 64.4762 117.664 65.3615 118.408C66.2469 119.152 67.3665 119.56 68.523 119.56C69.6795 119.559 70.7988 119.151 71.6839 118.407C72.569 117.662 73.163 116.629 73.3614 115.49C73.5597 114.351 73.3497 113.178 72.7683 112.178C72.187 111.178 71.2715 110.416 70.1831 110.025L70.1849 102.983C70.1849 102.928 70.182 102.874 70.1767 102.82H75.158C77.2938 102.817 79.3415 101.968 80.8518 100.458C82.3621 98.9474 83.2116 96.8997 83.214 94.7638V89.1726H92.0579C92.2594 89.1729 92.4526 89.253 92.5951 89.3954C92.7375 89.5379 92.8177 89.731 92.818 89.9325V109.6C91.7299 109.992 90.8147 110.754 90.2337 111.754C89.6527 112.754 89.4431 113.927 89.6419 115.066C89.8406 116.206 90.4349 117.238 91.3201 117.982C92.2053 118.727 93.3246 119.135 94.4811 119.135C95.6375 119.135 96.7569 118.727 97.6421 117.982C98.5273 117.238 99.1216 116.206 99.3203 115.066C99.519 113.927 99.3094 112.754 98.7285 111.754C98.1475 110.754 97.2323 109.992 96.1442 109.6V89.9326C96.1429 88.8492 95.712 87.8106 94.946 87.0446C94.1799 86.2786 93.1413 85.8477 92.0579 85.8465H83.214V82.39H98.3598C98.7514 83.4781 99.5142 84.3933 100.514 84.9743C101.514 85.5552 102.687 85.7648 103.826 85.5661C104.965 85.3674 105.998 84.7731 106.742 83.8879C107.486 83.0027 107.894 81.8833 107.894 80.7269C107.894 79.5704 107.486 78.4511 106.742 77.5659C105.998 76.6806 104.965 76.0864 103.826 75.8877C102.687 75.6889 101.514 75.8985 100.514 76.4795C99.5142 77.0605 98.7514 77.9756 98.3598 79.0638H83.214V74.5182H93.5958ZM79.8879 94.7638C79.8864 96.0178 79.3877 97.22 78.5009 98.1068C77.6142 98.9935 76.412 99.4923 75.158 99.4937H45.6074C44.3534 99.4923 43.1512 98.9935 42.2645 98.1068C41.3778 97.22 40.879 96.0178 40.8776 94.7638V65.2133C40.879 63.9593 41.3778 62.757 42.2645 61.8703C43.1512 60.9836 44.3534 60.4848 45.6074 60.4834H75.158C76.412 60.4848 77.6142 60.9836 78.5009 61.8703C79.3877 62.757 79.8864 63.9593 79.8879 65.2133V94.7638ZM83.0405 63.5502C82.6568 61.7434 81.6647 60.1229 80.2301 58.9593C78.7955 57.7958 77.0051 57.1597 75.158 57.1572H70.1849L70.1842 45.2088C71.2725 44.8174 72.1878 44.0545 72.769 43.0546C73.3501 42.0547 73.5598 40.8818 73.3611 39.7424C73.1624 38.6031 72.5681 37.5704 71.6828 36.8262C70.7975 36.082 69.678 35.674 68.5215 35.6741C67.365 35.6741 66.2456 36.0823 65.3604 36.8266C64.4752 37.5709 63.881 38.6037 63.6825 39.743C63.4839 40.8824 63.6938 42.0553 64.275 43.0551C64.8562 44.055 65.7716 44.8177 66.86 45.209L66.8588 57.1572H54.2014L54.1995 45.2092C55.288 44.8181 56.2035 44.0556 56.7849 43.0558C57.3663 42.056 57.5763 40.8831 57.378 39.7437C57.1796 38.6043 56.5855 37.5714 55.7005 36.8269C54.8154 36.0825 53.696 35.6741 52.5394 35.6739C51.3829 35.6736 50.2633 36.0815 49.3779 36.8256C48.4925 37.5697 47.898 38.6023 47.6992 39.7416C47.5003 40.8809 47.7098 42.0539 48.2908 43.0539C48.8718 44.054 49.787 44.817 50.8752 45.2085V57.1572H45.6074C43.7601 57.1596 41.9694 57.7959 40.5347 58.9597C39.1 60.1236 38.1081 61.7444 37.7246 63.5516C37.7149 63.5514 37.7055 63.5501 37.6958 63.5501H34.2488C33.8909 63.5498 33.5478 63.4074 33.2947 63.1543C33.0416 62.9013 32.8993 62.5582 32.8988 62.2003V54.3147C33.987 53.9231 34.9021 53.1603 35.4831 52.1604C36.0641 51.1604 36.2737 49.9876 36.075 48.8484C35.8763 47.7091 35.282 46.6765 34.3968 45.9323C33.5116 45.1882 32.3922 44.7802 31.2357 44.7802C30.0793 44.7802 28.9599 45.1882 28.0747 45.9323C27.1895 46.6765 26.5952 47.7091 26.3965 48.8484C26.1978 49.9876 26.4074 51.1604 26.9884 52.1604C27.5694 53.1603 28.4845 53.9231 29.5727 54.3147V62.2003C29.5741 63.44 30.0672 64.6286 30.9439 65.5052C31.8205 66.3819 33.0091 66.875 34.2488 66.8764H37.5513V71.192H27.4042C14.6637 71.192 4.22293 60.9677 4.12972 48.4005C4.10667 45.37 4.68367 42.3649 5.82744 39.5584C6.97122 36.7519 8.65916 34.1996 10.794 32.0485C12.9288 29.8974 15.4682 28.1901 18.2659 27.0251C21.0636 25.86 24.0643 25.2602 27.0949 25.2602L27.1591 25.2604H27.1903C29.3066 25.2574 31.3783 24.6519 33.163 23.5147C34.9478 22.3776 36.3719 20.7557 37.2688 18.8389C39.3254 14.4107 42.6049 10.6625 46.7208 8.03594C50.8366 5.4094 55.6175 4.01393 60.5 4.01393C65.3825 4.01393 70.1634 5.4094 74.2793 8.03594C78.3951 10.6625 81.6746 14.4107 83.7312 18.8389C84.6285 20.7564 86.0533 22.3788 87.839 23.516C89.6247 24.6532 91.6974 25.2583 93.8144 25.2605H93.8457L93.9052 25.2603C96.9358 25.2603 99.9364 25.8601 102.734 27.0252C105.532 28.1902 108.071 29.8975 110.206 32.0486C112.341 34.1997 114.029 36.752 115.173 39.5585C116.316 42.365 116.893 45.3701 116.87 48.4006C116.777 60.9678 106.336 71.1921 93.5958 71.1921H83.214V66.8764H84.9978C86.2375 66.875 87.4261 66.3819 88.3028 65.5052C89.1794 64.6286 89.6725 63.4401 89.674 62.2003V54.3147C90.7621 53.9232 91.6773 53.1603 92.2583 52.1604C92.8393 51.1605 93.0488 49.9877 92.8501 48.8484C92.6514 47.7092 92.0571 46.6766 91.1719 45.9324C90.2867 45.1882 89.1673 44.7802 88.0109 44.7802C86.8544 44.7802 85.7351 45.1882 84.8499 45.9324C83.9647 46.6766 83.3704 47.7092 83.1717 48.8484C82.9729 49.9877 83.1825 51.1605 83.7635 52.1604C84.3445 53.1603 85.2597 53.9232 86.3478 54.3147V62.2003C86.3474 62.5582 86.205 62.9013 85.9519 63.1544C85.6988 63.4075 85.3557 63.5498 84.9978 63.5502H83.0405Z" fill="#A7B9F0"/>
</svg>
