<svg width="96" height="72" viewBox="0 0 96 72" fill="none" xmlns="http://www.w3.org/2000/svg">
<g id="Page-1">
<g id="icon-100-folder-locked">
<path id="folder-locked" fill-rule="evenodd" clip-rule="evenodd" d="M69 63H5.9789C4.33833 63 3 61.6679 3 60.0246V27H84V36.1069C83.51 36.0364 83.0091 36 82.5 36C76.701 36 72 40.703 72 46.5162V51H71.9926C70.3399 51 69 52.3136 69 54.0088V63ZM69 66H5.97986C2.69914 66 0 63.3256 0 60.0265V5.97347C0 2.66902 2.69 0 6.00828 0H39L45 12H80.9824C84.3088 12 87 14.6797 87 17.9853V37.0145C90.5436 38.7033 93 42.3232 93 46.5162V51H93.0074C94.6611 51 96 52.3471 96 54.0088V68.9912C96 70.6864 94.6601 72 93.0074 72H71.9926C70.3389 72 69 70.6529 69 68.9912V66ZM75 51V46.5279C75 42.3371 78.3579 39 82.5 39C86.671 39 90 42.3704 90 46.5279V51H75ZM3 24V5.97541C3 4.36592 4.33204 3 5.9752 3H37.2001L43.08 15H80.9911C82.6385 15 84 16.3443 84 18.0026V24H3ZM73.5103 54C72.6762 54 72 54.6445 72 55.4931V67.5069C72 68.3315 72.6987 69 73.5103 69H91.4897C92.3238 69 93 68.3555 93 67.5069V55.4931C93 54.6685 92.3013 54 91.4897 54H73.5103Z" fill="#A7B9F0"/>
</g>
</g>
</svg>
