<svg width="104" height="109" viewBox="0 0 104 109" fill="none" xmlns="http://www.w3.org/2000/svg">
<path d="M85.9281 60.7113H76.6351C75.9654 60.7113 75.424 60.1699 75.424 59.5001C75.424 58.8304 75.9654 58.289 76.6351 58.289H85.9281C94.102 58.289 100.751 51.6399 100.751 43.4661C100.751 38.6543 98.3905 34.1222 94.4362 31.3415C94.1262 31.1235 93.936 30.7723 93.9227 30.3932C93.523 19.097 84.3633 10.2485 73.0708 10.2485C67.5929 10.2485 62.4105 12.3632 58.4804 16.2024C58.2042 16.4737 57.8142 16.5985 57.4339 16.5306C57.0537 16.4665 56.7242 16.2254 56.551 15.8791C52.386 7.57922 44.0486 2.42225 34.7944 2.42225C21.3642 2.42225 10.4387 13.3478 10.4387 26.778C10.4387 27.6124 10.4871 28.4881 10.5816 29.377C10.6325 29.8566 10.3927 30.3217 9.9724 30.5591C5.31563 33.1897 2.42225 38.1359 2.42225 43.4661C2.42225 51.6399 9.07132 58.289 17.244 58.289H26.5382C27.2067 58.289 27.7493 58.8304 27.7493 59.5001C27.7493 60.1699 27.2067 60.7113 26.5382 60.7113H17.244C7.73545 60.7113 0 52.9746 0 43.4661C0 37.5279 3.08473 32.0003 8.1 28.855C8.04429 28.149 8.01643 27.4526 8.01643 26.778C8.01643 12.0119 20.0284 0 34.7944 0C44.441 0 53.1781 5.09278 57.9656 13.3962C62.184 9.79436 67.4899 7.8275 73.0732 7.8275C85.4788 7.8275 95.5771 17.393 96.3159 29.7149C100.623 32.9717 103.174 38.0681 103.174 43.4673C103.174 52.9746 95.4378 60.7113 85.9281 60.7113Z" fill="#A7B9F0"/>
<path d="M83.5712 76.657V73.7043C83.5712 70.2538 80.7651 67.4476 77.3158 67.4476H63.429V49.8209L68.483 43.4734C69.5246 44.0511 70.72 44.3817 71.9917 44.3817C75.9956 44.3817 79.2524 41.125 79.2524 37.1211C79.2524 33.1171 75.9956 29.8604 71.9917 29.8604C67.9877 29.8604 64.731 33.1171 64.731 37.1211C64.731 38.9801 65.4395 40.6721 66.5925 41.9583L61.2708 48.6425C61.1 48.8569 61.0068 49.1233 61.0068 49.397V67.4464H52.5107V36.4646C52.5107 36.1909 52.4175 35.9245 52.2467 35.7101L46.925 29.0259C48.078 27.7397 48.7865 26.0477 48.7865 24.1887C48.7865 20.1847 45.5298 16.928 41.5258 16.928C37.5218 16.928 34.2651 20.1847 34.2651 24.1887C34.2651 28.1926 37.5218 31.4494 41.5258 31.4494C42.7987 31.4494 43.9941 31.1175 45.0357 30.541L50.0885 36.8885V67.4476H42.1653V57.1567C42.1653 56.8818 42.072 56.6165 41.9013 56.4022L36.5808 49.7192C37.7338 48.433 38.4423 46.741 38.4423 44.8819C38.4423 40.878 35.1856 37.6213 31.1816 37.6213C27.1776 37.6213 23.9209 40.878 23.9209 44.8819C23.9209 48.8859 27.1776 52.1426 31.1816 52.1426C32.4545 52.1426 33.6499 51.812 34.6902 51.2343L39.743 57.5806V67.4476H25.8575C22.4082 67.4476 19.6008 70.2538 19.6008 73.7043V76.657C19.6008 78.7341 20.6291 80.5641 22.1902 81.7026C20.6279 82.841 19.6008 84.671 19.6008 86.7469V89.7008C19.6008 91.7767 20.6291 93.6067 22.1902 94.7451C20.6279 95.8836 19.6008 97.7136 19.6008 99.7907V102.745C19.6008 106.194 22.407 109 25.8575 109H77.3158C80.7651 109 83.5712 106.194 83.5712 102.745V99.7907C83.5712 97.7136 82.543 95.8836 80.9818 94.7451C82.543 93.6067 83.5712 91.7767 83.5712 89.7008V86.7469C83.5712 84.671 82.543 82.841 80.9818 81.7026C82.543 80.5641 83.5712 78.7341 83.5712 76.657ZM71.9929 32.2826C74.661 32.2826 76.8313 34.453 76.8313 37.1211C76.8313 39.7892 74.661 41.9595 71.9929 41.9595C69.3248 41.9595 67.1544 39.7892 67.1544 37.1211C67.1544 34.453 69.3248 32.2826 71.9929 32.2826ZM36.6886 24.1887C36.6886 21.5206 38.8589 19.3502 41.527 19.3502C44.1951 19.3502 46.3655 21.5206 46.3655 24.1887C46.3655 26.8568 44.1951 29.0271 41.527 29.0271C38.8589 29.0271 36.6886 26.8568 36.6886 24.1887ZM26.3432 44.8807C26.3432 42.2126 28.5135 40.0423 31.1816 40.0423C33.8497 40.0423 36.02 42.2126 36.02 44.8807C36.02 47.5488 33.8497 49.7192 31.1816 49.7192C28.5135 49.7192 26.3432 47.5488 26.3432 44.8807ZM81.149 99.7919V102.746C81.149 104.859 79.4292 106.579 77.3158 106.579H25.8575C23.7429 106.579 22.0231 104.859 22.0231 102.746V99.7919C22.0231 97.6773 23.7429 95.9575 25.8575 95.9575H77.3158C79.4292 95.9563 81.149 97.6761 81.149 99.7919ZM81.149 76.657C81.149 78.7716 79.4292 80.4914 77.3158 80.4914H68.2251C67.5553 80.4914 67.0139 81.0328 67.0139 81.7026C67.0139 82.3723 67.5553 82.9137 68.2251 82.9137H77.3158C79.4292 82.9137 81.149 84.6335 81.149 86.7469V89.7008C81.149 91.8142 79.4292 93.534 77.3158 93.534H25.8575C23.7429 93.534 22.0231 91.8142 22.0231 89.7008V86.7469C22.0231 84.6335 23.7429 82.9137 25.8575 82.9137H53.6032C54.2729 82.9137 54.8143 82.3723 54.8143 81.7026C54.8143 81.0328 54.2729 80.4914 53.6032 80.4914H25.8575C23.7429 80.4914 22.0231 78.7716 22.0231 76.657V73.7043C22.0231 71.5897 23.7429 69.8699 25.8575 69.8699H77.3158C79.4292 69.8699 81.149 71.5897 81.149 73.7043V76.657Z" fill="#A7B9F0"/>
<path d="M62.861 82.9135H59.3826C58.7129 82.9135 58.1715 82.3721 58.1715 81.7023C58.1715 81.0326 58.7129 80.4912 59.3826 80.4912H62.861C63.5307 80.4912 64.0721 81.0326 64.0721 81.7023C64.0721 82.3721 63.5295 82.9135 62.861 82.9135Z" fill="#A7B9F0"/>
<path d="M29.778 89.4357H27.7021C27.0336 89.4357 26.491 88.8943 26.491 88.2246C26.491 87.5548 27.0336 87.0134 27.7021 87.0134H29.778C30.4465 87.0134 30.9891 87.5548 30.9891 88.2246C30.9891 88.8943 30.4465 89.4357 29.778 89.4357Z" fill="white"/>
<path d="M37.2445 89.4357H35.1686C34.5001 89.4357 33.9575 88.8943 33.9575 88.2246C33.9575 87.5548 34.5001 87.0134 35.1686 87.0134H37.2445C37.9131 87.0134 38.4556 87.5548 38.4556 88.2246C38.4556 88.8943 37.9131 89.4357 37.2445 89.4357Z" fill="white"/>
<path d="M44.7111 89.4357H42.6352C41.9667 89.4357 41.4241 88.8943 41.4241 88.2246C41.4241 87.5548 41.9667 87.0134 42.6352 87.0134H44.7111C45.3796 87.0134 45.9222 87.5548 45.9222 88.2246C45.9222 88.8943 45.3796 89.4357 44.7111 89.4357Z" fill="white"/>
<path d="M29.778 102.367H27.7021C27.0336 102.367 26.491 101.825 26.491 101.155C26.491 100.486 27.0336 99.9443 27.7021 99.9443H29.778C30.4465 99.9443 30.9891 100.486 30.9891 101.155C30.9891 101.825 30.4465 102.367 29.778 102.367Z" fill="#A7B9F0"/>
<path d="M37.2445 102.367H35.1686C34.5001 102.367 33.9575 101.825 33.9575 101.155C33.9575 100.486 34.5001 99.9443 35.1686 99.9443H37.2445C37.9131 99.9443 38.4556 100.486 38.4556 101.155C38.4556 101.825 37.9131 102.367 37.2445 102.367Z" fill="#A7B9F0"/>
<path d="M44.7111 102.367H42.6352C41.9667 102.367 41.4241 101.825 41.4241 101.155C41.4241 100.486 41.9667 99.9443 42.6352 99.9443H44.7111C45.3796 99.9443 45.9222 100.486 45.9222 101.155C45.9222 101.825 45.3796 102.367 44.7111 102.367Z" fill="#A7B9F0"/>
<path d="M75.7473 89.4357H59.3826C58.7129 89.4357 58.1715 88.8943 58.1715 88.2246C58.1715 87.5548 58.7129 87.0134 59.3826 87.0134H75.7486C76.4183 87.0134 76.9597 87.5548 76.9597 88.2246C76.9597 88.8943 76.4171 89.4357 75.7473 89.4357Z" fill="white"/>
<path d="M75.7473 102.367H59.3826C58.7129 102.367 58.1715 101.825 58.1715 101.155C58.1715 100.486 58.7129 99.9443 59.3826 99.9443H75.7486C76.4183 99.9443 76.9597 100.486 76.9597 101.155C76.9597 101.825 76.4171 102.367 75.7473 102.367Z" fill="#A7B9F0"/>
<path d="M29.778 76.5031H27.7021C27.0336 76.5031 26.491 75.9617 26.491 75.2919C26.491 74.6222 27.0336 74.0808 27.7021 74.0808H29.778C30.4465 74.0808 30.9891 74.6222 30.9891 75.2919C30.9891 75.9617 30.4465 76.5031 29.778 76.5031Z" fill="#A7B9F0"/>
<path d="M37.2445 76.5031H35.1686C34.5001 76.5031 33.9575 75.9617 33.9575 75.2919C33.9575 74.6222 34.5001 74.0808 35.1686 74.0808H37.2445C37.9131 74.0808 38.4556 74.6222 38.4556 75.2919C38.4556 75.9617 37.9131 76.5031 37.2445 76.5031Z" fill="#A7B9F0"/>
<path d="M44.7111 76.5031H42.6352C41.9667 76.5031 41.4241 75.9617 41.4241 75.2919C41.4241 74.6222 41.9667 74.0808 42.6352 74.0808H44.7111C45.3796 74.0808 45.9222 74.6222 45.9222 75.2919C45.9222 75.9617 45.3796 76.5031 44.7111 76.5031Z" fill="#A7B9F0"/>
<path d="M75.7473 76.5031H59.3826C58.7129 76.5031 58.1715 75.9617 58.1715 75.2919C58.1715 74.6222 58.7129 74.0808 59.3826 74.0808H75.7486C76.4183 74.0808 76.9597 74.6222 76.9597 75.2919C76.9597 75.9617 76.4171 76.5031 75.7473 76.5031Z" fill="#A7B9F0"/>
</svg>
