<svg width="46" height="46" viewBox="0 0 46 46" fill="none" xmlns="http://www.w3.org/2000/svg">
<path fill-rule="evenodd" clip-rule="evenodd" d="M22.1 45.998C10.266 45.998 0 35.732 0 22.997C0 10.264 10.278 -0.00195312 22.1 -0.00195312C35.722 -0.00195312 46 10.264 46 22.997C46 35.732 35.734 45.998 22.1 45.998ZM22.1 3.07205C11.962 3.07205 3.075 11.96 3.075 22.997C3.075 34.036 11.962 42.922 22.1 42.922C34.038 42.922 42.925 34.036 42.925 22.997C42.925 11.96 34.038 3.07205 22.1 3.07205ZM21.164 31.277C20.86 31.58 20.544 31.732 20.088 31.732C19.621 31.732 19.317 31.58 19.013 31.277L11.962 24.225C11.354 23.605 11.354 22.682 11.962 22.074C12.582 21.466 13.505 21.466 14.113 22.074L20.089 28.049L31.887 16.251C32.506 15.643 33.43 15.643 34.038 16.251C34.646 16.871 34.646 17.795 34.038 18.402L21.164 31.277Z" fill="white"/>
</svg>
