<svg width="398" height="85" viewBox="0 0 398 85" fill="none" xmlns="http://www.w3.org/2000/svg">
<g clip-path="url(#clip0_1691_12074)">
<path d="M18.4965 64.5373L15.372 71.8979L14.8428 79.1474H22.0922L23.5035 78.3524L27.5898 78.4949L27.6526 80.4281H35.2476L35.7937 78.4949H41.5305C41.5305 78.4949 39.9235 64.3609 37.1808 62.4712C26.7682 69.5467 18.4941 64.5445 18.4941 64.5445" fill="white"/>
<path d="M37.3215 72.7896L37.7444 78.1759H35.7314L37.3215 72.7896Z" fill="#2494D1"/>
<path d="M17.4189 66.5672C17.4189 66.5672 23.7211 70.3321 31.2775 66.5672C37.3187 63.5636 18.4967 64.5374 18.4967 64.5374L17.4189 66.5672Z" fill="#2494D1"/>
<path d="M41.5766 81.4745H35.417L35.7915 78.4854H41.5307C41.5307 78.4854 41.5911 80.5007 41.5815 81.4745" fill="#EB2126"/>
<path d="M41.5766 82.4387H35.4169C35.2796 82.4396 35.1437 82.4114 35.0181 82.3557C34.8926 82.3 34.7804 82.2183 34.6889 82.1159C34.5975 82.0134 34.5289 81.8927 34.4878 81.7617C34.4466 81.6307 34.4339 81.4924 34.4503 81.3561L34.8322 78.3766C34.8617 78.1417 34.9765 77.9258 35.1547 77.7699C35.3328 77.614 35.562 77.5289 35.7987 77.5308H41.5306C41.7817 77.5307 42.0229 77.6282 42.2033 77.8027C42.3837 77.9772 42.4891 78.2151 42.4972 78.466C42.4972 78.466 42.5577 80.5079 42.548 81.4938C42.5423 81.7472 42.4373 81.9882 42.2556 82.165C42.0739 82.3417 41.83 82.44 41.5766 82.4387ZM36.5019 80.5055H40.61C40.61 80.1454 40.5955 79.7805 40.5882 79.4471H36.6445L36.5019 80.5055Z" fill="#144A8F"/>
<path d="M39.4766 63.2033C39.4766 63.2033 43.7417 57.5657 50.4329 59.1364C57.1242 60.7071 58.8713 56.7393 58.8713 56.7393C58.8713 56.7393 55.5462 68.9087 47.0305 65.5522C47.0305 65.5522 48.3378 66.6493 49.5437 67.7053C46.9894 69.5394 44.672 70.6292 40.0879 67.8696" fill="#2494D1"/>
<path d="M39.3096 63.5849C39.3096 63.5849 43.2219 57.836 48.7 59.1168C54.1782 60.3975 57.4791 59.0443 57.4791 59.0443C57.4791 59.0443 53.6659 66.8544 47.5715 63.2442C46.5107 62.4854 45.0898 62.6545 44.3963 63.6211C43.7027 64.5877 44 65.9893 45.0608 66.7481C43.4563 67.3981 41.3201 66.5693 40.1747 65.8056" fill="white"/>
<path d="M20.2657 65.3541C20.2657 65.3541 20.935 63.6311 18.4992 64.5373C16.0634 65.4435 14.4902 79.1788 14.4902 79.1788H15.5825C16.1818 79.1788 17.3852 79.0652 17.3441 78.4684C17.3441 78.4684 17.419 74.4087 17.7018 72.1444C18.2672 70.0638 20.2657 65.3541 20.2657 65.3541Z" fill="#2494D1"/>
<path d="M49.5648 32.8932C49.5648 46.0123 39.1087 66.5694 26.2119 66.5694C13.3151 66.5694 2.86621 46.0123 2.86621 32.8932C2.86621 19.774 13.3224 14.5278 26.2192 14.5278C39.116 14.5278 49.5721 19.7837 49.5721 32.8932" fill="white"/>
<path d="M26.2127 67.5338C12.7891 67.5338 1.90039 46.5732 1.90039 32.8934C1.90039 20.6032 10.7641 13.5615 26.2199 13.5615C41.6758 13.5615 50.5371 20.6128 50.5371 32.8934C50.5298 46.5732 39.6363 67.5338 26.2127 67.5338ZM26.2127 15.4826C19.4803 15.4826 3.82392 17.1742 3.82392 32.8934C3.82392 45.5123 14.0698 65.6055 26.2127 65.6055C38.3555 65.6055 48.6014 45.5123 48.6014 32.8934C48.6014 17.179 32.9426 15.4826 26.2127 15.4826Z" fill="#144A8F"/>
<path d="M6.20602 30.7063C6.20602 30.7063 3.91035 31.0736 2.78185 30.6048C1.2643 29.9741 3.72912 28.0796 3.72912 28.0796L6.20602 30.7063Z" fill="#2494D1"/>
<path d="M31.8281 28.2584C31.8281 31.1823 29.8949 32.1586 26.2702 33.536C22.1621 33.536 13.876 31.1823 13.876 28.2584C13.876 25.3344 22.9233 22.9614 27.0314 22.9614C31.1394 22.9614 31.8208 25.332 31.8208 28.2584" fill="#2494D1"/>
<path d="M29.7377 54.5884C29.7377 54.5884 28.4618 49.2721 32.4586 47.4863C31.7023 49.5307 30.1436 53.9673 31.1199 55.5332C32.0962 57.0991 29.7377 54.5884 29.7377 54.5884Z" fill="#2494D1"/>
<path d="M26.2127 67.5338C12.7891 67.5338 1.90039 46.5732 1.90039 32.8934C1.90039 20.6032 10.7641 13.5615 26.2199 13.5615C41.6758 13.5615 50.5371 20.6128 50.5371 32.8934C50.5298 46.5732 39.6363 67.5338 26.2127 67.5338ZM26.2127 15.4826C19.4803 15.4826 3.82392 17.1742 3.82392 32.8934C3.82392 45.5123 14.0698 65.6055 26.2127 65.6055C38.3555 65.6055 48.6014 45.5123 48.6014 32.8934C48.6014 17.179 32.9426 15.4826 26.2127 15.4826Z" fill="#144A8F"/>
<path d="M18.7383 37.4844C18.7383 37.4844 20.0432 43.0423 28.7667 43.876C29.3515 43.9315 29.6971 43.2138 29.3829 42.7185C28.9721 42.0684 27.6624 41.0148 27.643 40.1522C29.5762 40.3769 32.7177 41.3145 34.3705 40.4204C34.4839 40.3582 34.5778 40.2656 34.6415 40.1531C34.7052 40.0405 34.7363 39.9124 34.7313 39.7832C34.7263 39.6539 34.6853 39.5287 34.6131 39.4214C34.5408 39.3141 34.4401 39.2291 34.3222 39.1759C33.2517 38.6926 33.3049 36.8899 32.8095 35.9668" fill="#2494D1"/>
<path d="M18.9971 35.7182C18.9971 35.7182 19.7486 41.844 30.6131 41.0538C29.9679 40.2177 29.2817 39.3212 29.2527 38.1033C31.4082 38.3449 34.1315 38.4102 35.5041 36.8032C34.2234 36.5785 32.788 35.595 32.1935 34.481" fill="white"/>
<path d="M28.7231 42.0906C18.9194 42.0906 18.0688 36.105 18.035 35.8367C18.0202 35.5918 18.0992 35.3504 18.2559 35.1615C18.4126 34.9726 18.6352 34.8504 18.8787 34.8196C19.1222 34.7889 19.3683 34.8519 19.567 34.9959C19.7657 35.1399 19.9022 35.3541 19.9488 35.5951C19.9802 35.8102 20.7293 40.1623 28.7255 40.1623H28.8367C28.4933 39.5376 28.3036 38.8401 28.2833 38.1276C28.2816 37.9914 28.3088 37.8565 28.3629 37.7315C28.417 37.6066 28.497 37.4945 28.5974 37.4026C28.6998 37.3104 28.8206 37.2412 28.9519 37.1995C29.0832 37.1578 29.2218 37.1447 29.3586 37.161C31.0985 37.364 32.4372 37.318 33.4038 37.0208C32.5472 36.5234 31.8351 35.8113 31.3377 34.9547C31.2471 34.7339 31.2414 34.4873 31.3217 34.2625C31.402 34.0377 31.5626 33.8506 31.7726 33.7372C31.9827 33.6238 32.2273 33.5921 32.4593 33.6482C32.6913 33.7044 32.8943 33.8444 33.0293 34.0413C33.4739 34.8726 34.6531 35.6942 35.656 35.8706C35.8229 35.9008 35.9789 35.9745 36.1083 36.0841C36.2378 36.1937 36.3361 36.3355 36.3934 36.4952C36.4507 36.6548 36.465 36.8268 36.4348 36.9937C36.4046 37.1606 36.331 37.3166 36.2214 37.4461C34.8416 39.0652 32.517 39.3044 30.4919 39.1981C30.7406 39.6524 31.0319 40.082 31.3619 40.4812C31.4677 40.6194 31.5342 40.7836 31.5545 40.9565C31.5747 41.1293 31.5479 41.3045 31.4768 41.4633C31.4058 41.6222 31.2932 41.759 31.1509 41.8592C31.0086 41.9594 30.8419 42.0193 30.6684 42.0326C29.9901 42.0729 29.3417 42.0922 28.7231 42.0906Z" fill="#144A8F"/>
<path d="M33.4259 27.1833C33.4259 29.0923 30.1975 32.6035 26.2127 32.6035C22.2279 32.6035 18.9971 29.0923 18.9971 27.1833C18.9971 25.2743 21.8848 0.966797 25.872 0.966797C29.8592 0.966797 33.4259 25.2767 33.4259 27.1833Z" fill="white"/>
<path d="M26.212 33.5699C21.7754 33.5699 18.0322 29.6479 18.0322 27.1831C18.0322 26.9052 20.4705 0 25.8713 0C31.3374 0 34.3918 26.9124 34.3918 27.1831C34.3918 29.6479 30.656 33.5699 26.212 33.5699ZM25.8713 1.93077C23.3944 1.93077 19.963 23.3844 19.963 27.1831C19.963 28.4759 22.667 31.6391 26.212 31.6391C29.757 31.6391 32.4611 28.4759 32.4611 27.1831C32.4611 26.3228 31.5718 19.8031 30.1992 13.5686C27.7054 2.257 25.8882 1.93077 25.8713 1.93077Z" fill="#144A8F"/>
<path d="M30.5474 61.3788C30.6489 61.8911 29.808 61.3522 28.938 61.5237C28.0681 61.6953 27.4881 62.5145 27.3963 62.007C27.3045 61.4996 27.8168 60.4291 28.6867 60.2551C29.5567 60.0811 30.4459 60.8689 30.5474 61.3836" fill="#144A8F"/>
<path d="M21.9566 61.3788C21.8551 61.8911 22.696 61.3522 23.566 61.5237C24.4359 61.6953 25.0159 62.5145 25.1077 62.007C25.1995 61.4996 24.6872 60.4291 23.8173 60.2551C22.9473 60.0811 22.0581 60.8689 21.9566 61.3836" fill="#144A8F"/>
<path d="M12.7747 19.2979C12.7747 19.2979 7.07174 16.4755 1.79896 16.8138C-0.0738214 22.234 2.07202 27.6542 6.14864 29.7662" fill="white"/>
<path d="M6.13618 30.7331C5.98147 30.7324 5.82911 30.6952 5.69155 30.6244C1.01081 28.191 -1.05529 22.1183 0.885152 16.4976C0.947508 16.3179 1.06147 16.1607 1.21277 16.0455C1.36407 15.9303 1.54599 15.8623 1.73576 15.85C7.21635 15.4875 12.9603 18.3124 13.202 18.4332C13.4168 18.5549 13.577 18.7543 13.6495 18.9903C13.722 19.2264 13.7014 19.4812 13.592 19.7026C13.4825 19.9239 13.2925 20.095 13.0609 20.1807C12.8293 20.2664 12.5737 20.2602 12.3466 20.1634C12.2958 20.1392 7.27193 17.6986 2.51387 17.7469C1.22829 22.2899 2.91259 27.0045 6.58082 28.9111C6.7716 29.0115 6.92336 29.1727 7.01197 29.3692C7.10058 29.5658 7.12095 29.7863 7.06984 29.9957C7.01874 30.2051 6.89909 30.3915 6.72991 30.5251C6.56074 30.6587 6.35175 30.7319 6.13618 30.7331Z" fill="#144A8F"/>
<path d="M3.65169 20.4316C3.52362 21.2387 3.68794 24.617 6.69405 26.9827C6.71796 27.0082 6.75014 27.0244 6.78485 27.0283C6.81955 27.0323 6.85454 27.0237 6.88356 27.0043C6.91258 26.9849 6.93375 26.9557 6.9433 26.9221C6.95285 26.8885 6.95016 26.8526 6.9357 26.8208C6.74625 26.2976 6.62207 25.753 6.56598 25.1994C6.56359 25.1668 6.57041 25.1343 6.58565 25.1054C6.60089 25.0766 6.62394 25.0526 6.65216 25.0362C6.68039 25.0198 6.71266 25.0117 6.74527 25.0128C6.77789 25.0139 6.80955 25.0241 6.83662 25.0423C7.1121 25.2284 7.45041 25.3589 8.10528 25.2211C8.15415 25.2106 8.19986 25.1886 8.23871 25.1572C8.27755 25.1257 8.30846 25.0855 8.32892 25.0399C8.34938 24.9943 8.35883 24.9445 8.3565 24.8945C8.35417 24.8446 8.34013 24.7959 8.31551 24.7523C8.16792 24.533 8.06526 24.2866 8.01345 24.0274C8.00701 23.9834 8.01036 23.9385 8.02325 23.896C8.03614 23.8535 8.05827 23.8143 8.08804 23.7813C8.11781 23.7483 8.15451 23.7222 8.1955 23.7051C8.23649 23.6879 8.28077 23.6799 8.32518 23.6818C9.4706 23.7229 10.3647 23.8655 11.08 23.3532" fill="#2494D1"/>
<path d="M10.6674 22.628C8.68977 21.7027 6.60065 21.0375 4.45215 20.6489L10.6674 22.628Z" fill="white"/>
<path d="M10.6667 23.5921C10.5186 23.5913 10.3725 23.5574 10.239 23.4931C8.34514 22.61 6.34562 21.9741 4.2896 21.6009C4.04566 21.549 3.83125 21.4047 3.69119 21.1983C3.55114 20.9919 3.49628 20.7394 3.5381 20.4935C3.57991 20.2476 3.71516 20.0274 3.91556 19.8789C4.11596 19.7304 4.366 19.6652 4.61341 19.6967C6.85484 20.099 9.03378 20.7936 11.0944 21.7628C11.2878 21.8606 11.4428 22.0204 11.5344 22.2168C11.6261 22.4132 11.6491 22.6346 11.5997 22.8456C11.5504 23.0566 11.4316 23.2449 11.2624 23.3803C11.0932 23.5157 10.8834 23.5903 10.6667 23.5921Z" fill="#144A8F"/>
<path d="M39.6484 19.2979C39.6484 19.2979 45.3538 16.4755 50.6266 16.8138C52.4993 22.234 50.3535 27.6542 46.2769 29.7662" fill="white"/>
<path d="M46.2889 30.7331C46.0731 30.7325 45.8637 30.6596 45.6941 30.5262C45.5246 30.3928 45.4045 30.2065 45.3531 29.9969C45.3017 29.7873 45.3218 29.5666 45.4104 29.3698C45.499 29.1731 45.6508 29.0116 45.8418 28.9111C49.5052 27.0045 51.1967 22.2899 49.9112 17.7518C45.1241 17.6744 40.1292 20.1393 40.0809 20.1634C39.8537 20.2602 39.5981 20.2664 39.3665 20.1807C39.1349 20.095 38.9449 19.924 38.8355 19.7026C38.726 19.4812 38.7055 19.2264 38.778 18.9903C38.8505 18.7543 39.0106 18.5549 39.2255 18.4332C39.4671 18.3148 45.2256 15.4996 50.6941 15.85C50.8839 15.8623 51.0658 15.9303 51.2171 16.0455C51.3684 16.1607 51.4824 16.318 51.5447 16.4976C53.4779 22.1184 51.4191 28.191 46.7359 30.6244C46.5978 30.6961 46.4444 30.7334 46.2889 30.7331Z" fill="#144A8F"/>
<path d="M48.7799 20.4316C48.9079 21.2387 48.7436 24.617 45.7375 26.9827C45.7136 27.0082 45.6814 27.0244 45.6467 27.0283C45.612 27.0323 45.577 27.0237 45.548 27.0043C45.519 26.9849 45.4978 26.9557 45.4882 26.9221C45.4787 26.8885 45.4814 26.8526 45.4958 26.8208C45.6842 26.2973 45.8083 25.7528 45.8656 25.1994C45.868 25.1668 45.8611 25.1343 45.8459 25.1054C45.8307 25.0766 45.8076 25.0526 45.7794 25.0362C45.7512 25.0198 45.7189 25.0117 45.6863 25.0128C45.6537 25.0139 45.622 25.0241 45.5949 25.0423C45.3194 25.2284 44.9811 25.3589 44.3263 25.2211C44.2774 25.2106 44.2317 25.1886 44.1928 25.1572C44.154 25.1257 44.1231 25.0855 44.1026 25.0399C44.0822 24.9943 44.0727 24.9445 44.075 24.8945C44.0774 24.8446 44.0914 24.7959 44.116 24.7523C44.2626 24.5325 44.3652 24.2863 44.4181 24.0274C44.4245 23.9834 44.4212 23.9385 44.4083 23.896C44.3954 23.8535 44.3733 23.8143 44.3435 23.7813C44.3137 23.7483 44.277 23.7222 44.236 23.7051C44.1951 23.6879 44.1508 23.6799 44.1064 23.6818C42.9609 23.7229 42.0668 23.8655 41.3516 23.3532" fill="#2494D1"/>
<path d="M41.7549 22.628C43.7332 21.7025 45.8232 21.0372 47.9725 20.6489L41.7549 22.628Z" fill="white"/>
<path d="M41.7577 23.5921C41.5408 23.5908 41.3306 23.5166 41.161 23.3814C40.9914 23.2462 40.8722 23.0579 40.8225 22.8468C40.7729 22.6357 40.7957 22.414 40.8873 22.2174C40.9789 22.0208 41.1339 21.8607 41.3275 21.7628C43.3897 20.7931 45.5703 20.0985 47.8134 19.6967C48.0608 19.6652 48.3108 19.7304 48.5112 19.8789C48.7116 20.0274 48.8469 20.2476 48.8887 20.4935C48.9305 20.7394 48.8757 20.9919 48.7356 21.1983C48.5955 21.4047 48.3811 21.549 48.1372 21.6009C46.0805 21.9743 44.0802 22.6102 42.1854 23.4931C42.052 23.5575 41.9058 23.5913 41.7577 23.5921Z" fill="#144A8F"/>
<path d="M45.3175 52.8243C42.8599 58.1406 38.0221 61.1322 34.511 59.5107C30.9998 57.8893 30.1468 52.2612 32.6019 46.945C35.0571 41.6287 39.8973 38.6347 43.4085 40.2585C46.9196 41.8824 47.7751 47.508 45.3175 52.8243Z" fill="white"/>
<path d="M36.5698 60.9195C35.7198 60.9234 34.8793 60.7411 34.1074 60.3854C32.1041 59.4599 30.775 57.4615 30.3642 54.7574C29.9752 52.2008 30.4609 49.2817 31.7271 46.5414C34.4046 40.7418 39.8296 37.5423 43.8096 39.3837C47.7895 41.2251 48.8649 47.4379 46.1898 53.2278C44.9211 55.9681 43.0121 58.2275 40.8131 59.588C39.3898 60.4724 37.9399 60.9195 36.5698 60.9195ZM41.3786 40.7901C38.6069 40.7901 35.2963 43.4193 33.4791 47.3509C32.3699 49.7529 31.9398 52.2805 32.2708 54.4674C32.5801 56.5094 33.5202 57.9907 34.9145 58.6335C36.3088 59.2763 38.0559 59.0346 39.8006 57.9472C41.6806 56.7824 43.3287 54.8203 44.4379 52.4183C46.6296 47.6771 45.9723 42.5107 43.0025 41.1357C42.4928 40.9037 41.9386 40.7857 41.3786 40.7901Z" fill="#144A8F"/>
<path d="M40.3799 49.8741C40.3804 50.6976 40.1367 51.5027 39.6796 52.1877C39.2225 52.8726 38.5725 53.4067 37.8119 53.7222C37.0513 54.0378 36.2142 54.1208 35.4064 53.9606C34.5987 53.8004 33.8566 53.4043 33.2739 52.8223C32.6913 52.2404 32.2943 51.4987 32.1332 50.6911C31.9721 49.8836 32.0541 49.0464 32.3687 48.2854C32.6834 47.5244 33.2167 46.8738 33.9012 46.4159C34.5856 45.958 35.3904 45.7134 36.2139 45.7129C37.3176 45.7135 38.3759 46.1521 39.1565 46.9322C39.9371 47.7124 40.3762 48.7704 40.3775 49.8741" fill="#144A8F"/>
<path d="M7.10773 52.8245C9.56289 58.1408 14.4007 61.1324 17.9119 59.511C21.423 57.8895 22.2785 52.2615 19.8209 46.9452C17.3633 41.6289 12.5328 38.6373 9.01434 40.2612C5.49594 41.8851 4.65016 47.5107 7.10773 52.827" fill="white"/>
<path d="M15.8528 60.9195C14.4826 60.9195 13.0327 60.4725 11.607 59.588C9.40798 58.2275 7.49896 55.9633 6.2303 53.2278C3.55525 47.4283 4.62092 41.2275 8.61054 39.3838C12.6002 37.54 18.0204 40.7515 20.693 46.5414C21.9592 49.2817 22.4425 52.2008 22.0535 54.7575C21.6427 57.4615 20.3136 59.46 18.3127 60.3855C17.5415 60.7407 16.7019 60.923 15.8528 60.9195ZM11.0464 40.7902C10.4855 40.7852 9.93042 40.9031 9.42007 41.1357C6.4502 42.5107 5.79533 47.6772 7.98226 52.4183C9.09142 54.8203 10.7395 56.7825 12.6219 57.9472C14.3787 59.0443 16.1137 59.286 17.5081 58.6335C18.9024 57.9811 19.84 56.5094 20.1517 54.4675C20.4828 52.2806 20.055 49.7529 18.9434 47.3509C17.1238 43.4193 13.8181 40.7902 11.0464 40.7902Z" fill="#144A8F"/>
<path d="M7.10773 52.8245C9.56289 58.1408 14.4007 61.1324 17.9119 59.511C21.423 57.8895 22.2785 52.2615 19.8209 46.9452C17.3633 41.6289 12.5328 38.6373 9.01434 40.2612C5.49594 41.8851 4.65016 47.5107 7.10773 52.827" fill="white"/>
<path d="M15.8528 60.9195C14.4826 60.9195 13.0327 60.4725 11.607 59.588C9.40798 58.2275 7.49896 55.9633 6.2303 53.2278C3.55525 47.4283 4.62092 41.2275 8.61054 39.3838C12.6002 37.54 18.0204 40.7515 20.693 46.5414C21.9592 49.2817 22.4425 52.2008 22.0535 54.7575C21.6427 57.4615 20.3136 59.46 18.3127 60.3855C17.5415 60.7407 16.7019 60.923 15.8528 60.9195ZM11.0464 40.7902C10.4855 40.7852 9.93042 40.9031 9.42007 41.1357C6.4502 42.5107 5.79533 47.6772 7.98226 52.4183C9.09142 54.8203 10.7395 56.7825 12.6219 57.9472C14.3787 59.0443 16.1137 59.286 17.5081 58.6335C18.9024 57.9811 19.84 56.5094 20.1517 54.4675C20.4828 52.2806 20.055 49.7529 18.9434 47.3509C17.1238 43.4193 13.8181 40.7902 11.0464 40.7902Z" fill="#144A8F"/>
<path d="M12.0498 49.8741C12.0493 50.6977 12.2931 51.5029 12.7503 52.1879C13.2075 52.8729 13.8576 53.407 14.6184 53.7225C15.3792 54.038 16.2164 54.1208 17.0242 53.9604C17.832 53.8 18.5741 53.4037 19.1567 52.8215C19.7392 52.2393 20.136 51.4974 20.2968 50.6897C20.4577 49.8819 20.3754 49.0447 20.0603 48.2837C19.7453 47.5228 19.2116 46.8724 18.5268 46.4148C17.8421 45.9571 17.037 45.7129 16.2134 45.7129C15.1096 45.7129 14.0509 46.1512 13.2702 46.9315C12.4894 47.7118 12.0504 48.7702 12.0498 49.8741Z" fill="#144A8F"/>
<path d="M20.3888 49.8741C20.3892 50.6978 20.1454 51.5031 19.6881 52.1882C19.2307 52.8732 18.5805 53.4073 17.8196 53.7227C17.0587 54.0381 16.2213 54.1208 15.4135 53.9602C14.6056 53.7996 13.8635 53.4031 13.281 52.8206C12.6986 52.2382 12.302 51.4961 12.1414 50.6882C11.9808 49.8803 12.0635 49.0429 12.3789 48.282C12.6944 47.5211 13.2284 46.8709 13.9135 46.4136C14.5985 45.9563 15.4039 45.7124 16.2276 45.7129C17.331 45.7135 18.389 46.1521 19.1693 46.9324C19.9495 47.7126 20.3881 48.7707 20.3888 49.8741Z" fill="#144A8F"/>
<path d="M20.3642 47.687C20.3642 48.1649 20.2225 48.6321 19.957 49.0295C19.6915 49.4269 19.314 49.7367 18.8725 49.9195C18.4309 50.1024 17.9451 50.1503 17.4763 50.0571C17.0076 49.9638 16.577 49.7337 16.239 49.3957C15.9011 49.0578 15.6709 48.6272 15.5777 48.1584C15.4844 47.6897 15.5323 47.2038 15.7152 46.7623C15.8981 46.3207 16.2078 45.9433 16.6052 45.6778C17.0026 45.4122 17.4698 45.2705 17.9477 45.2705C18.5886 45.2705 19.2033 45.5251 19.6565 45.9783C20.1096 46.4315 20.3642 47.0461 20.3642 47.687Z" fill="white"/>
<path d="M21.1695 59.1433C20.5662 59.8919 20.2654 60.8394 20.3262 61.7989C20.387 62.7584 20.8052 63.6603 21.4981 64.3267C22.513 65.2933 24.7338 65.866 25.872 65.9651C25.872 65.9651 17.5737 65.4189 14.7803 61.3254C15.9885 60.0785 19.13 58.3821 20.0676 57.186C21.0052 55.9898 22.9939 53.6651 24.3182 54.8299" fill="#2494D1"/>
<path d="M22.9986 54.5209C22.9986 54.5209 24.5838 45.4929 17.6992 42.9097C19.1829 46.2517 22.2543 53.5205 20.7827 56.2463C19.311 58.9721 22.9986 54.5209 22.9986 54.5209Z" fill="#2494D1"/>
<path d="M26.2078 67.5334C21.5802 67.5334 16.926 65.0565 12.7455 60.3733C12.6729 60.2898 12.6142 60.1951 12.5715 60.093C10.0874 58.8993 7.73854 56.4683 6.23065 53.2302C3.55559 47.4306 4.62368 41.2275 8.61089 39.3837C10.6117 38.4582 12.9968 38.7409 15.3215 40.1812C17.5229 41.5416 19.4295 43.8059 20.6982 46.5414C21.9402 49.2309 22.3752 52.0123 22.0852 54.4046C23.2335 53.3369 24.7508 52.7558 26.3184 52.7833C27.8861 52.8108 29.3821 53.4447 30.4922 54.552L33.9284 57.9689C34.091 58.153 34.1774 58.392 34.1701 58.6374C34.1628 58.8829 34.0624 59.1163 33.8892 59.2904C33.716 59.4645 33.4831 59.5661 33.2377 59.5747C32.9923 59.5833 32.7529 59.4982 32.568 59.3367L29.1293 55.9173C28.3552 55.1457 27.3068 54.7124 26.2138 54.7124C25.1208 54.7124 24.0724 55.1457 23.2983 55.9173L19.937 59.2642C19.9065 59.2935 19.8742 59.321 19.8403 59.3463C19.3939 59.7752 18.8795 60.1272 18.3179 60.3878C17.5782 60.7257 16.7751 60.9028 15.9618 60.9074C18.5692 63.3239 22.1021 65.605 26.2078 65.605C26.4641 65.605 26.71 65.7069 26.8912 65.8881C27.0725 66.0694 27.1744 66.3153 27.1744 66.5716C27.1744 66.828 27.0725 67.0738 26.8912 67.2551C26.71 67.4364 26.4641 67.5382 26.2078 67.5382V67.5334ZM7.9826 52.4183C10.213 57.2512 14.4805 60.0326 17.5084 58.6335C20.4783 57.2609 21.1331 52.0944 18.9583 47.3509C17.8491 44.9513 16.2011 42.9867 14.3186 41.822C12.5618 40.7345 10.8268 40.4929 9.43249 41.1357C6.46263 42.5082 5.80776 47.6771 7.99468 52.4183H7.9826Z" fill="#144A8F"/>
<path d="M45.0075 70.2616C43.5576 70.2616 42.0352 69.8702 40.4162 69.092C40.196 68.9751 40.0296 68.7775 39.9516 68.5407C39.8737 68.3039 39.8902 68.0461 39.9978 67.8213C40.1054 67.5964 40.2958 67.4217 40.5291 67.3339C40.7624 67.246 41.0207 67.2517 41.2499 67.3498C44.3116 68.8142 46.3728 68.4323 47.9532 67.5914C47.1195 66.8665 46.4333 66.2986 46.4308 66.2986C46.2594 66.1506 46.1454 65.9471 46.1087 65.7236C46.0719 65.5001 46.1149 65.2708 46.23 65.0758C46.345 64.8807 46.525 64.7322 46.7383 64.6563C46.9517 64.5803 47.185 64.5817 47.3974 64.6602C49.2074 65.3852 50.8216 65.3562 52.3295 64.6022C54.2361 63.6501 55.6183 61.6879 56.5366 59.9311C55.0867 60.499 53.0351 60.7431 50.2126 60.0834C44.2415 58.6818 40.4065 63.5873 40.247 63.7975C40.0885 63.9908 39.8613 64.115 39.6131 64.1443C39.3649 64.1736 39.1149 64.1056 38.9158 63.9546C38.7166 63.8036 38.5837 63.5813 38.5449 63.3344C38.5061 63.0875 38.5645 62.8352 38.7077 62.6304C38.8986 62.3887 43.4344 56.5118 50.6549 58.2034C56.4085 59.5518 57.9309 56.4756 57.9937 56.3451C58.0959 56.1255 58.2767 55.9523 58.5004 55.8596C58.7242 55.767 58.9745 55.7617 59.202 55.8449C59.4277 55.9282 59.6143 56.0928 59.7251 56.3065C59.836 56.5201 59.8631 56.7674 59.8013 56.9999C59.7239 57.2851 57.8439 64.0078 53.1946 66.3252C52.2927 66.7832 51.3049 67.0474 50.2948 67.1009C50.378 67.203 50.4394 67.321 50.4754 67.4477C50.5113 67.5744 50.521 67.7071 50.5038 67.8376C50.4866 67.9682 50.4429 68.0939 50.3754 68.2069C50.3078 68.32 50.2179 68.4181 50.1112 68.4952C48.4679 69.6768 46.7909 70.2616 45.0075 70.2616Z" fill="#144A8F"/>
<path d="M22.7471 79.8384H14.8428V83.1103H22.7471V79.8384Z" fill="#EB2126"/>
<path d="M34.9918 81.3052H27.0898V84.5771H34.9918V81.3052Z" fill="#EB2126"/>
<path d="M30.91 85.0024C30.6536 85.0024 30.4077 84.9006 30.2265 84.7193C30.0452 84.5381 29.9434 84.2922 29.9434 84.0359V82.7019C29.9434 82.4456 30.0452 82.1997 30.2265 82.0185C30.4077 81.8372 30.6536 81.7354 30.91 81.7354C31.1663 81.7354 31.4122 81.8372 31.5935 82.0185C31.7747 82.1997 31.8766 82.4456 31.8766 82.7019V84.0359C31.8766 84.2922 31.7747 84.5381 31.5935 84.7193C31.4122 84.9006 31.1663 85.0024 30.91 85.0024Z" fill="#144A8F"/>
<path d="M14.9804 79.4832C14.9804 79.4832 16.0727 79.4832 16.9136 79.4349C17.1794 79.4228 17.3703 79.7804 17.2689 80.1091C16.8798 81.3801 17.2157 82.4072 16.9209 82.8035C16.5681 83.2698 14.5986 82.5473 14.5986 82.5473L14.9804 79.4832Z" fill="#A62126"/>
<path d="M26.9766 81.0853C26.9766 81.0853 28.0591 80.9427 28.888 80.7953C29.149 80.7494 29.3713 81.0804 29.323 81.4188C29.0982 82.7285 29.5646 83.7048 29.323 84.1349C29.0306 84.6448 26.9862 84.1736 26.9862 84.1736L26.9766 81.0853Z" fill="#A62126"/>
<path d="M22.6052 25.9625C22.6052 25.9625 26.6504 29.3649 29.4173 28.6207C31.0895 28.1688 29.323 31.7621 22.8396 30.8607C16.0927 29.9183 19.5894 23.0386 19.5894 23.0386L22.6052 25.9625Z" fill="#EB2126"/>
<path d="M23.4914 18.9141C23.9554 20.0112 27.481 21.6689 29.9338 21.5287C30.0959 21.5172 30.2571 21.5605 30.3917 21.6517C30.5262 21.7428 30.6262 21.8766 30.6756 22.0314C31.2628 23.9307 31.2822 26.1176 30.7892 26.9972C30.3059 27.8382 19.5429 25.8567 19.4969 21.3185C19.451 16.7803 21.2682 16.6909 21.2682 16.6909L23.4914 18.9141Z" fill="#EB2126"/>
<path d="M23.5616 11.3287C23.9265 12.3751 26.6837 14.0376 28.5396 14.2044C28.7579 14.225 28.9654 14.3086 29.137 14.445C29.3086 14.5814 29.4369 14.7648 29.5062 14.9728C29.9895 16.3937 30.1321 17.9282 30.3616 19.3007C30.5066 20.161 20.3187 18.2713 20.28 13.7428C20.2414 9.21431 21.7299 9.11523 21.7299 9.11523L23.5616 11.3287Z" fill="#EB2126"/>
<path d="M29.6174 27.908C26.5363 27.908 23.7719 26.6152 22.7594 26.0811C20.8818 25.0856 18.8157 23.4979 18.6054 22.0239C18.5832 21.776 18.6574 21.5291 18.8127 21.3346C18.9679 21.1401 19.1921 21.013 19.4387 20.9796C19.6854 20.9463 19.9353 21.0094 20.1366 21.1557C20.3379 21.3021 20.4749 21.5204 20.5193 21.7653C20.5845 22.1447 21.6816 23.3771 23.9193 24.5056C25.142 25.1218 29.4023 26.997 32.8989 25.2475C33.013 25.182 33.1392 25.1404 33.2699 25.1254C33.4006 25.1104 33.5329 25.1222 33.6589 25.1601C33.7848 25.198 33.9017 25.2612 34.0024 25.3459C34.1031 25.4306 34.1854 25.5349 34.2443 25.6524C34.3033 25.77 34.3376 25.8984 34.3453 26.0297C34.3529 26.161 34.3336 26.2925 34.2887 26.4161C34.2437 26.5397 34.174 26.6528 34.0838 26.7486C33.9936 26.8443 33.8848 26.9206 33.7641 26.9728C32.474 27.6046 31.0537 27.9249 29.6174 27.908ZM29.0543 20.6585C27.009 20.6165 25.0043 20.0801 23.2113 19.0951C21.5825 18.2324 19.7823 16.8477 19.6059 15.5477C19.5808 15.2987 19.6533 15.0497 19.8081 14.8531C19.9629 14.6565 20.1879 14.5275 20.4358 14.4934C20.6837 14.4593 20.9352 14.5226 21.1373 14.6701C21.3395 14.8176 21.4766 15.0378 21.5197 15.2843C21.6091 15.6081 22.6627 16.7583 24.7771 17.7225C26.0168 18.288 29.1848 19.46 31.8212 18.1357C32.0478 18.0377 32.3033 18.0301 32.5354 18.1145C32.7674 18.1989 32.9584 18.3689 33.069 18.5896C33.1797 18.8104 33.2017 19.0651 33.1305 19.3015C33.0594 19.5379 32.9004 19.7382 32.6863 19.8611C31.5542 20.406 30.3105 20.679 29.0543 20.6585Z" fill="#144A8F"/>
<path d="M28.5467 9.96072C28.5945 10.1585 28.5642 10.3672 28.462 10.5432C28.3598 10.7192 28.1937 10.849 27.9982 10.9056C27.2475 11.168 26.4611 11.3139 25.6662 11.3381C22.9235 11.4034 21.8047 8.07345 21.8047 8.07345C21.8047 8.07345 22.8752 1.68183 25.282 1.74708C26.0988 1.76883 27.9281 7.38716 28.5467 9.96314" fill="#EB2126"/>
<path d="M26.213 33.5699C21.7763 33.5699 18.0332 29.6479 18.0332 27.1831C18.0332 27.0188 18.9466 16.8816 20.8895 9.03767C20.8991 8.94964 20.921 8.8634 20.9547 8.78152C22.1823 3.91713 23.811 0 25.8723 0C31.3384 0 34.3928 26.9124 34.3928 27.1831C34.3928 29.6479 30.6569 33.5699 26.213 33.5699ZM22.378 11.2681C21.0176 17.551 19.9616 25.0807 19.9616 27.1831C19.9616 28.4759 22.6656 31.6391 26.2106 31.6391C29.7556 31.6391 32.4596 28.4759 32.4596 27.1831C32.4596 26.3228 31.5704 19.8031 30.1978 13.5686C30.1688 13.4308 30.1374 13.2955 30.1084 13.1626C28.2235 13.6459 25.9399 13.3076 23.7675 12.1574C23.2813 11.8986 22.8167 11.6012 22.378 11.2681ZM22.8734 9.09325C23.1513 9.47022 24.1083 10.3015 25.6427 10.8984C26.5417 11.2512 28.1607 11.7151 29.671 11.2898C27.4551 2.20625 25.8868 1.93319 25.8723 1.93319C24.9299 1.93077 23.8497 5.03596 22.8734 9.09083V9.09325Z" fill="#144A8F"/>
<path d="M40.3535 47.687C40.3535 48.1649 40.2118 48.6321 39.9462 49.0295C39.6807 49.4269 39.3033 49.7367 38.8617 49.9195C38.4202 50.1024 37.9343 50.1503 37.4656 50.0571C36.9968 49.9638 36.5662 49.7337 36.2283 49.3957C35.8903 49.0578 35.6602 48.6272 35.5669 48.1584C35.4737 47.6897 35.5216 47.2038 35.7045 46.7623C35.8874 46.3207 36.1971 45.9433 36.5945 45.6778C36.9919 45.4122 37.4591 45.2705 37.937 45.2705C38.5779 45.2705 39.1925 45.5251 39.6457 45.9783C40.0989 46.4315 40.3535 47.0461 40.3535 47.687Z" fill="white"/>
<path d="M26.251 69.9188L26.3356 69.711C27.1837 69.5491 28.4258 70.1121 28.7665 70.9047L29.8516 74.0655C29.9978 74.493 30.0171 74.9538 29.9071 75.3921L28.653 80.4257L28.1818 74.6889L26.251 69.9188Z" fill="#2494D1"/>
<path d="M18.6103 83.9343C18.354 83.9343 18.1081 83.8325 17.9269 83.6512C17.7456 83.47 17.6437 83.2241 17.6437 82.9677V81.7812C17.6437 81.5249 17.7456 81.279 17.9269 81.0977C18.1081 80.9165 18.354 80.8146 18.6103 80.8146C18.8667 80.8146 19.1126 80.9165 19.2938 81.0977C19.4751 81.279 19.5769 81.5249 19.5769 81.7812V82.9677C19.5769 83.2241 19.4751 83.47 19.2938 83.6512C19.1126 83.8325 18.8667 83.9343 18.6103 83.9343ZM22.0901 80.1139H14.8406C14.5843 80.1139 14.3384 80.012 14.1571 79.8307C13.9759 79.6495 13.874 79.4036 13.874 79.1473C13.874 78.8909 13.9759 78.645 14.1571 78.4638C14.3384 78.2825 14.5843 78.1807 14.8406 78.1807H22.0901C22.3464 78.1807 22.5923 78.2825 22.7736 78.4638C22.9548 78.645 23.0567 78.8909 23.0567 79.1473C23.0567 79.4036 22.9548 79.6495 22.7736 79.8307C22.5923 80.012 22.3464 80.1139 22.0901 80.1139Z" fill="#144A8F"/>
<path d="M34.5227 81.3848H27.6502C27.3938 81.3848 27.148 81.283 26.9667 81.1017C26.7854 80.9205 26.6836 80.6746 26.6836 80.4183C26.6836 80.1619 26.7854 79.916 26.9667 79.7348C27.148 79.5535 27.3938 79.4517 27.6502 79.4517H34.5227C34.7791 79.4517 35.0249 79.5535 35.2062 79.7348C35.3875 79.916 35.4893 80.1619 35.4893 80.4183C35.4893 80.6746 35.3875 80.9205 35.2062 81.1017C35.0249 81.283 34.7791 81.3848 34.5227 81.3848Z" fill="#144A8F"/>
<path d="M26.8556 71.1459C27.7424 72.0328 29.2866 74.4831 28.6486 75.1187C28.0107 75.7542 25.9905 75.1815 25.1109 74.2946C24.2313 73.4078 23.9389 72.2116 24.5768 71.5761C25.8841 72.115 25.9687 70.2591 26.8556 71.1459Z" fill="#2494D1"/>
<path d="M22.0036 84.0743H14.6284C14.4963 84.0745 14.3654 84.0476 14.2441 83.9952C14.1227 83.9428 14.0134 83.8661 13.9228 83.7698C13.8324 83.6731 13.7628 83.5589 13.7183 83.4342C13.6738 83.3095 13.6554 83.177 13.6643 83.0449L14.4085 71.8299C14.4154 71.7357 14.4357 71.6429 14.469 71.5545L17.4002 63.7419C17.4987 63.5142 17.6811 63.3331 17.9095 63.2361C18.1379 63.1391 18.3949 63.1336 18.6272 63.2209C18.8595 63.3082 19.0494 63.4815 19.1574 63.7049C19.2655 63.9283 19.2835 64.1847 19.2077 64.421L16.3272 72.0933L15.6603 82.1459H21.0587L21.1965 75.9114C21.2 75.7838 21.2287 75.6581 21.281 75.5417L22.9726 71.7647C23.02 71.6427 23.0917 71.5317 23.1833 71.4383C23.2749 71.3448 23.3845 71.271 23.5055 71.2212C23.6265 71.1714 23.7563 71.1466 23.8872 71.1485C24.018 71.1503 24.1471 71.1787 24.2666 71.2319C24.3861 71.2852 24.4936 71.3621 24.5825 71.4581C24.6715 71.554 24.74 71.6671 24.7839 71.7903C24.8279 71.9136 24.8463 72.0445 24.8382 72.175C24.8301 72.3056 24.7955 72.4332 24.7366 72.5501L23.1345 76.1482L22.9798 83.1319C22.9735 83.3857 22.8675 83.6268 22.6849 83.8032C22.5022 83.9795 22.2575 84.0769 22.0036 84.0743Z" fill="#144A8F"/>
<path d="M27.5858 78.4854H22.6006V81.4721H27.5858V78.4854Z" fill="#EB2126"/>
<path d="M27.5876 82.4385H22.6023C22.346 82.4385 22.1001 82.3367 21.9189 82.1554C21.7376 81.9741 21.6357 81.7283 21.6357 81.4719V78.4852C21.6357 78.2288 21.7376 77.9829 21.9189 77.8017C22.1001 77.6204 22.346 77.5186 22.6023 77.5186H27.5876C27.8439 77.5186 28.0898 77.6204 28.2711 77.8017C28.4523 77.9829 28.5542 78.2288 28.5542 78.4852V81.4744C28.5535 81.7303 28.4514 81.9755 28.2702 82.1563C28.089 82.337 27.8435 82.4385 27.5876 82.4385ZM23.5665 80.5053H26.621V79.4469H23.5665V80.5053Z" fill="#144A8F"/>
<path d="M34.6898 84.9998H27.3146C27.18 85.0004 27.0468 84.9728 26.9235 84.9189C26.8002 84.8649 26.6895 84.7859 26.5985 84.6867C26.5075 84.5875 26.4382 84.4704 26.3951 84.3429C26.3519 84.2154 26.3359 84.0803 26.348 83.9462L27.1914 74.8409L25.4999 71.0011C25.409 70.7683 25.4119 70.5093 25.5079 70.2786C25.6039 70.0478 25.7855 69.8632 26.0146 69.7635C26.2438 69.6638 26.5027 69.6567 26.7369 69.7437C26.9712 69.8307 27.1627 70.0051 27.2711 70.2302L29.0473 74.2972C29.1147 74.4488 29.1405 74.6156 29.1222 74.7805L28.3561 83.0811H33.8416L35.4341 72.6902C35.4481 72.5604 35.4882 72.4348 35.5521 72.321C35.616 72.2072 35.7023 72.1074 35.8058 72.0278C35.9093 71.9483 36.0278 71.8905 36.1542 71.8579C36.2807 71.8254 36.4124 71.8188 36.5414 71.8386C36.6704 71.8584 36.7941 71.9041 36.905 71.9729C37.0159 72.0418 37.1117 72.1324 37.1866 72.2393C37.2616 72.3463 37.314 72.4672 37.3409 72.595C37.3678 72.7227 37.3685 72.8546 37.3431 72.9826L36.2146 80.5172C36.2613 80.5148 36.308 80.5148 36.3547 80.5172H37.5847C37.6459 80.3202 37.7685 80.148 37.9346 80.0257C38.1007 79.9033 38.3015 79.8373 38.5078 79.8373C38.7141 79.8373 38.915 79.9033 39.0811 80.0257C39.2471 80.148 39.3697 80.3202 39.4309 80.5172H40.615C40.4362 66.3735 36.3499 62.5603 36.3064 62.5241C36.1154 62.3552 35.9989 62.1178 35.9822 61.8634C35.9654 61.6091 36.0498 61.3584 36.217 61.166C36.3828 60.9758 36.6163 60.8579 36.8678 60.8376C37.1193 60.8173 37.3688 60.8961 37.563 61.0573C37.766 61.2312 42.5506 65.4625 42.5506 81.4814C42.5506 81.7378 42.4488 81.9836 42.2675 82.1649C42.0862 82.3462 41.8404 82.448 41.584 82.448H36.3451C36.1997 82.4481 36.0561 82.4159 35.9246 82.3538L35.6443 84.1903C35.607 84.4165 35.4906 84.6221 35.3157 84.7704C35.1409 84.9187 34.919 85 34.6898 84.9998ZM24.8426 81.9695C24.5862 81.9695 24.3404 81.8677 24.1591 81.6864C23.9778 81.5052 23.876 81.2593 23.876 81.0029V80.7927C23.876 80.5364 23.9778 80.2905 24.1591 80.1092C24.3404 79.928 24.5862 79.8261 24.8426 79.8261C25.0989 79.8261 25.3448 79.928 25.5261 80.1092C25.7073 80.2905 25.8092 80.5364 25.8092 80.7927V81.0078C25.8079 81.2633 25.7055 81.5079 25.5244 81.6881C25.3432 81.8684 25.0981 81.9695 24.8426 81.9695Z" fill="#144A8F"/>
<path d="M91.3103 65.7478C91.2825 66.8462 91.4461 67.9411 91.7936 68.9835H92.4944C94.4276 68.9835 103.61 63.1597 103.61 50.4877C103.61 38.5212 94.9278 32.2649 89.2152 32.2649C82.5288 32.2649 76.6495 37.9799 76.6495 48.1703C76.6495 54.6948 79.6145 57.5946 81.0693 57.5946C82.4708 57.5946 82.3645 56.9494 82.7971 56.9494C83.928 56.9494 82.9034 58.7811 81.3472 58.7811C76.6568 58.7811 68.8926 56.4637 68.8926 46.544C68.8926 38.2941 75.1465 29.4521 86.2526 29.4521C99.2461 29.4521 109.492 39.4806 109.492 51.9255C109.492 64.0563 101.619 74.9474 95.9597 74.9474C93.9661 74.9474 91.8106 73.8696 90.3003 72.4656C89.005 72.4125 87.4971 71.9823 86.6344 71.1197C85.2305 69.6698 85.0686 65.9435 85.0686 63.6793C85.0686 56.1882 86.2019 43.6756 89.5439 43.6756C93.3185 43.6756 94.7732 45.401 94.7732 45.9954C94.7732 47.5057 91.3248 48.8952 91.3248 65.7285" fill="white"/>
<path d="M121.033 47.3075C118.931 47.74 116.925 51.6765 116.925 58.3605C116.925 58.7375 116.981 59.17 116.981 59.547C118.274 59.3851 121.572 56.205 121.572 50.3812C121.606 49.3305 121.422 48.2841 121.033 47.3075ZM129.174 58.1454C129.228 57.6621 129.443 57.4446 129.713 57.4446C130.305 57.4446 131.163 58.4692 131.163 59.6001C131.163 64.6748 127.442 71.569 122.051 71.569C115.096 71.569 112.075 65.3151 112.075 58.7375C112.075 49.1416 115.526 45.2051 120.11 45.2051C120.11 43.9123 121.077 43.6948 121.618 43.6948C124.639 43.6948 125.726 45.7996 125.726 50.0043C125.726 56.6351 121.197 61.7025 117.853 61.7025H117.37C118.126 64.2905 119.786 66.8254 123.085 66.8254C126.915 66.8254 128.747 62.4588 129.179 58.1454" fill="white"/>
<path d="M135.366 45.9059C137.468 36.4816 141.19 32.4268 146.313 32.4268C148.468 32.4268 150.409 33.6664 150.409 34.9617C150.409 38.3037 144.263 44.386 143.454 44.386C143.345 44.386 143.292 44.2796 143.292 44.1709C143.292 43.4169 146.743 39.4249 146.743 35.7132C146.743 35.2299 146.528 34.9592 146.098 34.9592C144.749 34.9592 141.89 37.0616 140.221 46.0123C143.94 45.8479 148.359 44.9345 148.63 44.9345C149.06 44.9345 149.386 45.3646 149.386 45.9567C149.386 47.0368 145.017 48.3732 139.735 48.9773C139.156 53.899 138.882 58.8518 138.916 63.8073C138.916 73.1881 140.747 73.7801 140.747 74.9666C140.747 75.4499 140.211 75.7762 139.401 75.7762C136.867 75.7762 133.469 73.9976 133.469 68.7128C133.469 60.8398 133.902 54.4241 134.709 49.3035H134.117C132.667 49.3035 131.313 46.9837 131.313 46.2829C131.313 45.744 132.067 44.6663 132.609 44.6663C132.67 44.6702 132.731 44.6866 132.786 44.7144C132.841 44.7422 132.89 44.7809 132.93 44.8282C133.309 45.2583 132.768 45.6909 135.347 45.9059" fill="white"/>
<path d="M155.556 47.3075C153.453 47.74 151.448 51.6765 151.448 58.3605C151.448 58.7375 151.503 59.17 151.503 59.547C152.796 59.3851 156.094 56.205 156.094 50.3812C156.128 49.3305 155.945 48.2841 155.556 47.3075ZM163.697 58.1454C163.752 57.6621 163.967 57.4446 164.236 57.4446C164.828 57.4446 165.686 58.4692 165.686 59.6001C165.686 64.6748 161.964 71.569 156.573 71.569C149.618 71.569 146.598 65.3151 146.598 58.7375C146.598 49.1416 150.048 45.2051 154.632 45.2051C154.632 43.9123 155.599 43.6948 156.143 43.6948C159.161 43.6948 160.239 45.7996 160.239 50.0043C160.246 56.6279 155.718 61.7025 152.375 61.7025H151.892C152.646 64.2905 154.309 66.8254 157.607 66.8254C161.435 66.8254 163.269 62.4588 163.699 58.1454" fill="white"/>
<path d="M177.338 59.7696C177.338 54.9173 178.787 49.6349 178.787 47.9627C178.787 47.6388 178.734 47.4238 178.572 47.4238C177.606 47.4238 173.935 54.2697 172.319 61.7101C172.263 65.6465 171.995 68.6647 171.995 68.6647C172.157 68.829 172.263 69.2592 172.263 69.6917C172.263 70.3925 171.995 71.1416 170.97 71.1416C168.921 71.1416 165.361 68.9861 165.361 66.3425C165.361 63.6988 166.811 62.1378 166.811 50.0602C166.811 47.1483 164.709 45.5317 164.709 44.884C164.709 44.1833 165.463 43.5356 166.055 43.5356C166.594 43.5356 167.674 43.5888 168.914 44.8309C170.91 46.8245 171.77 51.1911 172.149 55.6664C174.414 50.2752 177.379 44.7753 179.157 44.7753C183.956 44.7753 185.358 47.257 185.358 48.388C185.358 50.007 184.227 57.1767 184.227 62.7298C184.227 66.5575 184.766 69.6313 186.598 69.6313C189.401 69.6313 190.749 58.7958 190.911 57.2299C190.967 56.7466 191.182 56.5291 191.45 56.5291C192.044 56.5291 192.9 57.6093 192.9 58.6339V58.803C192.467 62.9111 191.551 73.36 185.513 73.36C180.564 73.3503 177.338 67.8504 177.338 59.7696Z" fill="white"/>
<path d="M207.06 57.4981C207.652 57.4981 208.571 58.5759 208.571 59.656V59.7696C208.3 64.9989 204.202 72.8718 197.409 73.0337H197.3C193.366 73.0337 190.94 70.0687 190.94 66.5623C190.94 65.5958 191.532 64.9989 191.856 64.9989C192.018 64.9989 192.124 65.1076 192.124 65.3783C192.124 66.8282 192.989 69.3679 194.768 69.3679C196.655 69.3679 198.003 67.4806 198.003 64.5132C198.003 61.0117 195.63 57.6141 193.634 54.7554L193.311 54.2721C193.042 58.3801 192.663 61.0141 192.663 61.0141C192.663 61.0141 192.663 61.2267 192.395 61.2267C191.747 61.1204 190.616 60.5815 190.616 59.8808V59.7696C190.616 59.7696 191.046 56.5895 191.317 51.0896C191.08 50.6598 190.95 50.1788 190.94 49.688C190.94 45.1595 195.899 43.4873 197.194 43.4873C198.489 43.4873 199.026 44.0262 199.026 45.2127C199.026 45.4833 198.542 46.723 198.542 48.3396C198.542 55.1348 204.202 56.5895 204.202 64.6751C204.202 65.4561 204.112 66.2346 203.933 66.9949C205.927 64.5784 206.35 61.0648 206.575 58.153C206.628 57.6697 206.79 57.5054 207.058 57.5054" fill="white"/>
<path d="M215.3 47.3075C213.198 47.74 211.192 51.6765 211.192 58.3605C211.192 58.7375 211.248 59.17 211.248 59.547C212.541 59.3851 215.839 56.205 215.839 50.3812C215.874 49.3304 215.69 48.2838 215.3 47.3075ZM223.441 58.1454C223.495 57.6621 223.712 57.4446 223.98 57.4446C224.575 57.4446 225.43 58.4692 225.43 59.6001C225.43 64.6748 221.709 71.569 216.318 71.569C209.363 71.569 206.345 65.3151 206.345 58.7375C206.345 49.1416 209.793 45.2051 214.377 45.2051C214.377 43.9123 215.344 43.6948 215.887 43.6948C218.906 43.6948 219.996 45.7996 219.996 50.0043C219.996 56.6351 215.465 61.7025 212.123 61.7025H211.639C212.393 64.2905 214.056 66.8254 217.354 66.8254C221.182 66.8254 223.016 62.4588 223.446 58.1454" fill="white"/>
<path d="M262.113 35.9549C262.113 39.9904 260.551 43.7553 259.046 47.3607C258.242 50.7451 257.827 54.2102 257.809 57.6888C257.809 74.6864 261.412 76.5157 263.241 76.5157C263.816 76.5006 264.382 76.3734 264.908 76.1411C264.962 76.1411 265.07 76.3006 265.07 76.3562C265.07 76.8395 264.319 77.8061 263.188 77.8061C257.594 77.8061 252.797 72.9103 252.212 61.2362C248.017 68.7684 243.716 74.9546 242.102 74.9546C239.733 74.9546 233.494 70.1216 233.494 64.6265C233.494 57.9014 237.15 36.2207 238.496 34.8771C238.714 34.6366 238.98 34.445 239.277 34.315C239.574 34.185 239.895 34.1196 240.219 34.1232C242.423 34.1232 244.951 36.8683 244.951 38.3206C244.962 38.4291 244.948 38.5387 244.911 38.6412C244.874 38.7437 244.814 38.8365 244.736 38.9127C242.744 40.8459 238.936 57.3626 238.936 65.4312C238.936 68.0676 239.366 69.7809 240.386 69.7809C243.129 69.7809 248.186 60.9583 252.437 52.1889C253.082 42.883 255.018 31.5327 257.009 31.5327C258.729 31.5327 261.69 32.6081 262.12 35.9428" fill="white"/>
<path d="M276.499 59.7501C276.499 54.9171 277.948 49.637 277.948 47.9697C277.948 47.6483 277.895 47.4308 277.733 47.4308C276.767 47.4308 273.106 54.2622 271.492 61.6881C271.438 65.6173 271.17 68.6283 271.17 68.6283C271.33 68.7902 271.438 69.2203 271.438 69.6504C271.438 70.3512 271.17 71.1003 270.148 71.1003C268.104 71.1003 264.554 68.9496 264.554 66.3132C264.554 63.6769 266.004 62.1182 266.004 50.0672C266.004 47.1674 263.906 45.5483 263.906 44.9031C263.906 44.2048 264.66 43.5596 265.252 43.5596C265.789 43.5596 266.866 43.6127 268.104 44.85C270.092 46.8387 270.955 51.1981 271.33 55.6614C273.589 50.2822 276.549 44.7871 278.338 44.7871C283.125 44.7871 284.521 47.2641 284.521 48.3926C284.521 50.0068 283.393 57.162 283.393 62.703C283.393 66.5211 283.932 69.5876 285.761 69.5876C288.557 69.5876 289.903 58.7762 290.062 57.2152C290.118 56.7319 290.333 56.5168 290.601 56.5168C291.193 56.5168 292.051 57.5921 292.051 58.6143V58.7762C291.621 62.8625 290.708 73.2993 284.681 73.2993C279.732 73.2993 276.506 67.8139 276.506 59.7428" fill="white"/>
<path d="M293.54 33.2822C294.185 32.637 295.799 32.0474 296.606 32.0474C298.489 32.0474 299.564 33.4973 299.564 35.2202C299.558 35.5036 299.443 35.7737 299.243 35.9742C298.435 36.7788 298.167 40.3843 295.799 40.3843C294.777 40.3843 292.626 38.9344 292.626 36.3487C292.626 34.575 292.894 33.9322 293.54 33.2822ZM296.229 71.1558C295.369 71.1558 293.271 70.0781 291.764 68.5726C290.526 67.3354 290.043 62.8697 290.043 58.2977C290.043 53.0249 290.688 47.5926 291.493 46.8411C291.905 46.5156 292.418 46.3446 292.943 46.3578C294.065 46.3881 295.137 46.8282 295.956 47.5951C296.439 48.0784 296.71 48.726 296.71 49.8013C296.71 50.5553 296.333 50.7679 296.333 50.7679C296.333 50.7679 295.417 58.2977 295.417 63.1935C295.417 65.5617 295.632 67.3354 296.277 67.3354C299.344 67.3354 300.144 61.7943 300.422 59.75C300.422 59.5905 300.637 59.4818 300.905 59.4818C301.497 59.4818 302.466 59.9119 302.466 60.5571C302.435 62.0879 302.199 63.6076 301.765 65.0759C300.799 68.3575 298.539 71.1558 296.224 71.1558" fill="white"/>
<path d="M300.366 58.8368C300.366 48.8833 305.153 44.9033 310.211 44.9033C313.278 44.9033 315.428 46.4644 315.428 48.8833C315.428 52.2664 313.331 56.5242 311.716 56.5242C311.644 56.5288 311.572 56.5181 311.505 56.4926C311.437 56.4672 311.376 56.4276 311.325 56.3766C311.274 56.3256 311.235 56.2644 311.209 56.1969C311.184 56.1294 311.173 56.0573 311.178 55.9853C311.178 55.8766 311.178 55.7171 311.286 55.6615C311.825 55.0719 312.792 52.8657 312.792 49.5841C312.792 48.0786 312.147 46.8389 311.342 46.8389C309.621 46.8389 305.542 49.961 305.542 59.5883C305.542 64.7548 308.232 68.3578 311.675 68.3578C316.678 68.3578 317.862 60.3423 318.077 58.513C318.13 58.0297 318.292 57.8146 318.56 57.8146C319.152 57.8146 320.065 58.89 320.065 59.9653V60.074C319.691 64.054 317.862 72.4465 311.19 72.4465C304.518 72.4465 300.378 66.4753 300.378 58.8368" fill="white"/>
<path d="M330.826 53.9406C330.826 53.9406 330.772 54.5858 330.772 55.1247C330.761 55.3412 330.779 55.5582 330.826 55.7699V53.9406ZM330.719 50.9273C330.664 49.9051 330.395 48.0782 329.052 48.0782C325.985 48.0782 323.994 55.6612 323.994 61.3689C323.994 64.8124 324.693 67.5551 326.362 67.5551C327.868 67.5551 329.482 63.6283 330.289 59.9698C329.105 59.1095 328.245 57.4953 328.245 55.0208C328.245 53.0296 329.373 51.1544 330.719 50.9321V50.9273ZM346.695 66.8568C346.695 69.4907 347.717 69.8146 348.365 69.8146C350.568 69.8146 352.398 61.1539 352.56 59.4865C352.613 59.0032 352.828 58.7857 353.096 58.7857C353.69 58.7857 354.546 59.7015 354.546 60.7189V60.9775C354.116 64.9598 352.613 72.9198 347.555 72.9198C342.12 72.9198 340.939 68.2946 340.939 64.044C340.939 59.7402 342.712 52.7469 342.712 51.3477C342.712 50.3812 341.852 49.6804 340.779 49.0883C339.701 56.2532 336.101 60.0109 333.032 60.4942C331.957 67.0042 329.211 72.1682 325.782 72.1682C322.716 72.1682 318.035 68.239 318.035 60.9243C318.035 53.554 320.725 45.0552 327.126 45.0552C330.461 45.0552 332.561 46.8313 332.561 48.7669C332.561 50.0573 332.343 50.7001 332.022 51.0795C333.153 51.6184 333.527 53.0707 333.527 54.523C333.527 55.7603 333.474 56.9395 333.368 58.126C335.572 57.6959 338.423 54.2596 338.853 48.0686C337.403 47.3146 336.055 46.4544 336.055 45.2171C336.055 44.033 337.94 43.1172 339.392 43.1172C340.359 43.1172 341.113 43.4942 341.113 44.4632C341.113 45.1615 341.113 45.8067 341.059 46.3964C343.911 47.4717 348.645 49.4629 348.645 52.8532C348.645 54.6801 346.712 63.9328 346.712 66.8399" fill="white"/>
<path d="M366.668 59.7501C366.668 54.9171 368.117 49.637 368.117 47.9697C368.117 47.6483 368.062 47.4308 367.902 47.4308C366.936 47.4308 363.277 54.2622 361.663 61.6881C361.607 65.6173 361.339 68.6283 361.339 68.6283C361.501 68.7902 361.607 69.2203 361.607 69.6504C361.607 70.3512 361.339 71.1003 360.317 71.1003C358.273 71.1003 354.723 68.9496 354.723 66.3132C354.723 63.6769 356.173 62.1182 356.173 50.0672C356.173 47.1674 354.075 45.5483 354.075 44.9031C354.075 44.2048 354.827 43.5596 355.419 43.5596C355.958 43.5596 357.033 43.6127 358.27 44.85C360.261 46.8387 361.122 51.1981 361.499 55.6614C363.758 50.2822 366.716 44.7871 368.492 44.7871C373.279 44.7871 374.678 47.2641 374.678 48.3926C374.678 50.0068 373.547 57.162 373.547 62.703C373.547 66.5211 374.086 69.5876 375.915 69.5876C378.711 69.5876 380.057 58.7762 380.219 57.2152C380.272 56.7319 380.487 56.5168 380.756 56.5168C381.348 56.5168 382.206 57.5921 382.206 58.6143V58.7762C381.775 62.8625 380.862 73.2993 374.835 73.2993C369.886 73.2993 366.66 67.8139 366.66 59.7428" fill="white"/>
<path d="M396.336 57.4906C396.928 57.4906 397.844 58.5684 397.844 59.6437V59.7501C397.574 64.9673 393.495 72.8233 386.707 72.9852H386.605C382.678 72.9852 380.257 70.025 380.257 66.5283C380.257 65.5617 380.849 64.9673 381.17 64.9673C381.332 64.9673 381.441 65.076 381.441 65.3466C381.441 66.7965 382.301 69.3266 384.077 69.3266C385.96 69.3266 387.303 67.4442 387.303 64.4936C387.303 60.997 384.938 57.6091 382.954 54.7576L382.632 54.2743C382.362 58.363 381.985 60.997 381.985 60.997C381.985 60.997 381.985 61.212 381.717 61.212C381.071 61.1057 379.94 60.5668 379.94 59.8685V59.7597C379.94 59.7597 380.373 56.5869 380.641 51.099C380.405 50.6698 380.275 50.1898 380.264 49.6999C380.264 45.1835 385.213 43.5137 386.504 43.5137C387.794 43.5137 388.333 44.0526 388.333 45.2366C388.333 45.5049 387.85 46.7421 387.85 48.3563C387.85 55.1346 393.499 56.5869 393.499 64.6555C393.499 65.4343 393.408 66.2103 393.229 66.9681C395.22 64.5516 395.645 61.0501 395.865 58.1479C395.918 57.6646 396.08 57.5003 396.348 57.5003" fill="white"/>
<path d="M18.4965 64.5373L15.372 71.8979L14.8428 79.1474H22.0922L23.5035 78.3524L27.5898 78.4949L27.6526 80.4281H35.2476L35.7937 78.4949H41.5305C41.5305 78.4949 39.9235 64.3609 37.1808 62.4712C26.7682 69.5467 18.4941 64.5445 18.4941 64.5445" fill="white"/>
<path d="M37.3215 72.7896L37.7444 78.1759H35.7314L37.3215 72.7896Z" fill="#2494D1"/>
<path d="M17.4189 66.5672C17.4189 66.5672 23.7211 70.3321 31.2775 66.5672C37.3187 63.5636 18.4967 64.5374 18.4967 64.5374L17.4189 66.5672Z" fill="#2494D1"/>
<path d="M41.5766 81.4745H35.417L35.7915 78.4854H41.5307C41.5307 78.4854 41.5911 80.5007 41.5815 81.4745" fill="#EB2126"/>
<path d="M41.5766 82.4387H35.4169C35.2796 82.4396 35.1437 82.4114 35.0181 82.3557C34.8926 82.3 34.7804 82.2183 34.6889 82.1159C34.5975 82.0134 34.5289 81.8927 34.4878 81.7617C34.4466 81.6307 34.4339 81.4924 34.4503 81.3561L34.8322 78.3766C34.8617 78.1417 34.9765 77.9258 35.1547 77.7699C35.3328 77.614 35.562 77.5289 35.7987 77.5308H41.5306C41.7817 77.5307 42.0229 77.6282 42.2033 77.8027C42.3837 77.9772 42.4891 78.2151 42.4972 78.466C42.4972 78.466 42.5577 80.5079 42.548 81.4938C42.5423 81.7472 42.4373 81.9882 42.2556 82.165C42.0739 82.3417 41.83 82.44 41.5766 82.4387ZM36.5019 80.5055H40.61C40.61 80.1454 40.5955 79.7805 40.5882 79.4471H36.6445L36.5019 80.5055Z" fill="#144A8F"/>
<path d="M39.4766 63.2033C39.4766 63.2033 43.7417 57.5657 50.4329 59.1364C57.1242 60.7071 58.8713 56.7393 58.8713 56.7393C58.8713 56.7393 55.5462 68.9087 47.0305 65.5522C47.0305 65.5522 48.3378 66.6493 49.5437 67.7053C46.9894 69.5394 44.672 70.6292 40.0879 67.8696" fill="#2494D1"/>
<path d="M38.8994 64.165C38.8994 64.165 43.2225 57.8362 48.7007 59.1169C54.1789 60.3977 57.4798 59.0444 57.4798 59.0444C57.4798 59.0444 53.6666 66.8545 47.5722 63.2443C46.5113 62.4855 45.0905 62.6547 44.3969 63.6213C43.7034 64.5878 44.0006 65.9894 45.0615 66.7482C43.4569 67.3982 41.3207 66.5694 40.1753 65.8058" fill="white"/>
<path d="M20.2657 65.3541C20.2657 65.3541 20.935 63.6311 18.4992 64.5373C16.0634 65.4435 14.4902 79.1788 14.4902 79.1788H15.5825C16.1818 79.1788 17.3852 79.0652 17.3441 78.4684C17.3441 78.4684 17.419 74.4087 17.7018 72.1444C18.2672 70.0638 20.2657 65.3541 20.2657 65.3541Z" fill="#2494D1"/>
<path d="M49.5648 32.8932C49.5648 46.0123 39.1087 66.5694 26.2119 66.5694C13.3151 66.5694 2.86621 46.0123 2.86621 32.8932C2.86621 19.774 13.3224 14.5278 26.2192 14.5278C39.116 14.5278 49.5721 19.7837 49.5721 32.8932" fill="white"/>
<path d="M26.2127 67.5338C12.7891 67.5338 1.90039 46.5732 1.90039 32.8934C1.90039 20.6032 10.7641 13.5615 26.2199 13.5615C41.6758 13.5615 50.5371 20.6128 50.5371 32.8934C50.5298 46.5732 39.6363 67.5338 26.2127 67.5338ZM26.2127 15.4826C19.4803 15.4826 3.82392 17.1742 3.82392 32.8934C3.82392 45.5123 14.0698 65.6055 26.2127 65.6055C38.3555 65.6055 48.6014 45.5123 48.6014 32.8934C48.6014 17.179 32.9426 15.4826 26.2127 15.4826Z" fill="#144A8F"/>
<path d="M6.20602 30.7063C6.20602 30.7063 3.91035 31.0736 2.78185 30.6048C1.2643 29.9741 3.72912 28.0796 3.72912 28.0796L6.20602 30.7063Z" fill="#2494D1"/>
<path d="M31.8281 28.2584C31.8281 31.1823 29.8949 32.1586 26.2702 33.536C22.1621 33.536 13.876 31.1823 13.876 28.2584C13.876 25.3344 22.9233 22.9614 27.0314 22.9614C31.1394 22.9614 31.8208 25.332 31.8208 28.2584" fill="#2494D1"/>
<path d="M29.7377 54.5884C29.7377 54.5884 28.4618 49.2721 32.4586 47.4863C31.7023 49.5307 30.1436 53.9673 31.1199 55.5332C32.0962 57.0991 29.7377 54.5884 29.7377 54.5884Z" fill="#2494D1"/>
<path d="M26.2127 67.5338C12.7891 67.5338 1.90039 46.5732 1.90039 32.8934C1.90039 20.6032 10.7641 13.5615 26.2199 13.5615C41.6758 13.5615 50.5371 20.6128 50.5371 32.8934C50.5298 46.5732 39.6363 67.5338 26.2127 67.5338ZM26.2127 15.4826C19.4803 15.4826 3.82392 17.1742 3.82392 32.8934C3.82392 45.5123 14.0698 65.6055 26.2127 65.6055C38.3555 65.6055 48.6014 45.5123 48.6014 32.8934C48.6014 17.179 32.9426 15.4826 26.2127 15.4826Z" fill="#144A8F"/>
<path d="M18.7383 37.4844C18.7383 37.4844 20.0432 43.0423 28.7667 43.876C29.3515 43.9315 29.6971 43.2138 29.3829 42.7185C28.9721 42.0684 27.6624 41.0148 27.643 40.1522C29.5762 40.3769 32.7177 41.3145 34.3705 40.4204C34.4839 40.3582 34.5778 40.2656 34.6415 40.1531C34.7052 40.0405 34.7363 39.9124 34.7313 39.7832C34.7263 39.6539 34.6853 39.5287 34.6131 39.4214C34.5408 39.3141 34.4401 39.2291 34.3222 39.1759C33.2517 38.6926 33.3049 36.8899 32.8095 35.9668" fill="#2494D1"/>
<path d="M18.9971 35.7182C18.9971 35.7182 19.7486 41.844 30.6131 41.0538C29.9679 40.2177 29.2817 39.3212 29.2527 38.1033C31.4082 38.3449 34.1315 38.4102 35.5041 36.8032C34.2234 36.5785 32.788 35.595 32.1935 34.481" fill="white"/>
<path d="M28.7231 42.0906C18.9194 42.0906 18.0688 36.105 18.035 35.8367C18.0202 35.5918 18.0992 35.3504 18.2559 35.1615C18.4126 34.9726 18.6352 34.8504 18.8787 34.8196C19.1222 34.7889 19.3683 34.8519 19.567 34.9959C19.7657 35.1399 19.9022 35.3541 19.9488 35.5951C19.9802 35.8102 20.7293 40.1623 28.7255 40.1623H28.8367C28.4933 39.5376 28.3036 38.8401 28.2833 38.1276C28.2816 37.9914 28.3088 37.8565 28.3629 37.7315C28.417 37.6066 28.497 37.4945 28.5974 37.4026C28.6998 37.3104 28.8206 37.2412 28.9519 37.1995C29.0832 37.1578 29.2218 37.1447 29.3586 37.161C31.0985 37.364 32.4372 37.318 33.4038 37.0208C32.5472 36.5234 31.8351 35.8113 31.3377 34.9547C31.2471 34.7339 31.2414 34.4873 31.3217 34.2625C31.402 34.0377 31.5626 33.8506 31.7726 33.7372C31.9827 33.6238 32.2273 33.5921 32.4593 33.6482C32.6913 33.7044 32.8943 33.8444 33.0293 34.0413C33.4739 34.8726 34.6531 35.6942 35.656 35.8706C35.8229 35.9008 35.9789 35.9745 36.1083 36.0841C36.2378 36.1937 36.3361 36.3355 36.3934 36.4952C36.4507 36.6548 36.465 36.8268 36.4348 36.9937C36.4046 37.1606 36.331 37.3166 36.2214 37.4461C34.8416 39.0652 32.517 39.3044 30.4919 39.1981C30.7406 39.6524 31.0319 40.082 31.3619 40.4812C31.4677 40.6194 31.5342 40.7836 31.5545 40.9565C31.5747 41.1293 31.5479 41.3045 31.4768 41.4633C31.4058 41.6222 31.2932 41.759 31.1509 41.8592C31.0086 41.9594 30.8419 42.0193 30.6684 42.0326C29.9901 42.0729 29.3417 42.0922 28.7231 42.0906Z" fill="#144A8F"/>
<path d="M33.4259 27.1833C33.4259 29.0923 30.1975 32.6035 26.2127 32.6035C22.2279 32.6035 18.9971 29.0923 18.9971 27.1833C18.9971 25.2743 21.8848 0.966797 25.872 0.966797C29.8592 0.966797 33.4259 25.2767 33.4259 27.1833Z" fill="white"/>
<path d="M26.212 33.5699C21.7754 33.5699 18.0322 29.6479 18.0322 27.1831C18.0322 26.9052 20.4705 0 25.8713 0C31.3374 0 34.3918 26.9124 34.3918 27.1831C34.3918 29.6479 30.656 33.5699 26.212 33.5699ZM25.8713 1.93077C23.3944 1.93077 19.963 23.3844 19.963 27.1831C19.963 28.4759 22.667 31.6391 26.212 31.6391C29.757 31.6391 32.4611 28.4759 32.4611 27.1831C32.4611 26.3228 31.5718 19.8031 30.1992 13.5686C27.7054 2.257 25.8882 1.93077 25.8713 1.93077Z" fill="#144A8F"/>
<path d="M30.5474 61.3788C30.6489 61.8911 29.808 61.3522 28.938 61.5237C28.0681 61.6953 27.4881 62.5145 27.3963 62.007C27.3045 61.4996 27.8168 60.4291 28.6867 60.2551C29.5567 60.0811 30.4459 60.8689 30.5474 61.3836" fill="#144A8F"/>
<path d="M21.9566 61.3788C21.8551 61.8911 22.696 61.3522 23.566 61.5237C24.4359 61.6953 25.0159 62.5145 25.1077 62.007C25.1995 61.4996 24.6872 60.4291 23.8173 60.2551C22.9473 60.0811 22.0581 60.8689 21.9566 61.3836" fill="#144A8F"/>
<path d="M12.7747 19.2979C12.7747 19.2979 7.07174 16.4755 1.79896 16.8138C-0.0738214 22.234 2.07202 27.6542 6.14864 29.7662" fill="white"/>
<path d="M6.13618 30.7331C5.98147 30.7324 5.82911 30.6952 5.69155 30.6244C1.01081 28.191 -1.05529 22.1183 0.885152 16.4976C0.947508 16.3179 1.06147 16.1607 1.21277 16.0455C1.36407 15.9303 1.54599 15.8623 1.73576 15.85C7.21635 15.4875 12.9603 18.3124 13.202 18.4332C13.4168 18.5549 13.577 18.7543 13.6495 18.9903C13.722 19.2264 13.7014 19.4812 13.592 19.7026C13.4825 19.9239 13.2925 20.095 13.0609 20.1807C12.8293 20.2664 12.5737 20.2602 12.3466 20.1634C12.2958 20.1392 7.27193 17.6986 2.51387 17.7469C1.22829 22.2899 2.91259 27.0045 6.58082 28.9111C6.7716 29.0115 6.92336 29.1727 7.01197 29.3692C7.10058 29.5658 7.12095 29.7863 7.06984 29.9957C7.01874 30.2051 6.89909 30.3915 6.72991 30.5251C6.56074 30.6587 6.35175 30.7319 6.13618 30.7331Z" fill="#144A8F"/>
<path d="M3.65169 20.4316C3.52362 21.2387 3.68794 24.617 6.69405 26.9827C6.71796 27.0082 6.75014 27.0244 6.78485 27.0283C6.81955 27.0323 6.85454 27.0237 6.88356 27.0043C6.91258 26.9849 6.93375 26.9557 6.9433 26.9221C6.95285 26.8885 6.95016 26.8526 6.9357 26.8208C6.74625 26.2976 6.62207 25.753 6.56598 25.1994C6.56359 25.1668 6.57041 25.1343 6.58565 25.1054C6.60089 25.0766 6.62394 25.0526 6.65216 25.0362C6.68039 25.0198 6.71266 25.0117 6.74527 25.0128C6.77789 25.0139 6.80955 25.0241 6.83662 25.0423C7.1121 25.2284 7.45041 25.3589 8.10528 25.2211C8.15415 25.2106 8.19986 25.1886 8.23871 25.1572C8.27755 25.1257 8.30846 25.0855 8.32892 25.0399C8.34938 24.9943 8.35883 24.9445 8.3565 24.8945C8.35417 24.8446 8.34013 24.7959 8.31551 24.7523C8.16792 24.533 8.06526 24.2866 8.01345 24.0274C8.00701 23.9834 8.01036 23.9385 8.02325 23.896C8.03614 23.8535 8.05827 23.8143 8.08804 23.7813C8.11781 23.7483 8.15451 23.7222 8.1955 23.7051C8.23649 23.6879 8.28077 23.6799 8.32518 23.6818C9.4706 23.7229 10.3647 23.8655 11.08 23.3532" fill="#2494D1"/>
<path d="M10.6674 22.628C8.68977 21.7027 6.60065 21.0375 4.45215 20.6489L10.6674 22.628Z" fill="white"/>
<path d="M10.6667 23.5921C10.5186 23.5913 10.3725 23.5574 10.239 23.4931C8.34514 22.61 6.34562 21.9741 4.2896 21.6009C4.04566 21.549 3.83125 21.4047 3.69119 21.1983C3.55114 20.9919 3.49628 20.7394 3.5381 20.4935C3.57991 20.2476 3.71516 20.0274 3.91556 19.8789C4.11596 19.7304 4.366 19.6652 4.61341 19.6967C6.85484 20.099 9.03378 20.7936 11.0944 21.7628C11.2878 21.8606 11.4428 22.0204 11.5344 22.2168C11.6261 22.4132 11.6491 22.6346 11.5997 22.8456C11.5504 23.0566 11.4316 23.2449 11.2624 23.3803C11.0932 23.5157 10.8834 23.5903 10.6667 23.5921Z" fill="#144A8F"/>
<path d="M39.6484 19.2979C39.6484 19.2979 45.3538 16.4755 50.6266 16.8138C52.4993 22.234 50.3535 27.6542 46.2769 29.7662" fill="white"/>
<path d="M46.2889 30.7331C46.0731 30.7325 45.8637 30.6596 45.6941 30.5262C45.5246 30.3928 45.4045 30.2065 45.3531 29.9969C45.3017 29.7873 45.3218 29.5666 45.4104 29.3698C45.499 29.1731 45.6508 29.0116 45.8418 28.9111C49.5052 27.0045 51.1967 22.2899 49.9112 17.7518C45.1241 17.6744 40.1292 20.1393 40.0809 20.1634C39.8537 20.2602 39.5981 20.2664 39.3665 20.1807C39.1349 20.095 38.9449 19.924 38.8355 19.7026C38.726 19.4812 38.7055 19.2264 38.778 18.9903C38.8505 18.7543 39.0106 18.5549 39.2255 18.4332C39.4671 18.3148 45.2256 15.4996 50.6941 15.85C50.8839 15.8623 51.0658 15.9303 51.2171 16.0455C51.3684 16.1607 51.4824 16.318 51.5447 16.4976C53.4779 22.1184 51.4191 28.191 46.7359 30.6244C46.5978 30.6961 46.4444 30.7334 46.2889 30.7331Z" fill="#144A8F"/>
<path d="M48.7799 20.4316C48.9079 21.2387 48.7436 24.617 45.7375 26.9827C45.7136 27.0082 45.6814 27.0244 45.6467 27.0283C45.612 27.0323 45.577 27.0237 45.548 27.0043C45.519 26.9849 45.4978 26.9557 45.4882 26.9221C45.4787 26.8885 45.4814 26.8526 45.4958 26.8208C45.6842 26.2973 45.8083 25.7528 45.8656 25.1994C45.868 25.1668 45.8611 25.1343 45.8459 25.1054C45.8307 25.0766 45.8076 25.0526 45.7794 25.0362C45.7512 25.0198 45.7189 25.0117 45.6863 25.0128C45.6537 25.0139 45.622 25.0241 45.5949 25.0423C45.3194 25.2284 44.9811 25.3589 44.3263 25.2211C44.2774 25.2106 44.2317 25.1886 44.1928 25.1572C44.154 25.1257 44.1231 25.0855 44.1026 25.0399C44.0822 24.9943 44.0727 24.9445 44.075 24.8945C44.0774 24.8446 44.0914 24.7959 44.116 24.7523C44.2626 24.5325 44.3652 24.2863 44.4181 24.0274C44.4245 23.9834 44.4212 23.9385 44.4083 23.896C44.3954 23.8535 44.3733 23.8143 44.3435 23.7813C44.3137 23.7483 44.277 23.7222 44.236 23.7051C44.1951 23.6879 44.1508 23.6799 44.1064 23.6818C42.9609 23.7229 42.0668 23.8655 41.3516 23.3532" fill="#2494D1"/>
<path d="M41.7549 22.628C43.7332 21.7025 45.8232 21.0372 47.9725 20.6489L41.7549 22.628Z" fill="white"/>
<path d="M41.7577 23.5921C41.5408 23.5908 41.3306 23.5166 41.161 23.3814C40.9914 23.2462 40.8722 23.0579 40.8225 22.8468C40.7729 22.6357 40.7957 22.414 40.8873 22.2174C40.9789 22.0208 41.1339 21.8607 41.3275 21.7628C43.3897 20.7931 45.5703 20.0985 47.8134 19.6967C48.0608 19.6652 48.3108 19.7304 48.5112 19.8789C48.7116 20.0274 48.8469 20.2476 48.8887 20.4935C48.9305 20.7394 48.8757 20.9919 48.7356 21.1983C48.5955 21.4047 48.3811 21.549 48.1372 21.6009C46.0805 21.9743 44.0802 22.6102 42.1854 23.4931C42.052 23.5575 41.9058 23.5913 41.7577 23.5921Z" fill="#144A8F"/>
<path d="M45.3175 52.8243C42.8599 58.1406 38.0221 61.1322 34.511 59.5107C30.9998 57.8893 30.1468 52.2612 32.6019 46.945C35.0571 41.6287 39.8973 38.6347 43.4085 40.2585C46.9196 41.8824 47.7751 47.508 45.3175 52.8243Z" fill="white"/>
<path d="M36.5698 60.9195C35.7198 60.9234 34.8793 60.7411 34.1074 60.3854C32.1041 59.4599 30.775 57.4615 30.3642 54.7574C29.9752 52.2008 30.4609 49.2817 31.7271 46.5414C34.4046 40.7418 39.8296 37.5423 43.8096 39.3837C47.7895 41.2251 48.8649 47.4379 46.1898 53.2278C44.9211 55.9681 43.0121 58.2275 40.8131 59.588C39.3898 60.4724 37.9399 60.9195 36.5698 60.9195ZM41.3786 40.7901C38.6069 40.7901 35.2963 43.4193 33.4791 47.3509C32.3699 49.7529 31.9398 52.2805 32.2708 54.4674C32.5801 56.5094 33.5202 57.9907 34.9145 58.6335C36.3088 59.2763 38.0559 59.0346 39.8006 57.9472C41.6806 56.7824 43.3287 54.8203 44.4379 52.4183C46.6296 47.6771 45.9723 42.5107 43.0025 41.1357C42.4928 40.9037 41.9386 40.7857 41.3786 40.7901Z" fill="#144A8F"/>
<path d="M7.10773 52.8245C9.56289 58.1408 14.4007 61.1324 17.9119 59.511C21.423 57.8895 22.2785 52.2615 19.8209 46.9452C17.3633 41.6289 12.5328 38.6373 9.01434 40.2612C5.49594 41.8851 4.65016 47.5107 7.10773 52.827" fill="white"/>
<path d="M15.8528 60.9195C14.4826 60.9195 13.0327 60.4725 11.607 59.588C9.40798 58.2275 7.49896 55.9633 6.2303 53.2278C3.55525 47.4283 4.62092 41.2275 8.61054 39.3838C12.6002 37.54 18.0204 40.7515 20.693 46.5414C21.9592 49.2817 22.4425 52.2008 22.0535 54.7575C21.6427 57.4615 20.3136 59.46 18.3127 60.3855C17.5415 60.7407 16.7019 60.923 15.8528 60.9195ZM11.0464 40.7902C10.4855 40.7852 9.93042 40.9031 9.42007 41.1357C6.4502 42.5107 5.79533 47.6772 7.98226 52.4183C9.09142 54.8203 10.7395 56.7825 12.6219 57.9472C14.3787 59.0443 16.1137 59.286 17.5081 58.6335C18.9024 57.9811 19.84 56.5094 20.1517 54.4675C20.4828 52.2806 20.055 49.7529 18.9434 47.3509C17.1238 43.4193 13.8181 40.7902 11.0464 40.7902Z" fill="#144A8F"/>
<path d="M7.10773 52.8245C9.56289 58.1408 14.4007 61.1324 17.9119 59.511C21.423 57.8895 22.2785 52.2615 19.8209 46.9452C17.3633 41.6289 12.5328 38.6373 9.01434 40.2612C5.49594 41.8851 4.65016 47.5107 7.10773 52.827" fill="white"/>
<path d="M15.8528 60.9195C14.4826 60.9195 13.0327 60.4725 11.607 59.588C9.40798 58.2275 7.49896 55.9633 6.2303 53.2278C3.55525 47.4283 4.62092 41.2275 8.61054 39.3838C12.6002 37.54 18.0204 40.7515 20.693 46.5414C21.9592 49.2817 22.4425 52.2008 22.0535 54.7575C21.6427 57.4615 20.3136 59.46 18.3127 60.3855C17.5415 60.7407 16.7019 60.923 15.8528 60.9195ZM11.0464 40.7902C10.4855 40.7852 9.93042 40.9031 9.42007 41.1357C6.4502 42.5107 5.79533 47.6772 7.98226 52.4183C9.09142 54.8203 10.7395 56.7825 12.6219 57.9472C14.3787 59.0443 16.1137 59.286 17.5081 58.6335C18.9024 57.9811 19.84 56.5094 20.1517 54.4675C20.4828 52.2806 20.055 49.7529 18.9434 47.3509C17.1238 43.4193 13.8181 40.7902 11.0464 40.7902Z" fill="#144A8F"/>
<path d="M20.1638 48.6535C20.0154 48.9918 19.7915 49.2916 19.5092 49.5298C19.2268 49.768 18.8937 49.9383 18.5352 50.0277C18.1768 50.117 17.8027 50.123 17.4416 50.0451C17.0805 49.9673 16.742 49.8077 16.4522 49.5786C16.1625 49.3495 15.929 49.0571 15.7699 48.7237C15.6108 48.3903 15.5303 48.0249 15.5345 47.6555C15.5387 47.2862 15.6275 46.9227 15.7941 46.593C15.9607 46.2633 16.2007 45.9762 16.4956 45.7537C16.3989 45.7537 16.3071 45.7247 16.208 45.7247C15.3112 45.7095 14.4327 45.9795 13.6992 46.4957C12.9657 47.012 12.4151 47.7479 12.1269 48.5973C11.8387 49.4467 11.8276 50.3657 12.0954 51.2217C12.3632 52.0778 12.8959 52.8267 13.6168 53.3604C14.3377 53.8941 15.2095 54.1851 16.1064 54.1914C17.0034 54.1977 17.8791 53.9189 18.6074 53.3953C19.3357 52.8717 19.8788 52.1304 20.1586 51.2781C20.4383 50.4259 20.4401 49.5069 20.1638 48.6535Z" fill="#144A8F"/>
<path d="M21.1695 59.1433C20.5662 59.8919 20.2654 60.8394 20.3262 61.7989C20.387 62.7584 20.8052 63.6603 21.4981 64.3267C22.513 65.2933 24.7338 65.866 25.872 65.9651C25.872 65.9651 17.5737 65.4189 14.7803 61.3254C15.9885 60.0785 19.13 58.3821 20.0676 57.186C21.0052 55.9898 22.9939 53.6651 24.3182 54.8299" fill="#2494D1"/>
<path d="M22.9986 54.5209C22.9986 54.5209 24.5838 45.4929 17.6992 42.9097C19.1829 46.2517 22.2543 53.5205 20.7827 56.2463C19.311 58.9721 22.9986 54.5209 22.9986 54.5209Z" fill="#2494D1"/>
<path d="M26.2078 67.5334C21.5802 67.5334 16.926 65.0565 12.7455 60.3733C12.6729 60.2898 12.6142 60.1951 12.5715 60.093C10.0874 58.8993 7.73854 56.4683 6.23065 53.2302C3.55559 47.4306 4.62368 41.2275 8.61089 39.3837C10.6117 38.4582 12.9968 38.7409 15.3215 40.1812C17.5229 41.5416 19.4295 43.8059 20.6982 46.5414C21.9402 49.2309 22.3752 52.0123 22.0852 54.4046C23.2335 53.3369 24.7508 52.7558 26.3184 52.7833C27.8861 52.8108 29.3821 53.4447 30.4922 54.552L33.9284 57.9689C34.091 58.153 34.1774 58.392 34.1701 58.6374C34.1628 58.8829 34.0624 59.1163 33.8892 59.2904C33.716 59.4645 33.4831 59.5661 33.2377 59.5747C32.9923 59.5833 32.7529 59.4982 32.568 59.3367L29.1293 55.9173C28.3552 55.1457 27.3068 54.7124 26.2138 54.7124C25.1208 54.7124 24.0724 55.1457 23.2983 55.9173L19.937 59.2642C19.9065 59.2935 19.8742 59.321 19.8403 59.3463C19.3939 59.7752 18.8795 60.1272 18.3179 60.3878C17.5782 60.7257 16.7751 60.9028 15.9618 60.9074C18.5692 63.3239 22.1021 65.605 26.2078 65.605C26.4641 65.605 26.71 65.7069 26.8912 65.8881C27.0725 66.0694 27.1744 66.3153 27.1744 66.5716C27.1744 66.828 27.0725 67.0738 26.8912 67.2551C26.71 67.4364 26.4641 67.5382 26.2078 67.5382V67.5334ZM7.9826 52.4183C10.213 57.2512 14.4805 60.0326 17.5084 58.6335C20.4783 57.2609 21.1331 52.0944 18.9583 47.3509C17.8491 44.9513 16.2011 42.9867 14.3186 41.822C12.5618 40.7345 10.8268 40.4929 9.43249 41.1357C6.46263 42.5082 5.80776 47.6771 7.99468 52.4183H7.9826Z" fill="#144A8F"/>
<path d="M44.8169 70.1988C43.0867 70.1728 41.3841 69.7599 39.8341 68.9905C39.6168 68.8722 39.4532 68.6751 39.3768 68.4397C39.3005 68.2043 39.3174 67.9487 39.4239 67.7254C39.5305 67.5021 39.7186 67.3281 39.9496 67.2393C40.1805 67.1506 40.4367 67.1538 40.6654 67.2482C43.2607 68.4879 45.7884 68.5894 47.9149 67.5672C47.0908 66.8616 46.4215 66.2961 46.4191 66.2961C46.2476 66.1482 46.1336 65.9446 46.0969 65.7212C46.0602 65.4977 46.1031 65.2684 46.2182 65.0733C46.3333 64.8782 46.5132 64.7298 46.7266 64.6538C46.9399 64.5779 47.1732 64.5793 47.3856 64.6578C49.1956 65.3827 50.8098 65.3537 52.3177 64.5998C54.2243 63.6477 55.6065 61.6855 56.5248 59.9287C55.0749 60.4966 53.0233 60.7406 50.2009 60.0809C44.2056 58.6721 39.6916 64.2639 39.6481 64.3195C39.4846 64.5051 39.2561 64.621 39.0098 64.6433C38.7634 64.6656 38.5179 64.5926 38.3237 64.4393C38.1296 64.286 38.0016 64.0641 37.9661 63.8193C37.9306 63.5745 37.9903 63.3254 38.1329 63.1233C38.3456 62.8527 43.4347 56.5094 50.6431 58.2009C56.3967 59.5493 57.9191 56.4731 57.982 56.3426C58.0841 56.1231 58.2649 55.9498 58.4886 55.8572C58.7124 55.7646 58.9628 55.7593 59.1902 55.8424C59.416 55.9258 59.6025 56.0904 59.7133 56.304C59.8242 56.5176 59.8513 56.7649 59.7895 56.9975C59.7122 57.2827 57.8321 64.0053 53.1828 66.3227C52.2809 66.7808 51.2931 67.045 50.283 67.0984C50.3662 67.2005 50.4276 67.3185 50.4636 67.4452C50.4995 67.5719 50.5092 67.7046 50.492 67.8352C50.4748 67.9658 50.4311 68.0914 50.3636 68.2045C50.2961 68.3176 50.2062 68.4157 50.0994 68.4927C48.5636 69.6064 46.714 70.2038 44.8169 70.1988Z" fill="#144A8F"/>
<path d="M22.7471 79.8384H14.8428V83.1103H22.7471V79.8384Z" fill="#EB2126"/>
<path d="M34.9918 81.3052H27.0898V84.5771H34.9918V81.3052Z" fill="#EB2126"/>
<path d="M30.91 85.0024C30.6536 85.0024 30.4077 84.9006 30.2265 84.7193C30.0452 84.5381 29.9434 84.2922 29.9434 84.0359V82.7019C29.9434 82.4456 30.0452 82.1997 30.2265 82.0185C30.4077 81.8372 30.6536 81.7354 30.91 81.7354C31.1663 81.7354 31.4122 81.8372 31.5935 82.0185C31.7747 82.1997 31.8766 82.4456 31.8766 82.7019V84.0359C31.8766 84.2922 31.7747 84.5381 31.5935 84.7193C31.4122 84.9006 31.1663 85.0024 30.91 85.0024Z" fill="#144A8F"/>
<path d="M14.9804 79.4832C14.9804 79.4832 16.0727 79.4832 16.9136 79.4349C17.1794 79.4228 17.3703 79.7804 17.2689 80.1091C16.8798 81.3801 17.2157 82.4072 16.9209 82.8035C16.5681 83.2698 14.5986 82.5473 14.5986 82.5473L14.9804 79.4832Z" fill="#A62126"/>
<path d="M26.9766 81.0853C26.9766 81.0853 28.0591 80.9427 28.888 80.7953C29.149 80.7494 29.3713 81.0804 29.323 81.4188C29.0982 82.7285 29.5646 83.7048 29.323 84.1349C29.0306 84.6448 26.9862 84.1736 26.9862 84.1736L26.9766 81.0853Z" fill="#A62126"/>
<path d="M22.6052 25.9625C22.6052 25.9625 26.6504 29.3649 29.4173 28.6207C31.0895 28.1688 29.323 31.7621 22.8396 30.8607C16.0927 29.9183 19.5894 23.0386 19.5894 23.0386L22.6052 25.9625Z" fill="#EB2126"/>
<path d="M23.4914 18.9141C23.9554 20.0112 27.481 21.6689 29.9338 21.5287C30.0959 21.5172 30.2571 21.5605 30.3917 21.6517C30.5262 21.7428 30.6262 21.8766 30.6756 22.0314C31.2628 23.9307 31.2822 26.1176 30.7892 26.9972C30.3059 27.8382 19.5429 25.8567 19.4969 21.3185C19.451 16.7803 21.2682 16.6909 21.2682 16.6909L23.4914 18.9141Z" fill="#EB2126"/>
<path d="M23.5616 11.3287C23.9265 12.3751 26.6837 14.0376 28.5396 14.2044C28.7579 14.225 28.9654 14.3086 29.137 14.445C29.3086 14.5814 29.4369 14.7648 29.5062 14.9728C29.9895 16.3937 30.1321 17.9282 30.3616 19.3007C30.5066 20.161 20.3187 18.2713 20.28 13.7428C20.2414 9.21431 21.7299 9.11523 21.7299 9.11523L23.5616 11.3287Z" fill="#EB2126"/>
<path d="M29.6174 27.908C26.5363 27.908 23.7719 26.6152 22.7594 26.0811C20.8818 25.0856 18.8157 23.4979 18.6054 22.0239C18.5832 21.776 18.6574 21.5291 18.8127 21.3346C18.9679 21.1401 19.1921 21.013 19.4387 20.9796C19.6854 20.9463 19.9353 21.0094 20.1366 21.1557C20.3379 21.3021 20.4749 21.5204 20.5193 21.7653C20.5845 22.1447 21.6816 23.3771 23.9193 24.5056C25.142 25.1218 29.4023 26.997 32.8989 25.2475C33.013 25.182 33.1392 25.1404 33.2699 25.1254C33.4006 25.1104 33.5329 25.1222 33.6589 25.1601C33.7848 25.198 33.9017 25.2612 34.0024 25.3459C34.1031 25.4306 34.1854 25.5349 34.2443 25.6524C34.3033 25.77 34.3376 25.8984 34.3453 26.0297C34.3529 26.161 34.3336 26.2925 34.2887 26.4161C34.2437 26.5397 34.174 26.6528 34.0838 26.7486C33.9936 26.8443 33.8848 26.9206 33.7641 26.9728C32.474 27.6046 31.0537 27.9249 29.6174 27.908ZM29.0543 20.6585C27.009 20.6165 25.0043 20.0801 23.2113 19.0951C21.5825 18.2324 19.7823 16.8477 19.6059 15.5477C19.5808 15.2987 19.6533 15.0497 19.8081 14.8531C19.9629 14.6565 20.1879 14.5275 20.4358 14.4934C20.6837 14.4593 20.9352 14.5226 21.1373 14.6701C21.3395 14.8176 21.4766 15.0378 21.5197 15.2843C21.6091 15.6081 22.6627 16.7583 24.7771 17.7225C26.0168 18.288 29.1848 19.46 31.8212 18.1357C32.0478 18.0377 32.3033 18.0301 32.5354 18.1145C32.7674 18.1989 32.9584 18.3689 33.069 18.5896C33.1797 18.8104 33.2017 19.0651 33.1305 19.3015C33.0594 19.5379 32.9004 19.7382 32.6863 19.8611C31.5542 20.406 30.3105 20.679 29.0543 20.6585Z" fill="#144A8F"/>
<path d="M28.5467 9.96072C28.5945 10.1585 28.5642 10.3672 28.462 10.5432C28.3598 10.7192 28.1937 10.849 27.9982 10.9056C27.2475 11.168 26.4611 11.3139 25.6662 11.3381C22.9235 11.4034 21.8047 8.07345 21.8047 8.07345C21.8047 8.07345 22.8752 1.68183 25.282 1.74708C26.0988 1.76883 27.9281 7.38716 28.5467 9.96314" fill="#EB2126"/>
<path d="M26.213 33.5699C21.7763 33.5699 18.0332 29.6479 18.0332 27.1831C18.0332 27.0188 18.9466 16.8816 20.8895 9.03767C20.8991 8.94964 20.921 8.8634 20.9547 8.78152C22.1823 3.91713 23.811 0 25.8723 0C31.3384 0 34.3928 26.9124 34.3928 27.1831C34.3928 29.6479 30.6569 33.5699 26.213 33.5699ZM22.378 11.2681C21.0176 17.551 19.9616 25.0807 19.9616 27.1831C19.9616 28.4759 22.6656 31.6391 26.2106 31.6391C29.7556 31.6391 32.4596 28.4759 32.4596 27.1831C32.4596 26.3228 31.5704 19.8031 30.1978 13.5686C30.1688 13.4308 30.1374 13.2955 30.1084 13.1626C28.2235 13.6459 25.9399 13.3076 23.7675 12.1574C23.2813 11.8986 22.8167 11.6012 22.378 11.2681ZM22.8734 9.09325C23.1513 9.47022 24.1083 10.3015 25.6427 10.8984C26.5417 11.2512 28.1607 11.7151 29.671 11.2898C27.4551 2.20625 25.8868 1.93319 25.8723 1.93319C24.9299 1.93077 23.8497 5.03596 22.8734 9.09083V9.09325Z" fill="#144A8F"/>
<path d="M40.1659 48.6199C40.0202 48.9605 39.7982 49.2631 39.517 49.5042C39.2359 49.7454 38.903 49.9186 38.5442 50.0107C38.1854 50.1027 37.8102 50.1109 37.4477 50.0349C37.0851 49.9588 36.7449 49.8004 36.4534 49.5719C36.1618 49.3434 35.9267 49.0509 35.7662 48.7171C35.6056 48.3832 35.524 48.017 35.5276 47.6466C35.5312 47.2761 35.6198 46.9115 35.7868 46.5808C35.9537 46.2502 36.1945 45.9623 36.4904 45.7395C36.3986 45.7395 36.3116 45.7129 36.2173 45.7129C35.3937 45.7129 34.5886 45.9571 33.9039 46.4148C33.2191 46.8724 32.6855 47.5228 32.3704 48.2837C32.0554 49.0447 31.973 49.8819 32.1339 50.6897C32.2947 51.4974 32.6915 52.2393 33.2741 52.8215C33.8566 53.4037 34.5987 53.8 35.4065 53.9604C36.2143 54.1208 37.0516 54.038 37.8123 53.7225C38.5731 53.407 39.2232 52.8729 39.6804 52.1879C40.1376 51.5029 40.3814 50.6977 40.3809 49.8741C40.3753 49.4474 40.3028 49.0241 40.1659 48.6199Z" fill="#144A8F"/>
<path d="M26.251 69.9188L26.3356 69.711C27.1837 69.5491 28.4258 70.1121 28.7665 70.9047L29.8516 74.0655C29.9978 74.493 30.0171 74.9538 29.9071 75.3921L28.653 80.4257L28.1818 74.6889L26.251 69.9188Z" fill="#2494D1"/>
<path d="M18.6103 83.9343C18.354 83.9343 18.1081 83.8325 17.9269 83.6512C17.7456 83.47 17.6437 83.2241 17.6437 82.9677V81.7812C17.6437 81.5249 17.7456 81.279 17.9269 81.0977C18.1081 80.9165 18.354 80.8146 18.6103 80.8146C18.8667 80.8146 19.1126 80.9165 19.2938 81.0977C19.4751 81.279 19.5769 81.5249 19.5769 81.7812V82.9677C19.5769 83.2241 19.4751 83.47 19.2938 83.6512C19.1126 83.8325 18.8667 83.9343 18.6103 83.9343ZM22.0901 80.1139H14.8406C14.5843 80.1139 14.3384 80.012 14.1571 79.8307C13.9759 79.6495 13.874 79.4036 13.874 79.1473C13.874 78.8909 13.9759 78.645 14.1571 78.4638C14.3384 78.2825 14.5843 78.1807 14.8406 78.1807H22.0901C22.3464 78.1807 22.5923 78.2825 22.7736 78.4638C22.9548 78.645 23.0567 78.8909 23.0567 79.1473C23.0567 79.4036 22.9548 79.6495 22.7736 79.8307C22.5923 80.012 22.3464 80.1139 22.0901 80.1139Z" fill="#144A8F"/>
<path d="M34.5227 81.3848H27.6502C27.3938 81.3848 27.148 81.283 26.9667 81.1017C26.7854 80.9205 26.6836 80.6746 26.6836 80.4183C26.6836 80.1619 26.7854 79.916 26.9667 79.7348C27.148 79.5535 27.3938 79.4517 27.6502 79.4517H34.5227C34.7791 79.4517 35.0249 79.5535 35.2062 79.7348C35.3875 79.916 35.4893 80.1619 35.4893 80.4183C35.4893 80.6746 35.3875 80.9205 35.2062 81.1017C35.0249 81.283 34.7791 81.3848 34.5227 81.3848Z" fill="#144A8F"/>
<path d="M26.8556 71.1459C27.7424 72.0328 29.2866 74.4831 28.6486 75.1187C28.0107 75.7542 25.9905 75.1815 25.1109 74.2946C24.2313 73.4078 23.9389 72.2116 24.5768 71.5761C25.8841 72.115 25.9687 70.2591 26.8556 71.1459Z" fill="#2494D1"/>
<path d="M22.0036 84.0743H14.6284C14.4963 84.0745 14.3654 84.0476 14.2441 83.9952C14.1227 83.9428 14.0134 83.8661 13.9228 83.7698C13.8324 83.6731 13.7628 83.5589 13.7183 83.4342C13.6738 83.3095 13.6554 83.177 13.6643 83.0449L14.4085 71.8299C14.4154 71.7357 14.4357 71.6429 14.469 71.5545L17.4002 63.7419C17.4987 63.5142 17.6811 63.3331 17.9095 63.2361C18.1379 63.1391 18.3949 63.1336 18.6272 63.2209C18.8595 63.3082 19.0494 63.4815 19.1574 63.7049C19.2655 63.9283 19.2835 64.1847 19.2077 64.421L16.3272 72.0933L15.6603 82.1459H21.0587L21.1965 75.9114C21.2 75.7838 21.2287 75.6581 21.281 75.5417L22.9726 71.7647C23.02 71.6427 23.0917 71.5317 23.1833 71.4383C23.2749 71.3448 23.3845 71.271 23.5055 71.2212C23.6265 71.1714 23.7563 71.1466 23.8872 71.1485C24.018 71.1503 24.1471 71.1787 24.2666 71.2319C24.3861 71.2852 24.4936 71.3621 24.5825 71.4581C24.6715 71.554 24.74 71.6671 24.7839 71.7903C24.8279 71.9136 24.8463 72.0445 24.8382 72.175C24.8301 72.3056 24.7955 72.4332 24.7366 72.5501L23.1345 76.1482L22.9798 83.1319C22.9735 83.3857 22.8675 83.6268 22.6849 83.8032C22.5022 83.9795 22.2575 84.0769 22.0036 84.0743Z" fill="#144A8F"/>
<path d="M27.5858 78.4854H22.6006V81.4721H27.5858V78.4854Z" fill="#EB2126"/>
<path d="M27.5876 82.4385H22.6023C22.346 82.4385 22.1001 82.3367 21.9189 82.1554C21.7376 81.9741 21.6357 81.7283 21.6357 81.4719V78.4852C21.6357 78.2288 21.7376 77.9829 21.9189 77.8017C22.1001 77.6204 22.346 77.5186 22.6023 77.5186H27.5876C27.8439 77.5186 28.0898 77.6204 28.2711 77.8017C28.4523 77.9829 28.5542 78.2288 28.5542 78.4852V81.4744C28.5535 81.7303 28.4514 81.9755 28.2702 82.1563C28.089 82.337 27.8435 82.4385 27.5876 82.4385ZM23.5665 80.5053H26.621V79.4469H23.5665V80.5053Z" fill="#144A8F"/>
<path d="M34.6898 84.9998H27.3146C27.18 85.0004 27.0468 84.9728 26.9235 84.9189C26.8002 84.8649 26.6895 84.7859 26.5985 84.6867C26.5075 84.5875 26.4382 84.4704 26.3951 84.3429C26.3519 84.2154 26.3359 84.0803 26.348 83.9462L27.1914 74.8409L25.4999 71.0011C25.409 70.7683 25.4119 70.5093 25.5079 70.2786C25.6039 70.0478 25.7855 69.8632 26.0146 69.7635C26.2438 69.6638 26.5027 69.6567 26.7369 69.7437C26.9712 69.8307 27.1627 70.0051 27.2711 70.2302L29.0473 74.2972C29.1147 74.4488 29.1405 74.6156 29.1222 74.7805L28.3561 83.0811H33.8416L35.4341 72.6902C35.4481 72.5604 35.4882 72.4348 35.5521 72.321C35.616 72.2072 35.7023 72.1074 35.8058 72.0278C35.9093 71.9483 36.0278 71.8905 36.1542 71.8579C36.2807 71.8254 36.4124 71.8188 36.5414 71.8386C36.6704 71.8584 36.7941 71.9041 36.905 71.9729C37.0159 72.0418 37.1117 72.1324 37.1866 72.2393C37.2616 72.3463 37.314 72.4672 37.3409 72.595C37.3678 72.7227 37.3685 72.8546 37.3431 72.9826L36.2146 80.5172C36.2613 80.5148 36.308 80.5148 36.3547 80.5172H37.5847C37.6459 80.3202 37.7685 80.148 37.9346 80.0257C38.1007 79.9033 38.3015 79.8373 38.5078 79.8373C38.7141 79.8373 38.915 79.9033 39.0811 80.0257C39.2471 80.148 39.3697 80.3202 39.4309 80.5172H40.615C40.4362 66.3735 36.3499 62.5603 36.3064 62.5241C36.1154 62.3552 35.9989 62.1178 35.9822 61.8634C35.9654 61.6091 36.0498 61.3584 36.217 61.166C36.3828 60.9758 36.6163 60.8579 36.8678 60.8376C37.1193 60.8173 37.3688 60.8961 37.563 61.0573C37.766 61.2312 42.5506 65.4625 42.5506 81.4814C42.5506 81.7378 42.4488 81.9836 42.2675 82.1649C42.0862 82.3462 41.8404 82.448 41.584 82.448H36.3451C36.1997 82.4481 36.0561 82.4159 35.9246 82.3538L35.6443 84.1903C35.607 84.4165 35.4906 84.6221 35.3157 84.7704C35.1409 84.9187 34.919 85 34.6898 84.9998ZM24.8426 81.9695C24.5862 81.9695 24.3404 81.8677 24.1591 81.6864C23.9778 81.5052 23.876 81.2593 23.876 81.0029V80.7927C23.876 80.5364 23.9778 80.2905 24.1591 80.1092C24.3404 79.928 24.5862 79.8261 24.8426 79.8261C25.0989 79.8261 25.3448 79.928 25.5261 80.1092C25.7073 80.2905 25.8092 80.5364 25.8092 80.7927V81.0078C25.8079 81.2633 25.7055 81.5079 25.5244 81.6881C25.3432 81.8684 25.0981 81.9695 24.8426 81.9695Z" fill="#144A8F"/>
</g>
<defs>
<clipPath id="clip0_1691_12074">
<rect width="397.684" height="85" fill="white" transform="translate(0.158203)"/>
</clipPath>
</defs>
</svg>
