<svg width="29" height="28" viewBox="0 0 29 28" fill="none" xmlns="http://www.w3.org/2000/svg">
<path d="M22.3747 28C22.1152 28 21.8544 27.9366 21.6136 27.8081L14.4517 23.995L7.29014 27.8081C6.73552 28.1031 6.07653 28.0543 5.57008 27.6819C5.06363 27.3092 4.81474 26.6893 4.9204 26.0648L6.28816 17.9885L0.49436 12.2689C0.04604 11.8263 -0.112285 11.1768 0.081045 10.5735C0.274696 9.97047 0.779859 9.53888 1.39935 9.44782L9.40617 8.26981L12.9873 0.922048C13.2644 0.353208 13.8255 0 14.4517 0C15.0776 0 15.639 0.353208 15.9161 0.921722L19.4969 8.26948L27.5037 9.44782C28.1235 9.53888 28.6287 9.97015 28.822 10.5735C29.0157 11.1765 28.857 11.826 28.4087 12.2689L22.6149 17.9885L23.983 26.0648C24.0887 26.6896 23.8398 27.3095 23.3333 27.6819C23.0469 27.893 22.7119 28 22.3747 28ZM2.2658 11.2926L7.74392 16.7006C8.12865 17.0802 8.30464 17.6275 8.21344 18.1648L6.92018 25.8011L13.6919 22.1955C14.1675 21.9421 14.7356 21.9421 15.2115 22.1955L21.9829 25.8011L20.6896 18.1645C20.5988 17.6282 20.7744 17.0805 21.1595 16.7006L26.6376 11.2926L19.0672 10.1783C18.5348 10.0996 18.0752 9.76135 17.8375 9.27316L14.4517 2.32577L11.0659 9.27349C10.8282 9.76135 10.3686 10.0996 9.83683 10.1783L2.2658 11.2926ZM14.1884 1.78523C14.1884 1.78523 14.1884 1.78555 14.1887 1.78588L14.1884 1.78523C14.1884 1.78555 14.1884 1.78555 14.1884 1.78523Z" fill="white"/>
</svg>
