<svg width="103" height="99" viewBox="0 0 103 99" fill="none" xmlns="http://www.w3.org/2000/svg">
<path d="M88.7279 35.2315C90.2861 39.603 91.1517 44.3207 91.1517 49.2115C91.1517 72.3241 72.3674 91.1085 49.2548 91.1085C26.1423 91.1085 7.31465 72.3241 7.31465 49.2115C7.31465 26.099 26.099 7.31465 49.2115 7.31465C56.3963 7.31465 63.1483 9.13249 69.0347 12.2921L74.9643 7.27136C72.8435 5.97291 70.6794 4.84758 68.3854 3.85209C62.326 1.29846 55.877 0 49.2115 0C42.5894 0 36.1404 1.29846 30.0377 3.85209C24.1946 6.36244 18.9575 9.86828 14.4129 14.4129C9.91156 18.9142 6.36244 24.1946 3.85209 30.0377C1.29846 36.1404 0 42.5894 0 49.2115C0 55.8337 1.29846 62.2827 3.85209 68.3854C6.31916 74.2285 9.86828 79.5089 14.4129 84.0102C18.9575 88.5548 24.1946 92.0607 30.0377 94.571C36.0971 97.1246 42.5461 98.4231 49.2115 98.4231C55.877 98.4231 62.2827 97.1246 68.3854 94.571C74.2285 92.1039 79.5089 88.5548 84.0102 84.0102C88.5548 79.5089 92.0607 74.2285 94.571 68.3854C97.1246 62.326 98.4231 55.877 98.4231 49.2115C98.4231 42.6327 97.1679 36.227 94.6143 30.2108L88.7279 35.2315Z" fill="#626599"/>
<path d="M49.212 18.568C41.0317 18.568 33.3275 21.7709 27.5277 27.5274C21.7712 33.3271 18.5684 41.0313 18.5684 49.2116C18.5684 57.3919 21.7712 65.0961 27.5277 70.8526C33.3275 76.6523 40.9884 79.8119 49.212 79.8119C57.3922 79.8119 65.0964 76.6091 70.8529 70.8526C76.6094 65.0961 79.8123 57.3919 79.8123 49.2116C79.8123 46.7012 79.5093 44.2342 78.9466 41.8537C78.9034 41.8537 78.9034 41.8537 78.8601 41.8537C78.4705 41.8537 78.081 41.8104 77.6915 41.7238L72.8006 41.0313L71.4589 42.1566C72.1514 44.364 72.5409 46.7445 72.5409 49.1683C72.5409 62.023 62.0667 72.4973 49.212 72.4973C36.3572 72.4973 25.883 62.0663 25.883 49.2116C25.883 36.3569 36.3572 25.8826 49.212 25.8826C52.8476 25.8826 56.2669 26.705 59.3399 28.1766L60.8548 26.8781L60.8115 21.9873C60.8115 21.5977 60.8115 21.2082 60.8981 20.8619C57.2624 19.3471 53.3237 18.568 49.212 18.568Z" fill="#626599"/>
<path d="M102.059 13.9801C101.843 13.201 101.193 12.6384 100.414 12.5085L93.1862 11.4265L93.2727 4.06853C93.2727 3.28946 92.8399 2.55367 92.1041 2.20741C91.3683 1.86115 90.546 1.991 89.94 2.51038L67.6498 21.3813C67.217 21.7708 66.9573 22.3335 66.914 22.8962L66.8275 29.6482L53.8862 40.5552C52.5011 39.8194 50.8997 39.3866 49.2117 39.3866C43.8015 39.3866 39.3867 43.8013 39.3867 49.2116C39.3867 54.6218 43.8015 59.0366 49.2117 59.0366C54.622 59.0366 59.0367 54.6218 59.0367 49.2116C59.0367 47.74 58.7337 46.355 58.1278 45.0998L70.8094 34.3659L77.4748 35.4046C78.0375 35.4912 78.6434 35.3181 79.1195 34.9285L101.41 16.0576C102.016 15.5382 102.275 14.7159 102.059 13.9801Z" fill="#626599"/>
</svg>
