<svg width="130" height="116" viewBox="0 0 130 116" fill="none" xmlns="http://www.w3.org/2000/svg">
<path d="M9.92 100.12C3.52 89.88 0.32 75.7467 0.32 57.72C0.32 39.8 3.52 25.7733 9.92 15.64C16.32 5.50666 26.9867 0.439997 41.92 0.439997C56.8533 0.439997 67.52 5.56 73.92 15.8C80.32 25.9333 83.52 39.9067 83.52 57.72C83.52 75.64 80.32 89.72 73.92 99.96C67.52 110.2 56.8533 115.32 41.92 115.32C26.9867 115.32 16.32 110.253 9.92 100.12ZM60.48 87.64C63.68 80.7067 65.28 70.7333 65.28 57.72C65.28 44.92 63.68 35.1067 60.48 28.28C57.28 21.3467 51.0933 17.88 41.92 17.88C32.64 17.88 26.4 21.2933 23.2 28.12C20 34.9467 18.4 44.8133 18.4 57.72C18.4 70.7333 20 80.7067 23.2 87.64C26.4 94.5733 32.64 98.04 41.92 98.04C51.0933 98.04 57.28 94.5733 60.48 87.64ZM93.7675 19.16V2.04H129.928V115H110.728V19.16H93.7675Z" fill="white"/>
</svg>
